<svg viewBox="0 0 150 150" xmlns="http://www.w3.org/2000/svg"><path fill="#CFCDCC" stroke="#CFCDCC" d="m104.5 11 1 2-1-2ZM109.5 17l1 2-1-2ZM111.5 22l.5 2.5h-1l.5-2.5ZM110.5 26l-4 5-1.5-.5 5.5-4.5ZM98.5 32l2.5.5-2.5.5v-1ZM93.5 33l2.5.5q-2 3-7.5 2.5v-1l5-2ZM83.5 36l2.5.5-2.5.5v-1ZM74.5 39l1.5.5-3.5 1.5v-1l2-1ZM68.5 42l-1 2-2 1 1-2 2-1ZM63.5 45l-2 3-9 7v-1l11-9ZM48.5 70l.5 3.5h-1l.5-3.5ZM32.5 74l3.5.5-3.5.5v-1ZM24.5 75l2.5.5-2.5.5v-1ZM18.5 78l1.5 2.5-2-1 .5-1.5ZM74.5 80l-3 4 3-4ZM80.5 82l2.5 1.5-1.5.5-1-2ZM103.5 82l1.5.5-4.5 3.5 3-4ZM85.5 84l6.5.5-6.5.5v-1ZM107.5 84l.5 2.5-1.5 3.5-.5-2.5 1.5-3.5ZM62.5 86l3.5.5-3.5.5v-1ZM69.5 86q2.3.8 1.5 4.5h-1l-.5-4.5ZM100.5 87l2.5 1.5-1.5.5-1-2ZM49.5 91l.5 3.5h-1l.5-3.5ZM65.5 94l-1 2-4.5-.5 5.5-1.5ZM81.5 94l2.5.5-2.5.5v-1ZM51.5 96l7.5.5-7.5.5v-1ZM92.5 96l.5 2.5h-1l.5-2.5ZM109.5 101l1 2-1-2ZM73.5 102l3.5.5-3.5.5v-1ZM79.5 103l2.5 1.5-12.5.5v-1h9l1-1ZM90.5 105l.5 1.5-2 1 1.5-2.5ZM87.5 108l-5 6-7.5-.5q10.2 1.2 12.5-5.5ZM98.5 108l.5 2.5h-1l.5-2.5ZM110.5 111l-.5 1.5-2.5 3.5q-2.2.8-1.5-1.5l3-1 1.5-2.5ZM69.5 112l3.5.5-3.5.5v-1ZM105.5 112l1.5.5-2.5 1.5 1-2ZM93.5 119l-1 2 1-2ZM72.5 120l1.5 3-4-.5 3-1-.5-1.5ZM90.5 121l-1 2 1-2ZM93.5 122l1.5 2.5h-1l-.5-2.5ZM69.5 128l7.5.5-7.5.5v-1ZM88.5 129l4.5.5-5 1 3 1-4 .5 1.5-3ZM94.5 130l1.5 3-2-.5.5-2.5ZM63.5 133v2l1.5.5-1.5.5-2.5-.5 2.5-2.5Z" opacity=".98"/><path fill="#D6D4D3" stroke="#D6D4D3" d="m80.5 4 5.5.5-5.5.5V4ZM80.5 10h18l3 1 1-1 6.5 6.5 3 5-1 4-4.5 4.5-32 9q-13 5-21 15h-2L49 51.5l-2-6h2Q52.4 27.9 63.5 18q6.6-5.9 17-8ZM37.5 53h7l.5 1.5-1.5-.5h-6v-1ZM19.5 57l-1 2 1-2ZM47.5 69l.5 5-21.5 5-3.5-1.5q.7-2.6-2-1.5 1.7 5.2-2 4l-1-2.5 2.5-2.5 4-1v2H27q-1.5-3.7 1.5-3 1.7 3.5 7.5 2l1.5-5 2 1 2-1 1.5 3h2q-1.5-3.7 1.5-3l1-1ZM75.5 80 71 85.5l-.5 1.5-.5-3 5.5-4ZM77.5 82l8 3H92q2.2 5.6-3.5 4h-2q-3.8 2.7-12 1v-1l4.5-.5-3-1.5-1-2.5 2.5-2.5ZM105.5 82q2.5 1.2 1.5 5-4.1 1.2-1.5-5Z" opacity=".996"/><path fill="#D6D4D3" stroke="#D6D4D3" d="m103.5 83 .5 1.5-1 3 1 2-2 3 .5 1.5-1.5-.5-.5 1.5-.5-1.5 3-5.5-3-1.5 3.5-3.5ZM66.5 87l.5 2.5-2.5 5.5-13 1-2.5 1 1-5.5-1-2 2.5 1.5q9.6 1.1 14.5-1l.5-3ZM105 90q3.3-1.1 2 3l-3-.5 1-2.5ZM77.5 94 92 96l-1 8.5-2.5 3.5-6 5h-9l-5.5-1-2-6.5h1l.5 1.5 1-3 1 1h12l-1-2-7-1-2.5 1q-.8-5 2.5-7l4.5-.5-.5-1.5ZM71.5 95l-2 3 2-3ZM102.5 99l1.5.5-2.5 1.5 1-2ZM105.5 99l3.5 1 2 3.5v7l-3.5 4.5-.5-3-3.5 2-.5-1.5 2-4-1-2 2-6-.5-1.5ZM69.5 118l3 4-3.5-1.5.5-2.5ZM93.5 120l.5 1.5v2q.8 2.3-1.5 1.5l-5 2-.5-2.5 6.5-4.5ZM71 126l5 1.5-5 .5v-2ZM89.5 130q4.5-1 5.5 1.5l-3.5.5-2-2ZM65.5 132l2 1 2-1h2l5.5 1.5-2.5 1.5h-11l-1 1 3-4ZM87.5 134l8.5 2.5-1.5 1.5h-13v-1l6-3Z" opacity=".996"/><path fill="#E2E1E0" stroke="#E2E1E0" d="m40.5 57 .5 6h3v4q2.7-1.1 2 1.5L45 72l-5.5-2-2.5.5-1.5 3.5-5 1-2-4-1.5 4-3.5-2-4.5 1 2-13h2v5h1.5l3 5 .5-5.5-1-5q1.3-2.7 6.5-1.5l1.5 1.5 1.5 8.5q2.4-2.1 1.5-7.5l2.5-4.5ZM30 61v7l1 1q-1 5 3 3l-2-9q1-3-2-2Zm10 4q-1 4 2 3 1-4-2-3Zm-17 2q-3 5 1 4l-1-4Z" opacity=".216"/><path fill="#312922" stroke="#312922" d="m89.5 47 17.5.5-17.5.5v-1ZM28.5 48l3.5 1.5 1 3-6 1.5q-1.2-4.6 1.5-6ZM83.5 48l4.5.5-7.5 1.5v-1l3-1ZM108 48l4 .5-3 .5-3.5 7 .5-1.5 2-6.5ZM77.5 50l1.5.5-4 1.5q-1.2 7.1-6.5 11l1.5-2.5 3-6.5q-9 2.2-14.5 9l-.5-2q7.9-6.9 19.5-11ZM115.5 54l-.5 1.5-.5 1.5-.5-1.5 1.5-1.5ZM110.5 62l-7 8 7-8ZM101.5 70l-2 3-5 2v-1l7-4ZM90.5 75q3.3-1.1 2.5 1.5L90.5 81H82v-5h7.5l1-1ZM77.5 76l3.5.5-3.5.5v-1ZM101.5 76l2 3-4.5 3.5 1 8-1 5.5 7.5-1 1.5 3q-6.2-1-9.5 2l-7-6L73 93l.5-2h18l6 7 .5-2.5v-2l1-4q-3-1-2-6l4.5-7.5ZM36.5 78H39v5.5l2.5 3.5 5-1 1.5 3.5-1 4v6l-3 4v3l1 6.5h-5v-1.5l-2-7.5-4-1.5-3-11q3.9-1.6 3-8l-2-4 4.5-1.5ZM68.5 87l1.5 8.5-3 1.5 1.5-10ZM115.5 94l1.5 5.5-2-1 .5-4.5ZM117.5 103l.5 6.5h-1l.5-6.5ZM96.5 110l2.5 4.5-2.5-1.5-1 1-10.5 8.5-.5 2.5q-3.2-1.7.5-3.5l8.5-10.5 3-1ZM67.5 114l1 2q-2.8.7-1-2ZM103.5 115l4 5q5.4.6 7.5-1l.5-2 .5 3.5-5 10.5-3.5 2H104l-.5 2-2-3q-4.5 1-5.5-1.5.8-2.2-1.5-1.5l-4.5-1.5 4.5-.5 3 1q2.8-1.2.5-2.5-1-6 2-8l-.5-1.5 4-1ZM70.5 124q5.4-.6 7.5 1l-.5 2q-1.7-2.8-7-2v-1ZM85.5 126l.5 2 2 .5-2.5 4.5-.5-4-3.5 1v-1l4-3ZM67.5 129l7.5 1.5-8.5.5 1-2ZM58.5 137l1 1h8l3-1q1.5 2.5 7 1l1.5 1.5-19.5.5-1-3ZM99.5 139l2.5 1-.5 2h-21v-1h17l2-2Z" opacity=".929"/><path fill="#A9A4A4" stroke="#A9A4A4" d="m60.5 10-1 2 1-2ZM54.5 16l-1 2 1-2ZM110.5 17l1 2-1-2ZM113.5 22l4.5 12.5-1 3q2.7 1.7 1 8l-5 12L102.5 69l-9 5-12 2q-1.5-2.5-7-1l-10-4L53 61.5 51 57l2-.5-4-1.5.5-2q.7 2.8 5 2 9.2-10.8 24-16l13-3 14.5-.5q-1.4-2.6-6-2 8.4-1.1 12-7l1.5-4.5Zm3.5 16-1 3h1v-3Zm-1 3-2 7-2-1-19-1-1-1-11 1-12 5-1 3-2-1v2l-8 6-4-2 6 7v-1q-3-2 2-4 2 3 9 2 4-4 5-11l11-3h9q3 6 11 8l4-8 3 1 1 2 1-6v-5Zm-22 3v1h2l-2-1ZM46.5 34l.5 2.5h-1l.5-2.5ZM46.5 43l.5 2.5h-1l.5-2.5Z" opacity=".988"/><path fill="#A9A4A4" stroke="#A9A4A4" d="m86.5 46 3.5.5-3.5.5v-1ZM40.5 52l2.5.5-2.5.5v-1ZM16.5 58q2.6-.8 1.5 2.5h-1l-.5-1.5-1 3-.5-2.5 1.5-1.5ZM49.5 71l.5 2.5-2.5 1.5v-1q2.9.8 2-3ZM93 76q3.8-.7 5 2.5-3.2 2.3-2 9l2 4-1 2.5-6-3.5 2-.5v-6.5l-1.5-.5-5 1-9-4-.5 2-2-.5q3.1-1.7 1.5-3.5l4.5.5q-1.2 3.8 2.5 2.5l5 2 3.5-1 1-6ZM22.5 78l.5 1.5-2 1 1.5-2.5ZM102.5 80l3.5.5-6 4-.5 3.5-.5-3.5 3.5-4.5ZM74.5 83l1.5.5-3 2 .5 1.5q-2.2.8-1.5-1.5l2.5-2.5ZM52.5 85l7.5.5-7.5.5v-1ZM108.5 85q.6 5.9 5.5 7.5l-4 .5-1.5 3-2.5-1.5 2-.5-1-5.5 1.5-3.5ZM48.5 86l.5 2.5-.5 1.5-1.5-2.5 1.5-1.5ZM66.5 86l3.5 1.5.5 4.5 1.5-.5-1 2 1 1-4.5 4.5-1.5.5.5 1.5h-2q-2.6-.7-1.5 2h-2.5q-1.5 2.5-7 1l-2-1-3 1-2.5-1 2.5-5q11.2 1.7 17-2l2 2 3.5-3.5q-3.5-1.7-2-7.5-3.3.8-2.5-1ZM101.5 89l-1 2 1-2ZM83.5 90l5.5.5-5.5.5v-1Z" opacity=".988"/><path fill="#A9A4A4" stroke="#A9A4A4" d="m66.5 92 .5 2.5h-1l.5-2.5ZM48.5 93l.5 2.5h-1l.5-2.5ZM86.5 94l2.5.5-2.5.5v-1ZM111 94q4.5-1.5 3 3l-4 1 1-4ZM92.5 95l5.5 6.5q-2.2 1.3-1 6l-3.5 3.5-6.5 3.5 1 1-3 3-1 3.5-2.5-1-2 1-6-3 2 3 8.5 3.5-1.5 2.5q-4.8 1.7-3.5-2.5-1.4-2.6-6-2l2-1-7.5-10.5q4.8 4.2 15 3l8.5-7.5 3-10-1.5-2.5ZM109.5 99l4 2 2.5-1 1 9.5q-2.2 1.2-1 6l-2.5 2.5-6 1-1-2 5.5-4.5q1.8-11-2.5-13.5ZM96.5 114l2.5 4.5q-3 1-2 6l1 2.5-3.5-1-3 1v-1l4.5-1-1-6h-2.5l-6 4 2-3 8-6ZM103.5 114q3.3-1.1 2.5 1.5l-1.5-.5-1-1ZM69.5 117l1 2-1-2Z" opacity=".988"/><path fill="#A9A4A4" stroke="#A9A4A4" d="m77.5 128 4 3 2-1 1.5 3-4 1-1.5-3-8.5-1.5 6.5-1.5ZM94.5 129l4 4q3.8-.7 4.5 1.5l-1 4.5 2 .5-1.5.5-3.5-2.5q1.8-5.2-3.5-3.5v-1l1.5-.5-2.5-3.5ZM62.5 133l-2 3 2-3Z" opacity=".988"/><path fill="#A9A4A4" stroke="#A9A4A4" d="M78.5 134q2.3-.7 1.5 1.5l-1 2 3-1-1.5 2.5 1.5.5-1.5.5q-2.1-3.4-7.5-3.5l5.5-2.5ZM97.5 137l.5 1.5q-1.2 2.8-6.5 1.5v-1q5 1 6-2ZM84.5 138l5.5.5-5.5.5v-1Z" opacity=".988"/><path fill="#282520" stroke="#282520" d="m76.5 2 .5 2Q60.6 5.4 53 16.5l-7 15v17q3.1 10.9 9 17.5l10.5 7L77 76.5 66.5 85h-17q-2.3 2.7-8 2-3.7-2.5-2.5-9l11-3-1-10.5h1L51 76l-11 3 1 7q5.3 1 7.5-2h17l8.5-6.5q.9-3.4-4.5-1.5Q58 71.5 51 62.5L49.5 60l-1 3-.5-3.5.5-1.5q-3 .9-1.5-3.5L46 51l-9.5 1v-1l9.5-1.5-2-11 3-14L56.5 11q7.6-6.9 20-9ZM78.5 2l9.5.5-9.5.5V2Z" opacity=".208"/><path fill="#282520" stroke="#282520" d="m89.5 2 13 5 8.5 7.5 2 3 7 14v15q-4.2 15.8-15.5 24.5L99 74.5l3.5.5 7.5 6.5 2 6.5q2.7-1.1 2 1.5l3 4q-1 6 2 8v2q1.5 5.5-1 7v2l-3 15-6.5 6.5q-5.2-1.7-3.5 3.5l1 3-4.5 2.5h-22l-2-2h-19l-1.5-1.5v-3l4.5-4.5 4.5-3.5 2-5-3-7v-2L63.5 104l-3 2h-12l-2-1q-2.7 1.3-.5 2.5l1 2v2q.8 2.3-1.5 1.5l-4 2-2.5-1q0-5.8-3.5-9-2.2.8-1.5-1.5l-3-4 1-1-2-4v-4l3-4v-3L32 81l-4-.5 5-.5 1 7.5-3 6 4.5 10.5q3.8-1.2 2.5 2.5l2 6.5q7.5 2.8 5-5.5l-1-4.5q4.5 3.6 15.5 2l5.5-2q-1.2 7 2 10.5v6l3 5-4.5 6.5-6.5 4.5-1 3 1.5 1.5h19l2 2h21l3.5-2.5-1-6.5h3.5l3.5-2 4-6.5 3-15v-6q-2.6-2.9-2-9l-6-8-2-6.5-6.5-4-2 1-3.5-2.5q9.2-4.3 15-12l7-13q2.3-6.7 1-17-4.2-15.3-15.5-23.5Q97.9 4.4 89 4l.5-2ZM30.5 46l4.5 6.5-1.5.5-3-5-3.5 1.5-.5 4.5-.5-6 4.5-2Z" opacity=".208"/><path fill="#282520" stroke="#282520" d="M96.5 48h11l.5 2.5-3.5 5.5-8-8Zm3.5 1 5 5 1-2v-3h-6ZM21.5 54l3.5.5q-6.6.4-10 4l-1 7 2 11h-1l-2-16 4.5-5.5 4-1ZM70.5 54q3.3-1.1 2.5 1.5L68.5 62 63 61l2.5-4 5-3ZM68 57l-4 3 5 1 1-3-2-1ZM16.5 78l.5 4 9.5-1v1l-9 1q-2.7-1.2-1-5Z" opacity=".208"/><path fill="#EDECEC" stroke="#EDECEC" d="M75.5 5h15l10 4 2.5 2.5-1.5-.5-3-1h-18q-13 3-20.5 11.5l-8 13L48.5 46 47 44.5v-9Q49.4 19.9 59.5 12q6.4-5.1 16-7ZM33.5 54h10l1.5 1.5 3 13-2.5 1.5.5-1.5q.7-2.6-2-1.5v-4h-3v-5.5l-2 1-1 8-1.5 2.5-1.5-8.5-1.5-1.5q-5.2-1.2-6.5 1.5L29 73l-2-.5q2.5-1.5-1-3L24.5 66H23v-5h-2l-2 13 4.5-1 .5 2q-4.2-1-5.5 2L17 73.5 16 62q4.5 1.8 3-3.5l1.5-1.5 13-3Z" opacity=".965"/><path fill="#EDECEC" stroke="#EDECEC" d="M30 61q2.7-1.1 2 1.5l2 9.5q-4.5 1.8-3-3.5l-1-1V61ZM40 65q3.3-1.1 2 3-3.3 1.1-2-3ZM22.5 67l1.5 4q-3.8 1.2-1.5-4ZM104.5 83l1.5 6.5-2.5 3.5-2 1 .5-1.5 2-4-1-3 1.5-2.5ZM75.5 85l.5 2 3 1.5-5 .5 1.5-4ZM53.5 86 66 87q1.7 4.1-2.5 3l-1 1h-11L49 87l4.5-1ZM74.5 94l3.5 1.5q-4.6-.6-6 2l-1 5.5h-4v-1.5l5.5-6.5 2-1ZM104.5 99l1.5 2.5-2 6 1 2-2 4.5-2.5 1q-2.6-2.4-1.5-8.5l3.5-6.5 2-1ZM67 105l2 .5-2 1V105Z" opacity=".965"/><path fill="#757272" stroke="#757272" d="m77.5 3 11.5.5-11.5.5V3ZM72.5 4l2.5.5-2.5.5V4ZM97.5 6l4.5 2.5-1.5-.5q-3.7-.2-3-2ZM64.5 7l-1 2-2 1 1-2 2-1ZM103.5 9l8 9-8-9ZM59.5 10l-6 7 6-7ZM52.5 18l-1 2 1-2ZM112.5 19q4.6 4.4 5.5 12.5h-1L112.5 19ZM46.5 31l.5 2.5h-1l.5-2.5ZM118.5 33l.5 11.5h-1l-.5-6.5-2.5 8.5v5h1l1.5-5.5.5 2.5-3.5 6.5-.5-1.5v-2q.7-2.6-2-1.5v-2h-4.5v-1l6.5 1 4.5-15ZM93.5 44l2.5.5-2.5.5v-1ZM84.5 45l20.5 1.5-14.5.5-4-1v1l9 1 10 8 3-5 .5 2.5-2.5 3.5q-7.5-2-11-8-8.4.9-13-2l1 2 2.5.5-2.5.5-3-1v1l1.5.5-2.5.5-2-1v2l-3-1q-8.7 3.3-14.5 9.5v4l1 2-3-2-6-8 6 5 .5 1.5q2.8-1.2.5-2.5l4.5-4.5 2.5-1.5-.5-1.5q7.8-5.7 19-8ZM46.5 46l.5 2.5h-1l.5-2.5Z" opacity=".894"/><path fill="#757272" stroke="#757272" d="M47.5 50q3.3 11.7 12 18L74 74.5l-2.5.5Q59 71 52 61.5q-4.6-4.8-4.5-11.5ZM43.5 51q3.3-1.1 2.5 1.5l-1.5-.5-1-1ZM35.5 52l4.5.5-4.5.5v-1ZM75.5 52l.5 1.5-5.5 9.5-1.5-.5L75.5 52ZM29.5 53l3.5.5-3.5.5v-1ZM25.5 54l2.5.5-2.5.5v-1ZM46.5 54l.5 2.5h-1l.5-2.5ZM18.5 56l-1 2-2 1 1-2 2-1ZM113.5 56l.5 1.5L102.5 70 94 74.5l7 3q-4.6 2.4-4 10l4 2-2.5.5-2.5-2.5q-1.2-6.7 2-9l-7-4q13-4 20-14l2.5-4.5ZM47.5 58l.5 2.5h-1l.5-2.5ZM14.5 60l.5 5.5h-1l.5-5.5ZM62.5 60l5.5 2.5-1.5.5q-4-.5-4-3ZM48.5 63l.5 2.5h-1l.5-2.5ZM49.5 68l.5 2.5h-1l.5-2.5ZM15.5 69l.5 2.5h-1l.5-2.5ZM16.5 75l.5 2.5h-1l.5-2.5ZM75.5 75q5.3-1.2 6.5 1.5l-.5 4.5-1-3-3.5 2.5 1.5-2.5h-2l-7 6 1-2 6-5 4.5-.5-5.5-.5v-1ZM83.5 75l6.5.5-6.5.5v-1ZM38.5 77l2.5.5-2.5.5v-1Z" opacity=".894"/><path fill="#757272" stroke="#757272" d="m92.5 77 .5 2.5-1 2.5-3.5 1-4.5-1.5 6.5-.5 1.5-1.5.5-2.5ZM33.5 78l2.5.5-2.5.5v-1ZM17.5 79l.5 2 9.5-1v1L17 82l.5-3ZM29.5 79l2.5.5-2.5.5v-1ZM102.5 79q5.8-.7 6.5 3.5l1 5.5 4 2.5 3 13h-1q1.5-4.4-1.5-3.5l-3 1q-1.2-2.7-5.5-2.5l2-.5-1-2.5 3-1q-.9-3 3.5-1.5l-4.5-5.5q.1-5.6-3.5-7.5-4.7-.7-5.5 2.5l-.5 1.5-.5-1.5 3.5-3.5Zm8.5 15-1 4 4-1q2-4-3-3ZM67.5 84l-1 2-6.5-.5 7.5-1.5ZM49.5 85l2.5.5-2.5.5v-1ZM67.5 87l.5 4.5h-1l.5-4.5ZM72.5 87l.5 3 10 .5-10 .5.5 2h10v1h-12L69 95l.5-2 1.5.5 1.5-6.5ZM47 90q3-1.2 2 2.5l-2 1V90ZM92.5 91l4.5 3 .5-2 .5 1.5v2l-1 3 2.5 1.5 1.5-.5-1.5 2.5-6-7 1.5.5-2.5-4.5ZM89.5 94l2.5.5-2.5.5v-1Z" opacity=".894"/><path fill="#757272" stroke="#757272" d="m103.5 94 2.5.5-2.5.5v-1ZM47.5 95l.5 3.5h-1l.5-3.5ZM66.5 95l1.5 2.5-2-1 .5-1.5ZM99.5 95l2.5.5-2.5.5v-1ZM66.5 99l-.5 1.5-.5 9.5-.5-7-4.5 1v-1H63q-1.1-2.7 1.5-2l2-2ZM45.5 102l2.5 1.5-1.5.5-1-2ZM97.5 102l1.5 2.5-1.5 7.5-1-2-2 1 2.5-3.5.5-5.5ZM51.5 103l7.5 1.5-9.5.5v-1l2-1ZM116.5 110l.5 5.5-2 3.5q-2.1 1.6-7.5 1l-3.5-4.5 2 1 1.5 2.5q6.9.9 8.5-3.5l.5-5.5ZM66.5 111l7 8 7 3h2q2.3.8 1.5-1.5l4-5-.5-1.5 5-3-5.5 6.5-2 4 5.5-4.5 6-4 2.5.5-.5 1.5 1.5.5v2q-2.7 2.3-2.5 7.5l-.5-4.5 2-3-2.5-3.5-10.5 8.5q.7 5.2-3 6l2 .5-.5 2-3-2v2l-1.5.5 1 2.5 5-1 .5-3 .5 2 12 2q-1 3.8 1.5 5 2.3.8 1.5-1.5l1.5-2.5 1.5 4.5-2.5 1.5-3-2-2 2H79l-1-2.5 2-4-2.5-3.5-3 1 1-2 4 1-3-5 1.5.5q.8-2.2-1.5-1.5v-1l1.5-.5-11-7 2-1q-4.2-1.2-2.5-4.5ZM85 122l-2 2 2 1v-3Zm-6 2v2q-1 4 4 2l-1-1h2v-1q-1-3-5-2Zm6 10-3 2q-5 2-1 4l2-1 14 1 1-2q-3-6-13-4Z" opacity=".894"/><path fill="#757272" stroke="#757272" d="m69.5 123 3.5.5-3.5.5v-1ZM69.5 125l-1 2 1-2ZM72.5 125l2.5.5-2.5.5v-1ZM94.5 126l3 1 1.5-.5-3.5 1.5-1-2ZM86.5 127l7.5 1.5-5.5.5-2-2ZM67.5 128l3.5 1.5-2.5.5-1-2ZM64.5 131l-1 2 1-2ZM98.5 132q3.8-.7 4.5 1.5l-1.5-.5q-4 .8-3-1ZM61.5 133l-1.5 2.5q-.9 3 3.5 1.5l1-1h8l4.5 1.5-5.5.5-3-1-1 1H59q-.7-3.8 2.5-5Z" opacity=".894"/><path fill="#BBB8B8" stroke="#BBB8B8" d="m58.5 12-3 4 3-4ZM106.5 13l3 4-3-4ZM112.5 21l.5 3.5-5.5 6.5 3.5-4.5 1.5-5.5ZM104.5 31l1.5.5-4.5 1.5v-1l3-1ZM96.5 33l8 1 1.5 1.5-13.5.5v-1l4-2ZM86.5 36l4.5.5-4.5.5v-1ZM46.5 37l.5 5.5h-1l.5-5.5ZM82.5 37l2.5.5-2.5.5v-1ZM76.5 39l1.5.5-3.5 1.5v-1l2-1ZM71.5 41l1.5.5-4.5 2.5 1-2 2-1ZM66.5 44l-1 2-3 2 2-3 2-1ZM60.5 48l-6 7 6-7ZM48.5 51l3.5 3.5-.5 2.5q-2.2.8-1.5-1.5l1-1-2.5-3.5ZM18.5 60l-1 2-1.5-.5 2.5-1.5ZM48.5 67l.5 2.5h-1l.5-2.5ZM21 77l2 .5-2.5 3.5.5-1.5V77ZM77.5 81l-1 2 1-2ZM79.5 81l2.5 1.5-1.5-.5-1-1ZM104.5 81l2.5.5-2.5.5v-1ZM74.5 82l-2 3 2-3ZM102.5 82l-2 3 2-3ZM83.5 83l2.5.5-2.5.5v-1ZM91.5 83l1.5.5V90l-4-.5 3-.5-.5-6ZM71.5 86l.5 4.5-2 1 1.5-5.5ZM102.5 89l-2 3 2-3ZM107.5 89l.5 4.5h-1l.5-4.5ZM65.5 95l-1 2L48 98l.5-2 1 1h9l7-2ZM93.5 97l.5 1.5-1.5 3.5-.5-2.5 1.5-2.5ZM101.5 99l-1 2 1-2ZM108.5 99l3.5 3.5v10l-5.5 4.5v-1l3.5-2.5q2.5-3.5 1-11l-2.5-3.5ZM67.5 103l11.5.5-11.5.5-1 1 1-2ZM91.5 103l.5 2.5h-1l.5-2.5ZM90.5 107l-1 2-7 6h-8l-4.5-1.5 4.5-.5q1.7 2.8 8 1l8-7ZM67.5 111l1 2-1-2ZM92.5 119l-1 2 1-2ZM94.5 119l1.5 5.5h-1l-.5-5.5ZM89.5 121l-1 2q-3-.9-1.5 3.5h-1q-.7-3.7 1.5-4.5l2-1ZM66.5 131l5.5.5-5.5.5v-1ZM78.5 133l-1 2q-3.8 2.7-12 1v-1q9.5 2 13-2ZM96.5 136l.5 1.5q-1.2 2.8-6.5 1.5v-1q6.4 2 6-2ZM80.5 138l3.5.5-3.5.5v-1Z" opacity=".98"/></svg>
