<svg viewBox="0 0 150 150" xmlns="http://www.w3.org/2000/svg"><path fill="#2D2A2A" stroke="#2D2A2A" d="m58.5 3-1 2 1-2ZM55.5 5l-2 3 2-3ZM51.5 8 50 10.5q-6.8 6.7-8.5 18.5l-.5-3.5Q43.9 14.4 51.5 8ZM40.5 30q.3 19.7 11 29L62 65q1.3 3-2.5 2L55 69.5l-2 9-5 6q-.7 8.8-5 14l-2 16 2 6v6h-1q.8-6.3-2-9v-10l2-10 4-8v-4l5-6q.8-9.2 6.5-13.5l1.5-.5-3.5-1.5-9.5-9.5q-7.1-9-5.5-24.5ZM110.5 30l.5 8.5h-1l.5-8.5ZM95.5 38q2.3-.7 1.5 1.5l1.5-.5 2.5.5-1 2.5-4.5-4ZM61.5 40l2.5.5-4.5 5.5-3.5-3.5 1.5-1.5 2.5.5-3 1 2.5 1.5q3.7-2 2-4ZM109.5 40l.5 3.5h-1l.5-3.5ZM108.5 45l.5 1.5Q104.8 57.8 95.5 64q-2.6-.7-1.5 2h-3.5v-1q7.8-3.2 12.5-9.5l5.5-10.5ZM103.5 79l5.5 7.5v4h-1v-4l-4.5-7.5ZM109.5 93l.5 8.5h-1l.5-8.5ZM110.5 105l.5 5.5h-1l.5-5.5ZM109.5 112l.5 5.5q-2.9 3.6-2 11l-3.5 4.5-6 1v-1q5.5 1 6.5-2.5l2-3v-7q3-2.5 2.5-8.5ZM54.5 113q-.1 7.6 3.5 11.5v8L53.5 146l-.5-4.5q3.8-5.7 4-15l-1.5.5-3.5 1.5 1 4-2 1 1-3-3-1.5-1-3.5 2.5-1.5 3 3 1.5-1.5-3-5v-3l2.5-4.5ZM50 126l1 2h1l-2-2ZM75 123h5v1.5q-3.3 3.7-2 12l-1.5 1.5q-2.6-6.1-1.5-15ZM97.5 124l.5 1.5-1.5 2.5-.5-1.5 1.5-2.5Z" opacity=".122"/><path fill="#2D2A2A" stroke="#2D2A2A" d="M43.5 128q1.4 4.8 6.5 4 1.1 2.7-1.5 2l-4.5-3.5-.5-2.5ZM95.5 133q3 4.5 1.5 13.5l-2 1 1-9q-2.4-1.4-.5-5.5ZM76.5 143l.5 3.5h-1l-1-2 1.5-1.5ZM68.5 146l1.5.5-1.5 1.5-7 1v-1l7-2ZM54.5 147q3.8-.7 4.5 1.5l-1.5.5-3-1v-1ZM77.5 148l5.5 1.5-4.5.5-1-2ZM93.5 148l-1 2-1.5-.5 2.5-1.5Z" opacity=".122"/><path fill="#CDC0C0" stroke="#CDC0C0" d="m74.5 0 2.5.5-2.5.5V0ZM58.5 5 53 11.5l-1 4q2.8 1.7 1 8l3.5 5.5 5.5 3.5-1 3 1.5 2.5L49 28.5l-1-12L54.5 8l4-3ZM98.5 9l2 3-2-3ZM102.5 14l1 2-1-2ZM108.5 27l.5 3.5h-1l.5-3.5ZM71.5 36l5.5.5-5.5.5v-1ZM91.5 36l2.5.5-2.5.5v-1ZM65.5 37l2.5.5-2.5.5v-1ZM83.5 37l5.5.5-5.5.5v-1ZM108.5 37l.5 2.5h-1l.5-2.5ZM72.5 38l4.5.5-2 1L88 41l1.5 3 3 1 .5-1.5-.5-1.5 2.5 1.5-2 5q1.7 4.3 3.5 1.5 7-1 10-6l.5 1.5L99.5 56H96q1.1-2.7-1.5-2h-17l-.5-1.5-6-9.5q-2.7 1.1-2-1.5-2.2-1.2.5-2.5l3-1Z" opacity=".988"/><path fill="#CDC0C0" stroke="#CDC0C0" d="m92.5 38 7 6 1.5-.5-4 1.5-4.5-7ZM102.5 40l2.5.5-3.5 1.5 1-2ZM106.5 41l1 2-1-2ZM92.5 67q5-.5 5.5 3.5l-.5 1.5-3-4q-4.6-1.3-2.5 4.5l6.5 9.5 3.5-.5-1.5-2.5 5.5 6.5-3.5-2.5h-8l-.5-1.5q-4.2-3.8-3-13l1.5-1.5ZM82.5 72l1.5 3.5-8 7q-.8 2.6 2.5 1.5v1L72 83.5l6-5v-2l4.5-4.5ZM85.5 80l1 2-1-2ZM87.5 83l1 2-1-2ZM80.5 85l6 7-6-7ZM99 86l4 .5-2 .5q-1.1 10.5 1 17h5V92.5h1v20l-2.5.5-4.5-3.5q-4.8-7.2-3-21l1-2.5ZM91.5 89l.5 3.5-2.5 1.5v-1H91l.5-4ZM66 95l11 .5-7 .5-2 8.5 1 4.5 6 .5-5.5.5-6.5-2 3-13ZM87.5 95l1 2-1-2ZM90.5 97l1 2-1-2ZM90.5 103l-2 3-2 1 1-2 3-2ZM77.5 109l3.5.5-3.5.5v-1ZM64.5 130l6 1 1.5 1.5q.8 2.6-2.5 1.5l-6.5-1 1.5-3ZM85.5 131l6 1 1.5 1.5q.8 2.3-1.5 1.5-1.2-2.2-6-1l-1.5-1.5 1.5-1.5ZM60 137h10.5l1.5 1.5q.8 2.3-1.5 1.5-2.3 2.7-8 2l-3.5-2.5 1-2.5ZM83.5 137l6.5.5q-5.4-.9-7 2l.5 2.5H93q1.5-3.7-1.5-3v-1l2.5 1.5-1.5 3.5h-9l-2.5-2.5 2.5-3.5Z" opacity=".988"/><path fill="#EEE6E5" stroke="#EEE6E5" d="M73.5 1q21.4.6 29.5 14.5 5.1 7.2 5 18.5-3.4.8-4.5-2l-5 4h-7l-8-3L66 18.5q.8-2.2-1.5-1.5L57 14q.3-6.1 4.5-9l6-3q4.8 1.2 6-1Z" opacity=".996"/><path fill="#655" stroke="#655" d="m41.5 29 .5 9.5h-1l.5-9.5ZM101.5 39l-1 2 1-2ZM42.5 40l5 11 1-2Q55 56.3 64 60l1.5 3q7.8 4.3 20.5 3.5L76.5 74h-2v-1h2l4.5-4.5-9.5-.5-8-2L50 57.5l-6-9-1.5-8.5ZM55 41l2 .5-1 1 2.5 3.5-3.5-5ZM92.5 63l-1 2-1.5-.5 2.5-1.5ZM91.5 66l-1 2 1-2ZM56.5 68H59v6.5l-1 5 1.5 2.5 1.5-8.5 3.5-5.5 4 5 2.5.5q-6.3-.8-8 3l-3 12 4.5-3.5 10.5.5-10.5.5-1.5 1.5-3.5 4.5-.5-5-2.5 1q-2.2-3.5-7.5-3l6-9.5q-1.5-6 1.5-7.5Zm1.5 1-2 2q-1 4 2 3v-5Zm-4 9-3 6 7 2-1-6q1-3-3-2ZM85.5 73l.5 4.5h-1l.5-4.5ZM89.5 77l.5 2.5h-1l.5-2.5ZM90.5 81l.5 1.5q-1.5 3-3 0h2l.5-1.5ZM96.5 84l2.5.5-5 3 1 1v19q2.6 7.4 8.5 11.5l3 1 1.5-.5-3.5 1.5-9-7-3 8-.5-1.5 2-4-2-4q3.5-1.5 2-8l-3 1 3-5-4-5 3-1q.6-5.4-1-7.5l4.5-3ZM93 96l1 2q1-3-1-2Z" opacity=".902"/><path fill="#655" stroke="#655" d="m49 86 2 .5q-9.7 9.2-7 29.5l6.5-1 1.5-1.5L56.5 95l1 2q1-4 7-3v1Q60 94 59 96.5l-3 8 1 2.5 11.5 4h13l8-5-9.5 10.5-2.5 3.5-7-1-11.5-7.5-3.5-5.5-1.5 6.5-2.5 3.5h-5l-3.5 2q-2.2-3.6-1-12.5l3-12 4-7.5ZM79.5 86l7 8-5.5-.5 4-1-5.5-6.5Z" opacity=".902"/><path fill="#655" stroke="#655" d="m57.5 89 .5 3.5h-1l.5-3.5ZM56.5 113l8 9 2.5 1.5-1.5-.5-7-6-.5 1.5 3 8-2-1-3-8 .5-4.5ZM88.5 116l-8.5 9.5q-1.1 3.3 1.5 2.5v1l-2.5-1.5v-2l9.5-9.5ZM70.5 125q3.8-.7 4.5 1.5l-.5 2.5-.5-3q-4.4 1-3.5-1ZM92.5 125l.5 2q3.3-1.3 2 3.5l-1.5 2.5-1-3-6 1-3.5-1.5 9.5-.5 1.5.5-1.5-4.5ZM62.5 127l6.5.5-6.5.5v-1ZM70.5 128l1.5 3 2.5-1 .5 1.5q-2.5 1.5 1 3v4l-2 .5v2.5l-2 1 1-4-1-2 3 1q-.4-5.5-4.5-7.5l-3.5-.5 3.5-1.5ZM60.5 129l2.5.5-4 2 1 2-2 .5v-4h1.5l1-1ZM80.5 130l-.5 1.5-.5 1.5-.5-1.5 1.5-1.5Z" opacity=".902"/><path fill="#655" stroke="#655" d="m63.5 134 5.5.5q-2.7 2.3-8.5 1.5v-1l3-1ZM78.5 134l2.5 1v2q-2.7-1.1-2 1.5h-1l1-3-.5-1.5ZM90.5 135l4.5 2-.5 2q-1.2-2.7-5.5-2.5l1.5-1.5ZM57.5 136l-1 2 1-2ZM55.5 139l3 5 9.5.5-9.5.5-3.5-2.5.5-3.5ZM77.5 140l2 5 1.5.5-1.5.5q-3.8-1.3-2-6ZM95.5 140l.5 3.5-3 2q2.8-1.2 2.5-5.5ZM82.5 146l2.5.5-2.5.5v-1Z" opacity=".902"/><path fill="#B3A3A3" stroke="#B3A3A3" d="m70.5 0 3.5.5-3.5.5V0ZM77.5 0l3.5.5-3.5.5V0ZM91.5 4 94 5.5 92.5 5l-1-1ZM57.5 5l-2 3 2-3ZM95.5 6l2 3-2-3ZM52.5 9l-.5 1.5q-5.4 3.1-4 13l2.5 6.5h2l9 8 3.5.5L51 41l-3.5-7-3.5-1.5 1-12L52.5 9ZM101.5 12l2 3-2-3ZM109.5 31l.5 5.5h-1l.5-5.5ZM77.5 36h13l6.5 5.5-4.5-3.5-9-1q-1.7 2.8-8 1v-1l2-1Z" opacity=".969"/><path fill="#B3A3A3" stroke="#B3A3A3" d="M68.5 37q4.8-1.3 3.5 2l-4 1.5 1 2.5q2.7-1.1 2 1.5l6 9.5h15.5l1-1 2.5 1q-1.3 3.3 3.5 2l5-6-.5 1.5-7.5 8.5q-5.9 3.7-16.5 2l-3.5-6Q60.8 53.7 53 43.5l1.5-.5q1.4 4.7 6.5 4l5.5-8 2.5-.5-.5-1.5ZM101.5 38l6.5 2-.5 2-6-3v-1ZM100.5 42l-1 2 1-2ZM92.5 66l1.5.5-2.5 1.5 1-2ZM95.5 67l2 3-2-3ZM82.5 70q2.6-.8 1.5 2.5l-1.5-.5-4.5 4.5q.5 5-3.5 5.5L72 83.5l3 1-7.5.5q-2.7-1.2-.5-2.5l1.5-2.5q9-3 14-10ZM90.5 70q.1 8.5 3.5 13l3 .5-3.5 1.5q-5.1-5.1-3-15ZM98.5 72l.5 2.5h-1l.5-2.5ZM84.5 75l.5 2.5h-1l.5-2.5ZM100.5 78l4 5-4-5ZM87.5 82l3 4-3-4ZM101.5 83l3 2 1.5-.5-.5 1.5q2.3-.7 1.5 1.5-2.5 1.5 1 3l-.5 1.5-4.5-5.5q2.3-1.3-.5-2.5l-1-1ZM79.5 85l4 5-4-5ZM99.5 85l1.5.5-2 .5-1 2.5v13l3 8 2.5 2.5 4.5 1-1.5 5-6.5-5.5-3-6-1-17 3.5-4.5ZM52.5 87l3.5 2.5v5l-3 11-3.5 6.5-3.5-.5v-12l4-10 2.5-2.5ZM87.5 92l1 2-1-2ZM79.5 94l5.5.5-5.5.5v-1ZM63.5 95q3.3-1.1 2.5 1.5L63 108l2 .5-1.5.5-4.5-2q-.5-8.3 4.5-12ZM108.5 95l.5 16.5h-1l.5-16.5ZM92.5 102l-2 3 2-3ZM66.5 109l2.5.5-2.5.5v-1ZM72.5 110l5.5.5-5.5.5v-1ZM62 124l6 1.5-6 .5v-2ZM87.5 124H91v5q-5.4 1.5-7-1.5-.7-2.2 1.5-1.5l2-2ZM72.5 128l1 2q-2.8.7-1-2ZM62.5 130l1.5.5-1 2.5 6 .5-5.5.5-2.5-1 1.5-3ZM67.5 130l2.5.5-2.5.5v-1ZM82 131l3 .5-.5 2.5-3.5-.5 1-2.5ZM87.5 131l3.5.5-3.5.5v-1ZM72.5 133l1.5 2.5-1.5-.5-1.5-.5 1.5-1.5ZM93.5 134l.5 2-2-.5 1.5-1.5ZM61.5 136l6.5.5-6.5.5v-1ZM58.5 137q2.3-.7 1.5 1.5-2.2 1.3.5 2.5l1.5.5-2.5.5-2.5-1 1.5-4ZM80.5 137l2.5.5-2 3 1.5 2.5-3.5-1q-1-3.8 1.5-5ZM72.5 139l-1 2-1.5-.5 2.5-1.5ZM94.5 140l.5 1.5-2 1 1.5-2.5ZM84.5 143l7.5.5-7.5.5v-1Z" opacity=".969"/><path fill="#2A2424" stroke="#2A2424" d="m53.5 59 5.5 4.5-1.5-.5-4-4ZM62.5 65q7.1 4 18.5 3.5-2.2 5.3-9.5 5.5L65 69.5l-.5-1.5-3.5 5.5-1.5 8.5q-2.2-1.7-1.5-6.5l1-1V67q3.8 1.3 3.5-2ZM89.5 65q2.8 1.3.5 2.5l-1 12 2 4-4-3-2-13 4.5-2.5ZM54.5 72l.5 3.5-1.5 2.5-.5-1.5 1.5-4.5ZM48.5 84l3.5 1.5-3 .5-1.5 3-.5-1.5 1.5-3.5ZM64.5 86h14l6.5 6.5-4.5 1.5h-20l-3 3-.5-3.5 1-4-1-2.5q3.7-1.3 2 4.5l4-3 1.5-2.5ZM42.5 102l.5 2.5h-1l.5-2.5ZM93.5 104l.5 6.5-4 2.5v1.5l-9.5 9.5-5.5-1-.5 3q-10-1.5-14.5-8.5l-3.5-4.5-.5 4.5 4.5 9.5 9.5 1.5-9.5.5-2.5 1v-5.5q-3.6-3.9-3.5-11.5-3 2-2.5 7.5l3 5.5-5.5-2-1.5 2.5 1 2.5 3 1.5-1.5 2.5-6.5-4.5-2-12h1q-.7 2.3 1.5 1.5l2-2q5.3 1.3 6.5-1.5l2.5-8.5 5 7q5.5 6.5 17 7l13-14 3-2ZM41.5 110l.5 4.5h-1l.5-4.5ZM95.5 114l7 6 4.5 1v6.5l-4.5 5.5-6-1-2.5 1.5 1-6.5q-2.7 1.1-2-1.5l-1-3 3.5-8.5Zm2.5 10-2 2 1 2 1-2v-2ZM78 128l5 1.5-4 2-.5 2.5-.5-6ZM74.5 132l1 2-1-2ZM57.5 133l5.5 1.5-6 1.5.5-3ZM66.5 135l3.5.5-3.5.5v-1ZM78.5 135l.5 1.5-2 6.5-14.5 5-3-1h-2l-3.5-1.5.5-3.5q3.1 4.9 13 3l6.5-3.5q-1.1-3.3 1.5-2.5l3-4ZM81.5 135l8.5.5-8.5.5v-1ZM77.5 144q3.8 4.7 14 3l4-3 .5 1.5q-3.5 5-12.5 4.5l-4-1-2.5-2.5.5-2.5Z" opacity=".906"/><path fill="#DDD3D2" stroke="#DDD3D2" d="m70.5 1 2.5.5-2.5.5V1ZM79.5 1l2.5.5-2.5.5V1ZM63.5 3l1.5.5-6 4-2 6.5 9 3 1.5 3 3 1 16 14 4.5.5-19.5.5-8 2q-4.2-1.8-1.5-3.5L60.5 31 54 26.5l-2-12q1.6-6.9 7.5-9.5l4-2ZM95.5 7l6 7-6-7ZM107.5 25l.5 2.5h-1l.5-2.5ZM108.5 31l.5 5.5-1.5 3.5q-5.1-3.4-13.5-3.5l4.5-.5 5-4q1.1 2.8 4.5 2l.5-3ZM77.5 38h14l5.5 5.5q-.8 2.6 2.5 1.5l3-4q3.8-.7 4.5 1.5l-3.5 4.5-8 4-2.5-3.5 2-4-2.5-1.5.5 1.5-.5 1.5-4.5-2.5q.8-2.6-2.5-1.5l-1-1-9.5-.5 2.5-1.5ZM92 68q3.8-.7 5 2.5.6 7.4 5 11l-3.5.5-6.5-9.5V68ZM83.5 76l5 9q2.3-.7 1.5 1.5l1 6.5h-2.5l-8-8-4.5-1 3.5-5 4-3ZM101 87q4.7-.7 6 3.5V104h-5q-2.1-6.5-1-17ZM77.5 95h9l5.5 4.5q1.5 4.4-1.5 3.5l-9 6-6 1-6.5-1-1-5.5 2-7.5h6.5l1-1ZM84.5 138q6.1-.7 8.5 1l-.5 3H83l1.5-4Z" opacity=".996"/><path fill="#817171" stroke="#817171" d="m65.5 0-1 2 1-2ZM85.5 0 90 2.5 88.5 2q-3.8.5-3-2ZM62.5 1l-1 2 1-2ZM52.5 7l.5 1.5-3 2L52.5 7ZM98.5 7l3 4-3-4ZM102.5 12l2 3-2-3ZM48.5 13l-1 2 1-2ZM46.5 16l-.5 1.5-1.5 3.5-.5-1.5 2.5-3.5ZM106.5 17l1.5 2.5-2-1 .5-1.5ZM43.5 22l.5 2.5-1 1v10l3 7.5 6.5-1v1L47 45.5l3 2 2.5 3.5 18 11q6 0 9 3h7l3-1v1q-5.5 2.5-15 1L64 61.5q.8-2.2-1.5-1.5l-14-11-.5 1.5 1 2h-1l-6-13v-14l1.5-3.5ZM109.5 27l1.5 2.5-2-1 .5-1.5ZM94.5 38l3 4-3-4Z" opacity=".863"/><path fill="#817171" stroke="#817171" d="m62.5 39 2 1 1.5-.5-6.5 7.5.5-1.5 4-5-1.5-1.5ZM104.5 52l-1 2 1-2ZM102.5 55l-2.5 3.5.5 1.5-2.5-.5 4.5-4.5ZM96.5 60l-1 2 1-2ZM96.5 66l1.5 2.5-2-1 .5-1.5ZM82.5 68l-4 5 4-5ZM57.5 69l.5 5q-3.3 1.3-2-3.5l1.5-1.5ZM98.5 70l1 2-1-2ZM65.5 74l9.5.5-8.5.5-2.5 2.5q-1.5 7 1.5 6.5v1l-5 4-.5-1.5 2-9 3.5-4.5ZM99.5 74l3.5 5.5-2-1-1.5-4.5ZM54 78q3.8-1.5 3 1.5l1 3h-1L55.5 80 53 81.5l1 2-2.5.5.5-1.5 2-4.5ZM91.5 83l.5 3 2.5-1-1 2-3.5-2.5 1.5-1.5ZM55.5 84l2.5.5q.8 2.3-1.5 1.5l-1-2ZM99.5 84l2.5.5-2.5.5v-1ZM97.5 85 96 87.5l-.5 2.5-.5-2.5 2.5-2.5ZM49.5 88l-1 2 1-2ZM87.5 93l2 3-2-3ZM65.5 94l2.5.5-2.5.5v-1ZM92.5 94l-1 2 1-2ZM60.5 95l-.5 1.5-2.5 10.5-1.5-2.5 4.5-9.5ZM44.5 100l.5 3.5h-1l.5-3.5ZM109.5 102l.5 7.5h-1l.5-7.5ZM95.5 103q1.3 10.2 8 15l3 1 1.5-.5-2.5 1.5-7.5-6.5q-4.3-3.6-2.5-10.5ZM53.5 104l.5 4.5h-1l.5-4.5ZM91.5 104l-1 2 1-2ZM52.5 110l.5 1.5-2.5 3.5-6.5 1 .5-4 .5 2q5.3 0 7.5-4ZM91.5 113q2.3-.7 1.5 1.5l-4 1 2.5-2.5ZM108.5 113l.5 2.5h-1l.5-2.5ZM58.5 117l5 6-2.5-1-.5 3-2-8ZM91.5 121l.5 3.5h-1l.5-3.5ZM82.5 123l-1.5 2.5-.5 2.5-.5-2.5 2.5-2.5ZM63.5 129l3.5.5-3.5.5v-1ZM81.5 130l4.5.5-5.5 1.5 1-2ZM59.5 131l1.5 2.5-2-1 .5-1.5ZM79.5 133l1 2q-2.8.7-1-2ZM82.5 134l2.5.5-2.5.5v-1ZM94.5 135l.5 2-2-.5 1.5-1.5ZM72.5 141l-1 2-1.5-.5 2.5-1.5ZM57.5 142l1 1 10.5.5-10.5.5-1-2ZM78.5 143l1 2-1-2ZM85.5 146l4.5.5-4.5.5v-1Z" opacity=".863"/><path fill="#978586" stroke="#978586" d="m55.5 6-2 3 2-3ZM97.5 7l4 5-4-5ZM50.5 11l-1 2 1-2ZM43.5 25l.5 7.5 1.5 1.5 3.5 1.5 2 5.5h2.5l5.5 5.5-4.5-3.5-1.5.5 8.5 7.5 13 4 4.5 3.5 1 3.5h11.5l4-2-1 2-8 3h-7l-19-8L50 48.5 48.5 46l-1.5-.5 6-3-3.5-.5-3.5 1q-4.7-6-2.5-18ZM72.5 37l2.5.5-2.5.5v-1ZM93.5 37l2.5.5-2.5.5v-1ZM65.5 38l3.5.5-3.5.5v-1Z" opacity=".941"/><path fill="#978586" stroke="#978586" d="m59.5 39 2.5.5-2.5.5v-1ZM63.5 42l-2 3 2-3ZM97.5 42l1 2-1-2ZM102.5 54l-5 6 5-6ZM83.5 68q2.8 1.3 1.5 6.5h-1q1.9-5.4-1.5-4.5-6 7.5-15.5 11.5l-1 2 .5 1.5-2.5-1q-1.8-7.1 2.5-9h8l9-7ZM89.5 73l.5 2.5h-1l.5-2.5ZM54.5 80l2.5 1.5 1 2q-1.2 2.8-2.5.5L53 82.5l1.5-2.5ZM97.5 83l3.5.5-3.5.5v-1ZM92.5 84h2l1.5.5-4.5 2.5.5-1.5.5-1.5ZM102.5 84q2.8 5.4 5.5 3.5-2.3 3.7-4.5-1.5l-2.5-.5 1.5-1.5ZM98.5 85 97 87.5l-.5 1.5-.5-1.5 2.5-2.5ZM52.5 86l3.5 1 1 5.5h-1q.8-3.7-1.5-4.5l-2-1-2.5 2.5-4 10V112q3.8 1 5-1.5l1.5-4.5.5 3.5q-2.4 4.4-8 4.5-1.9-2.7-1-9.5l2-9 4-8.5 2.5-1ZM84.5 90l2 3-2-3ZM92.5 90l.5 3.5-4.5 2.5-1-2H92l.5-4ZM95.5 90l1.5 16.5q2.3 6.8 7.5 10.5l2 1 1-2 .5 1.5-2.5 1.5-5.5-4.5q-7.2-8.4-4.5-24.5ZM108.5 92l.5 2.5h-1l.5-2.5ZM68.5 94l10.5.5-10.5.5v-1Z" opacity=".941"/><path fill="#978586" stroke="#978586" d="m55.5 95 .5 2.5h-1l.5-2.5ZM61.5 95l1.5.5q-4.5 3.7-4 11.5l2 .5-1.5.5q-2.5-1-1.5-5.5l3.5-7.5ZM90.5 96l2 3-2-3ZM89.5 105l-1 2 1-2ZM69.5 110l2.5.5-2.5.5v-1ZM91.5 114l1.5 3.5-2 6.5h-3.5l-3.5 2 1 2.5-1.5-.5q-3.7 1.3-2.5-2.5L91.5 114ZM61 122l6 2.5-1.5.5-3.5-1q-1.4 4 5.5 2h2l4.5 1-.5 2-4-2q-6.7 1.8-8.5-1.5V122ZM91.5 125l2.5 4.5-1.5-.5q-3.5.8-1-4ZM60 130l2 .5-1 2.5 2 .5-1.5.5-1.5-4ZM70.5 130l2 3-2-3ZM81.5 131l.5 1.5-.5 2.5-1.5-2.5 1.5-1.5ZM85.5 134l3.5.5-3.5.5v-1ZM72.5 135l2.5.5q.8 2.3-1.5 1.5l-1-2ZM68.5 136l2.5.5-2.5.5v-1ZM83.5 136l3.5.5-3.5.5v-1ZM56.5 139l.5 2q3.3 2.1 11.5 1l4-2-1 2-2 1h-11l-2.5-1 .5-3ZM78.5 140l.5 2q3.9 2.9 12.5 2l3-2 .5 1.5q-3.1 4.4-12.5 2.5l-4.5-3.5.5-2.5Z" opacity=".941"/></svg>
