<svg viewBox="0 0 50 75" xmlns="http://www.w3.org/2000/svg" version="1.0"><path fill="#1b0f0a" d="M0 37.5V0h50v75H0V37.5z"/><path fill="#20191a" d="M21 73.4c0-1-2-3.9-4.5-6.5L11.9 62l-.9 2.6c-.6 1.4-2.5 3.1-4.5 3.9C-.4 71.5 0 73.7 0 35V0h50v29.5c0 24.6-.2 29.5-1.4 29.5-1.8 0-7.1 8.4-9 14.3-.5 1.4-1.9 1.7-9.6 1.7-7.7 0-9-.2-9-1.6z"/><path fill="#321e0e" d="M0 35V0h50v29.5c0 21.6-.3 29.5-1.2 29.5-.6 0-2.7 1.9-4.6 4.1-4.9 5.7-8.7 7.1-15.2 5.9-5.8-1.1-13.4-4.2-14.4-5.9-1.2-1.8-2.6-1.3-3.6 1.4-.6 1.5-2.5 3.2-4.5 4C-.4 71.5 0 73.7 0 35z"/><g fill="#452408"><path d="M28.3 68.9c-4.5-.8-11.8-3.9-14.4-6.1-2.3-1.9-3.9-5.3-3.9-8.2 0-1.4-1-3.2-2.3-4.3-3.7-2.9-4.6-5.5-5.1-14.4-.2-4.8-.9-8.5-1.5-8.7C.4 27 0 22.3 0 13.4V0h38.9L38 2.8c-.5 1.5-1.6 4.8-2.4 7.5-1.5 4.7-1.5 4.7 1 6.3 1.8 1.3 3.8 1.5 7.9 1.1l5.5-.6v8.1c0 6.4-.3 7.9-1.4 7.5-1.1-.5-1.3 1.4-1.2 10.6.3 13.6-.4 17-4.1 20.9-2.6 2.8-8.2 6-10 5.7-.4-.1-2.7-.5-5-1zM45.1 4.4C42.2.7 42.5 0 46.5 0c3.3 0 3.5.2 3.5 3.5 0 4.3-2 4.6-4.9.9z"/></g><path fill="#3f2916" d="M28.3 68.9c-4.5-.8-11.8-3.9-14.4-6.1-2.3-1.9-3.9-5.3-3.9-8.2 0-1.4-1-3.2-2.3-4.3-1.3-1-2.9-2.8-3.5-3.9-1.4-2.6-2.4-16.6-1.1-15.8.5.3.9 1.3 1 2.2 0 1.3.3 1.2 1.1-.5.6-1.2 2.5-2.7 4.2-3.3 4.9-1.8 6.1-2.6 6.1-4.1 0-1.7-3.6-2.7-10.2-2.8L0 22V0h38.9L38 2.8c-.5 1.5-1.6 4.8-2.4 7.5-1.5 4.7-1.5 4.7 1 6.3 1.8 1.3 3.8 1.5 7.9 1.1l5.5-.6v8.1c0 6.4-.3 7.9-1.4 7.5-1.1-.5-1.3 1.4-1.2 10.6.3 13.6-.4 17-4.1 20.9-2.6 2.8-8.2 6-10 5.7-.4-.1-2.7-.5-5-1z"/><path fill="#302928" d="M28.3 68.9c-4.5-.8-11.8-3.9-14.4-6.1-2.5-2.1-3.9-5.4-3.9-9.2 0-2.3-.8-4.4-2.4-6.1C4.7 44.4 3.4 37 5 33c.7-1.7 2.4-3.3 4.3-4 5-1.8 6.2-2.6 6.2-4.1 0-1.7-3.6-2.7-10.2-2.8L0 22V0h18.5C32.7 0 37 .3 37 1.3c0 .6-1.2 3.5-2.5 6.2-1.4 2.8-2.5 5.9-2.5 7.1 0 2.7 3.8 6.2 7.7 7 1.8.3 3.5 1.4 3.8 2.3 2.1 4.9 4.3 19.5 4 25.2-.2 3.5-.4 7.4-.5 8.6 0 4.2-9.7 12.7-13.7 12.2-.4-.1-2.7-.5-5-1z"/><path fill="#4e2f16" d="M26.2 67.3C19.2 65.7 12 60 12 56.2c0-1.2-.4-2.2-1-2.2-.5 0-1-.9-1-1.9 0-1.1-1.1-3.2-2.4-4.6C4.7 44.4 3.4 37 5 33c.7-1.7 2.4-3.3 4.3-4 5-1.8 6.2-2.6 6.2-4.1 0-1.7-3.6-2.7-10.2-2.8L0 22V0h18.5C32.7 0 37 .3 37 1.3c0 .6-1.2 3.5-2.5 6.2-1.4 2.8-2.5 5.9-2.5 7.1 0 2.7 3.8 6.2 7.7 7 3.7.7 4.3 2.1 6.8 14.2 1.6 7.7 1.6 8.8.1 15.5-2.3 10.5-5.9 15.4-12.1 17-1.1.3-4.8-.2-8.3-1z"/><path fill="#463626" d="M26.2 67.3C19.2 65.7 12 60 12 56.2c0-1.2-.4-2.2-1-2.2-.5 0-1-.8-1-1.8 0-.9-.9-3.4-2-5.5-4-7.4-1.6-15.8 4.9-17.2 3.5-.7 5.4-2.7 4.9-5.2-.4-2.2-3.6-3.1-11.5-3.2L0 21V0h18c9.9 0 18 .3 18 .8 0 .4-1.4 3-3 5.7-1.6 2.8-3 5.8-3 6.7 0 2.5 6 7.7 9.7 8.4 3.7.7 4.3 2.1 6.8 14.2 1.6 7.7 1.6 8.8.1 15.5-2.3 10.5-5.9 15.4-12.1 17-1.1.3-4.8-.2-8.3-1z"/><path fill="#59381d" d="M26.4 67.4c-8.5-2-13.3-6.2-14.5-12.7-.5-2.7-2-6.2-3.4-7.9-4.9-5.9-2.4-15.8 4.4-17.3 3.5-.7 5.4-2.7 4.9-5.2-.4-2.2-3.6-3.1-11.5-3.2L0 21V0h18c9.9 0 18 .3 18 .6s-1.4 3.2-3.2 6.3l-3.2 5.8 1.9 4.4c1.1 2.4 4.1 6.5 6.7 9.2C43.9 32 46 38.1 46 48.5c0 10.4-4.5 18.1-11.5 19.8-1.1.3-4.8-.1-8.1-.9z"/><path fill="#3f3a3b" d="M26.2 67.3C18.6 65.5 12 60.1 12 55.5c0-1.5-1.2-5.4-2.7-8.7-2.5-5.7-2.6-6.2-1.2-10.1C9.2 33.6 10.6 32 14 30c4.9-2.8 6.4-6.6 3.6-8.9-.8-.7-5.1-1.5-9.6-1.8l-8-.6v-7.3C0 .2.3 0 19.5 0 32 0 35 .3 35 1.4c0 .7-.7 1.9-1.6 2.7C31.3 5.8 29 10.5 29 13s2.5 6.1 9.2 13.1C43.9 32 46 38.2 46 48.5c0 10.4-4.5 18.1-11.5 19.8-1.1.3-4.8-.2-8.3-1z"/><path fill="#544335" d="M24.1 65.1c-7-2.5-9.1-4.8-13.6-15.5-3.7-8.6-3.8-9.1-2.4-13 1.1-3 2.5-4.6 5.9-6.6 4.9-2.8 6.4-6.6 3.6-8.9-.8-.7-5.1-1.5-9.6-1.8l-8-.6v-7.3C0 .2.3 0 19.5 0 32 0 35 .3 35 1.4c0 .7-.7 1.9-1.6 2.7C31.3 5.8 29 10.5 29 13s2.5 6.1 9.2 13.1c6.1 6.4 8.3 13.2 7.3 22.8-.9 8.4-2.4 12-6.4 15.4-3.9 3.2-7.4 3.4-15 .8z"/><path fill="#654227" d="M24.2 65.1c-7.8-2.7-11.6-6.7-11.4-12.3 0-1.7-.9-3.8-2.3-5.2C5 42.1 6.6 34.3 14 30c4.9-2.8 6.4-6.6 3.6-8.9-.8-.7-5.1-1.5-9.6-1.8l-8-.6v-7.3C0 .2.3 0 19.5 0 32 0 35 .3 35 1.4c0 .7-.7 1.9-1.6 2.7-4.1 3.4-5.5 9.9-2.8 13.4.8 1.1 1.9 3.6 2.4 5.6.7 2.5 2.2 4.5 4.9 6.4 5.4 3.7 7.4 8.4 7.4 17 0 9-1.6 13.6-5.9 17.5-4.1 3.5-7.4 3.8-15.2 1.1z"/><path fill="#4e4a4a" d="M24.2 65.1c-7.9-2.7-11.6-6.7-11.4-12.4 0-1.6-.8-3.7-1.9-4.8-1.4-1.4-1.9-3.3-1.9-7 0-5.3.6-6.2 8.8-13.1 3.5-2.8 4.1-5.8 1.7-7.8-.8-.7-5.5-1.5-10.5-1.8l-9-.5v-6.3c0-6.1.1-6.3 2.7-6.6 2-.2 2.9-.9 3.1-2.5C6.1 0 6.4 0 19.6 0 27.5 0 33 .4 33 1c0 .5-1.3 2.4-2.9 4.2-1.5 1.8-3.1 4.3-3.5 5.5-.8 2.6.9 6.3 2.8 6.3 1.3 0 2.7 2.6 4.1 7.6.3 1.2 2.3 3.4 4.5 4.9 5.3 3.7 7.3 8.4 7.3 17 0 9-1.6 13.6-5.9 17.5-4.1 3.5-7.4 3.8-15.2 1.1z"/><path fill="#644b38" d="M24 64c-6.3-2.1-9.6-5.5-10.6-10.6-.4-2-1.5-4.5-2.5-5.5-1.4-1.4-1.9-3.4-1.9-7 0-5.3.6-6.2 8.8-13.1 3.5-2.8 4.1-5.8 1.7-7.8-.8-.7-5.5-1.5-10.5-1.8l-9-.5v-6.3c0-6.1.1-6.3 2.8-6.6 1.9-.2 2.8-.9 3-2.5C6.1 0 6.4 0 19.6 0 27.5 0 33 .4 33 1c0 .5-1.3 2.4-2.9 4.2-1.5 1.8-3.1 4.3-3.5 5.5-.8 2.6.9 6.3 2.8 6.3 1.3 0 2.7 2.6 4.1 7.6.3 1.2 2.1 3.2 4 4.5 4.8 3.3 7 8.7 6.9 17.3-.1 8.9-1.7 13.8-5.5 17.1-3.7 3-7.3 3.2-14.9.5z"/><path fill="#794f2b" d="M24 64c-6.4-2.2-9.6-5.5-10.6-10.7-.4-2.1-1.5-5.5-2.4-7.5-2.6-5.9-1.6-9.2 4.6-14.5 4-3.5 5.4-5.4 5.4-7.4 0-4.1-2.2-5.1-12-5.7l-9-.5v-6.3c0-6.1.1-6.3 2.8-6.6 1.9-.2 2.8-.9 3-2.5C6.1 0 6.4 0 19.6 0 27.5 0 33 .4 33 1c0 .5-1.4 2.6-3.2 4.6-3.9 4.4-4.3 9.3-1 12.4 1.2 1.2 2.8 3.5 3.6 5.3.7 1.8 2.9 4.4 4.9 5.7 5 3.4 7.2 8.7 7.1 17.4-.1 8.9-1.7 13.8-5.5 17.1-3.7 3-7.3 3.2-14.9.5z"/><path fill="#6e5442" d="M24 64c-6.4-2.2-9.6-5.5-10.6-10.7-.4-2.1-1.5-5.5-2.4-7.5-2.6-5.9-1.6-9.2 4.6-14.5 5-4.3 5.4-5 5.4-9 0-3.8-.3-4.3-2.7-5-1.6-.4-6.3-.8-10.5-.8l-7.8.1V7h3.8C8.1 7 10 5.6 10 2.3c0-3.3 4-3 7.8.5 1.6 1.5 3.7 3.3 4.6 4 1 .8 1.6 2.8 1.6 5.3 0 3.5.3 4.1 2.9 5 2 .7 3.6 2.4 4.9 5.3 1.1 2.3 3.6 5.3 5.6 6.7 4.9 3.3 7.1 8.6 7 17.3-.1 8.9-1.7 13.8-5.5 17.1-3.7 3-7.3 3.2-14.9.5z"/><path fill="#5a5756" d="M24.2 64.1c-2.8-1-6.1-2.6-7.2-3.6-2-1.8-4.3-7.5-3.9-9.7.2-.7-.3-3-1-5.2-2-5.7-.2-10.9 4.9-14.2 4.5-3 5.5-5.1 4.6-10-.8-4.1-2.9-4.9-13.8-4.9l-7.8.1V7h3.8C8.1 7 10 5.6 10 2.3c0-3.3 4-3 7.8.5 1.6 1.5 3.7 3.3 4.6 4 1 .8 1.6 2.8 1.6 5.2 0 3.2.5 4.3 2.6 5.7 1.5.9 3.4 3.6 4.4 5.9 1.4 3.2 2.8 4.6 5.8 5.9 5.4 2.4 7.7 7.4 7.6 16.9-.1 8.9-1.7 13.8-5.5 17.1-3.6 3-7.3 3.2-14.7.6z"/><g fill="#805733"><path d="M26 64.1c-7.3-2.2-12-6.9-12-11.8 0-.9-.7-3.7-1.6-6-2.4-6.2-.7-11.4 4.6-14.9 4.5-3 5.5-5.1 4.6-10-.8-4.1-2.9-4.9-13.8-4.9l-7.8.1V7h3.8C8.1 7 10 5.6 10 2.3c0-3.3 4-3 7.8.5 1.6 1.5 3.7 3.3 4.6 4 1 .8 1.6 2.8 1.6 5.2 0 3.1.5 4.3 2.9 5.9 1.6 1.2 3.5 3.7 4.1 5.5.7 2.1 2.6 4.4 5 6 5.4 3.6 7.3 7.7 7.4 15.6 0 8.9-1 13.4-4 17-2.1 2.5-3.3 3-6.7 2.9-2.3 0-5.3-.4-6.7-.8zM26.2 2.8c-2-2-1.4-2.8 2.3-2.8 3.9 0 4.6 1.4 1.6 3-2.4 1.3-2.4 1.3-3.9-.2z"/></g><path fill="#89603a" d="M0 11.8V8.1l4.8.6c3.7.4 5.6.1 7.5-1.2 3.2-2 6.1-1.3 8.4 2.1 2.6 4.1.4 5.2-11 5.6l-9.7.3v-3.7z"/><g fill="#7c604d"><path d="M26 64.1c-7.3-2.2-12-6.9-12-11.8 0-.9-.7-3.7-1.6-6-2.2-5.8-.7-11.2 3.9-14.4 4.5-3.1 5.7-4.8 5.7-8.5 0-6.7 5.4-7.1 8.6-.6 1.1 2.3 3.7 5.4 5.7 6.8 5.1 3.5 7 7.6 7.1 15.4 0 8.9-1 13.4-4 17-2.1 2.5-3.3 3-6.7 2.9-2.3 0-5.3-.4-6.7-.8zM0 12.5C0 10.1.5 9 1.4 9c2 0 3 3.8 1.6 5.5-2 2.4-3 1.7-3-2z"/></g><path fill="#656363" d="M26 64.1c-5-1.6-9-4.2-10.4-7-.8-1.5-1.8-6.9-2.2-11.9l-.7-9.1 3-2.8c1.6-1.5 3.9-3.6 5.1-4.5 1.2-1 2.2-2.9 2.2-4.2 0-2.8 2.4-5.1 4.5-4.2.9.3 2 1.8 2.6 3.4.5 1.6 2.8 3.8 5.4 5.4 5.8 3.5 7.8 7.6 7.9 15.8 0 8.9-1 13.4-4 17-2.1 2.5-3.3 3-6.7 2.9-2.3 0-5.3-.4-6.7-.8z"/><g fill="#846b5d"><path d="M24.6 62.5c-2.2-.7-5-2.4-6.3-3.7C15.7 56.1 13 47 13 40.4c0-4.6 1.2-6.4 7.8-11.6 1.2-1 2.2-2.9 2.2-4.2 0-2.8 2.4-5.1 4.5-4.2.9.3 2 1.8 2.6 3.4.5 1.5 2.3 3.6 3.8 4.5 4.5 2.6 7.8 7.2 8.6 11.8 1.1 6.4-.3 16.3-2.9 20.1-1.8 2.8-2.8 3.3-6.6 3.5-2.5.2-6.3-.4-8.4-1.2zM0 12.1C0 10.9.6 10 1.6 10c.9 0 1.4.7 1.2 1.7-.5 2.5-2.8 2.8-2.8.4z"/></g><path fill="#717071" d="M24.7 62.6c-7.8-2.9-9.6-5.8-10.3-17.2l-.6-8.6 5-4.6c2.9-2.7 5.2-5.8 5.4-7.2.4-3.5 3.3-3.7 5-.3.7 1.5 2.9 3.6 4.8 4.5 7.5 3.7 9.8 9.5 8.5 21.4-.4 3.9-1.5 7.6-2.9 9.6-1.8 2.8-2.8 3.3-6.6 3.5-2.5.2-6.2-.4-8.3-1.1z"/><path fill="#8e7467" d="M24.6 61.5c-5.6-2-7.5-4.3-9.1-11.1-2.6-10.8-2.2-13.2 3.4-18.3 2.8-2.6 5.1-5.7 5.3-7.1.4-3.4 3.5-3.8 4.7-.7.5 1.4 2.9 3.8 5.3 5.4 6.4 4.2 8 8.1 7.5 17.9-.5 11.1-2.6 14.8-8.7 15.1-2.5.2-6.3-.4-8.4-1.2z"/><path fill="#7d7e80" d="M24.6 61.5c-2.2-.7-4.8-2.2-5.8-3.3-2.4-2.4-5.1-13.5-4.5-18.5.6-4.8 1.9-6.3 8-9.4 4.6-2.3 5.3-2.4 9.4-1.3 5.1 1.5 8.9 5.6 9.9 10.6 1 5.6-.2 16-2.3 19.6-1.6 2.9-2.5 3.3-6.3 3.5-2.5.2-6.3-.4-8.4-1.2z"/><path fill="#8e7f76" d="M28 61.1c-6.6-2-8.6-3.9-11.4-10.6-2.2-4.9-2.7-7.6-2.3-10.6.7-5 1.9-6.4 8-9.6 4.6-2.3 5.3-2.4 9.4-1.2 3.6 1 4.9 2 7 5.6 2.3 4 2.5 5.1 2.1 12.7-.7 12.7-4.1 16.3-12.8 13.7z"/><path fill="#8e8a89" d="M28 61.1c-8.8-2.7-12-7.5-12-18.2 0-5 .4-6.4 2.4-8.4 5.7-5.7 16.9-5.3 20.7.8 1.7 2.7 2 4.5 1.7 11.8-.6 12.9-4 16.7-12.8 14z"/><path fill="#989797" d="M27 60.4c-7-2.4-8.7-4.9-9.5-14.2-.8-9 0-11.4 4.5-13.7 6-3.1 15.1-.9 17 4.1 1.5 3.8 1.2 16-.4 19.9-1.3 3-4.2 5.6-6.3 5.5-.4-.1-2.8-.8-5.3-1.6z"/><path fill="#a4a2a2" d="M26 57.8c-5.6-2.9-7-5.8-7.3-15-.2-7.1-.2-7.2 3.2-9.5 3.9-2.6 8-2.9 12-.8 4.2 2.1 5.5 6.3 4.8 15.1-.9 12.3-3.9 14.6-12.7 10.2z"/><path fill="#afafb1" d="M28.1 57.6c-4.9-1.7-7-5.1-8.3-13-1.1-6.9-1.1-6.9 1.6-9.3 3.7-3.2 11.6-3.3 14.7-.2 2 2 2.1 2.9 1.6 10.5-.5 8.4-2.4 13.5-5 13.3-.6 0-2.8-.6-4.6-1.3z"/><path fill="#bdbfc2" d="M26.7 51.9c-1.9-1.1-5-6.9-6.1-11.1-1.3-5.8 9.8-9.4 14.5-4.7 1.7 1.7 2 2.8 1.4 5.7-1.6 8.8-5.4 12.7-9.8 10.1z"/><path fill="#c9cdce" d="M25.1 43.4c-2.4-3.1-2.6-4.7-.8-6.2 4.7-3.9 11.8-.8 9.6 4.2-.9 1.9-4.6 4.6-6.4 4.6-.2 0-1.3-1.2-2.4-2.6z"/></svg>
