<svg viewBox="0 0 50 50" xmlns="http://www.w3.org/2000/svg"><path fill="#5086BD" stroke="#5086BD" d="M11.5 8 11 9.5l-.5 3.5-.5-3.5L11.5 8ZM18.5 19l5.5.5-5.5.5v-1ZM20.5 26l4.5.5-4.5.5v-1ZM13.5 27l5.5.5-6 .5-.5 7-.5-6.5 1.5-1.5ZM19.5 29l.5 3 2 .5-1.5.5q-2.5-1-1-4Z"/><path fill="#E5E8EA" stroke="#E5E8EA" d="M12 9h13v5H12V9ZM38.5 9l.5 2.5h-1l.5-2.5ZM20.5 20l5.5.5-1 4.5h-6v-3.5l1.5-1.5ZM37.5 20l.5 2.5h-1l.5-2.5ZM14 29q5.2-2.1 4 2.5l2.5 2.5 4 1 1.5-.5-2 3 3 2-1.5.5L14 35.5V29ZM36.5 31l.5 2.5h-1l.5-2.5Z"/><path fill="#FCFDFE" stroke="#FCFDFE" d="M25 10h13v5.5l-1 1-1 19-1.5 1.5-9.5 2v-4h1.5l5.5-2.5V25h-5.5L25 21q6.1 1.8 8-1.5V14h-6.5L25 10Z"/><path fill="#3EABDC" stroke="#3EABDC" d="M26.5 7h12L40 8.5l-.5 8.5-.5-9H26.5V7Z"/><path fill="#3EABDC" stroke="#3EABDC" d="M26.5 15q7.3-2.6 5.5 3.5h-1q1.4-4.6-4.5-2.5v-1ZM38.5 21l.5 6.5h-1l.5-6.5ZM25.5 26q7.8-2.7 5.5 4.5h-1q1.8-5.7-4.5-3.5v-1ZM26.5 32l2.5.5-2.5.5v-1ZM37.5 32l.5 4.5q-.5 3-4.5 2.5v-1l3.5-1.5.5-4.5ZM26.5 40l2.5.5-2.5.5v-1Z"/><path fill="#B2CEE4" stroke="#B2CEE4" d="m26.5 8 11.5.5-11.5.5V8ZM11.5 9l.5 3.5h-1l.5-3.5ZM38.5 12l.5 4.5h-1l.5-4.5ZM25.5 14q6-1.5 7.5 1.5.8 3.8-1.5 4.5l.5-1.5V15h-6.5v-1ZM37.5 23l.5 4.5h-1l.5-4.5ZM20.5 25h10l1.5 1.5-.5 3.5-.5-4H20.5v-1ZM13 28q4.6-1.2 6 1.5l-.5 2.5-.5-3q-6.4-2.3-4 5.5h-1V28ZM36.5 34l.5 2.5-2.5 1.5v-1q2.9.7 2-3Z"/><path fill="#E9F2F9" stroke="#E9F2F9" d="m25.5 9 12.5.5-12.5.5V9ZM37.5 16l.5 3.5h-1l.5-3.5ZM26.5 20l5.5.5-5.5.5v-1ZM36.5 27l.5 3.5h-1l.5-3.5ZM31.5 32l-1 2-1.5-.5 2.5-1.5Z"/><path fill="#2FA1D6" stroke="#2FA1D6" d="m25.5 4 .5 3.5h-1l.5-3.5ZM42.5 4l.5 3.5h-1l.5-3.5ZM41.5 12l.5 6.5h-1l.5-6.5ZM25.5 15l.5 3.5h-1l.5-3.5ZM40.5 23l.5 6.5h-1l.5-6.5ZM25.5 27l.5 5.5h-1l.5-5.5ZM39.5 35l.5 5.5h-1l.5-5.5ZM25.5 41l1.5 4.5-2-1 .5-3.5ZM35.5 42l2.5.5-2.5.5v-1Z"/><path fill="#1672B6" stroke="#1672B6" d="M4 0h41.5l.5.5v7h-1q.8-6.2-.5-6.5H5l-.5 7L4 0ZM5.5 13l.5 5.5H5l.5-5.5ZM44.5 13l.5 5.5h-1l.5-5.5ZM6.5 24l.5 6.5H6l.5-6.5ZM43.5 24l.5 6.5h-1l.5-6.5ZM7.5 35l.5 6.5H7l.5-6.5ZM42.5 35l.5 6.5h-1l.5-6.5ZM8.5 44l2.5.5-2.5.5v-1ZM39.5 44l2.5.5-2.5.5v-1ZM23.5 48l3.5.5-3.5.5v-1Z" opacity=".988"/><path fill="#1572B6" stroke="#1572B6" d="M5 1h39.5l.5.5v11l-1 1L42 44l-13.5 4h-7L8 44 5 1Zm20 2-1 5H12l-2 2 1 4 1 1h12v4h-6v7l3 1h3v6l-4-1-1-5q-5-2-7 2l1 9 10 2 3 6 14-3 1-5V28l1-1V17l1-1V3H25Z"/><path fill="#80AFD4" stroke="#80AFD4" d="m12.5 8 13.5.5-13.5.5V8ZM11.5 13l1 1 12.5.5-12.5.5-1-2ZM38.5 17l.5 3.5h-1l.5-3.5ZM24.5 19l6.5.5-6.5.5v-1ZM18.5 20l1.5 5.5-2-1 .5-4.5ZM37.5 28l.5 3.5h-1l.5-3.5ZM30.5 31l-1 2 1-2ZM13.5 35l.5 2 2 .5-1.5.5-1-3Z"/><path fill="#248BC6" stroke="#248BC6" d="m25.5 3 17.5.5-17.5.5V3ZM24.5 5l.5 2.5h-1l.5-2.5ZM42.5 8l.5 7.5h-1l.5-7.5ZM24.5 15l.5 3.5h-1l.5-3.5ZM41.5 19l.5 7.5h-1l.5-7.5ZM24.5 27l.5 5.5h-1l.5-5.5ZM40.5 30l.5 7.5h-1l.5-7.5ZM24.5 41l1.5 4.5-2-1 .5-3.5ZM39.5 41l.5 2-2-.5 1.5-1.5ZM34.5 43l2.5.5-2.5.5v-1ZM30.5 44l2.5.5-2.5.5v-1Z"/><path fill="#1472B6" stroke="#1472B6" d="M2.5 0 4 5.5v10l1 1v10l1 1L7 45l17 4.5-5.5.5L6 45.5q-2.7-3.8-1-12l-1-1v-10l-1-1v-10l-1-1L2.5 0ZM47.5 0l.5 10.5-1 1-2 32-2.5 3.5-11 3h-5v-1L43 45l1-17.5 1-1v-10l1-1v-10L47.5 0Z" opacity=".325"/><path fill="#32A8DB" stroke="#32A8DB" d="M26 4h16v7.5l-1 1v10l-1 1L39 42l-13 3q-2.1-5.2 2.5-4l7-2 2.5-2.5 2-28L38.5 7H26V4Z"/><path fill="#32A8DB" stroke="#32A8DB" d="M26 16h5v3h-5v-3ZM26 27q6.4-2.1 4 5-6.4 2.1-4-5Z"/><path fill="#1571B5" stroke="#1571B5" d="M3.5 0 4 4.5H3L3.5 0ZM46.5 0l.5 4.5h-1l.5-4.5ZM4.5 8l.5 7.5H4L4.5 8ZM45.5 8l.5 7.5h-1l.5-7.5ZM5.5 19l.5 7.5H5l.5-7.5ZM44.5 19l.5 7.5h-1l.5-7.5ZM6.5 31l.5 6.5H6l.5-6.5ZM43.5 31l.5 6.5h-1l.5-6.5ZM7.5 42l.5 2.5H7l.5-2.5ZM42.5 42l.5 2.5h-1l.5-2.5ZM9.5 45l2.5.5-2.5.5v-1ZM38.5 45l2.5.5-2.5.5v-1ZM13.5 46l2.5.5-2.5.5v-1ZM34.5 46l2.5.5-2.5.5v-1ZM20.5 48l2.5.5-2.5.5v-1ZM27.5 48l2.5.5-2.5.5v-1Z" opacity=".847"/></svg>
