<svg viewBox="0 0 50 50" xmlns="http://www.w3.org/2000/svg"><path fill="#4B32C3" stroke="#4B32C3" d="m13.5 4-1 2 1-2ZM36.5 4l1 2-1-2ZM23.5 6q3.8-.7 4.5 1.5L26.5 7q-4 .8-3-1ZM47.5 27l-1 2 1-2ZM8.5 33l1.5 2.5H7L8.5 33ZM41.5 33l1.5 2.5h-3l1.5-2.5ZM20.5 41l1 2-1-2ZM12.5 44l1 1h23l1.5-.5-1.5 1.5h-23l-1-2Z" opacity=".992"/><path fill="#4B31C3" stroke="#4B31C3" d="m13.5 2 23.5.5-23.5.5V2ZM11.5 4l-1 2 1-2ZM38.5 4l1 2-1-2ZM23.5 8l-1 2-2 1 1-2 2-1ZM26.5 8l3.5 2.5-1.5-.5-2-2ZM8.5 9l-1 2 1-2ZM41.5 9l2.5 3.5-2-1-.5-2.5ZM16.5 12l-1 2-2 1 1-2 2-1ZM33.5 12l3.5 2.5-1.5-.5-2-2ZM5.5 14 5 15.5 3.5 18l.5-1.5L5.5 14ZM11.5 15l-1 2 1-2ZM38.5 15l1 2-1-2ZM45.5 16l1 2-1-2ZM1.5 21 1 22.5.5 24 0 22.5 1.5 21ZM.5 26 2 28.5l-2-1L.5 26ZM49.5 26l.5 1.5-2 1 1.5-2.5ZM3.5 32 6 35.5l-2-1-.5-2.5ZM46.5 32l-.5 1.5-1.5 2.5.5-1.5 1.5-2.5ZM10.5 33l4.5 3.5-1.5-.5-3-3ZM39.5 33l-2 3-2 1 1-2 3-2ZM18.5 38l3.5 2.5-1.5-.5-2-2ZM31.5 38l-1 2-2 1 1-2 2-1ZM7.5 39l1 2-1-2ZM42.5 39l-1 2 1-2ZM10.5 44l2 3-2-3ZM39.5 44l-2 3 2-3Z" opacity=".447"/><path fill="#4B32C3" stroke="#4B32C3" d="M8.5 17 9 32.5H8L8.5 17ZM41.5 17l.5 15.5h-1l.5-15.5Z" opacity=".973"/><path fill="#8080F1" stroke="#8080F1" d="M23.5 13h3l9.5 5v12.5L33.5 33l-9 4-9.5-5q-2.2-3.6-1-12.5l9.5-6.5Zm1.5 1-6 3q-6 2-4 13l10 6 8-4 2-2V19l-10-5Z" opacity=".678"/><path fill="#7F7FF2" stroke="#7F7FF2" d="m34.5 20 .5 8.5h-1l.5-8.5Z" opacity=".996"/><path fill="#523EDA" stroke="#523EDA" d="M13.5 1h23L40 3.5l10 19h-1l-9-17L36.5 2h-23L10 5.5.5 22 0 20.5 11.5 2l2-1Z" opacity=".059"/><path fill="#523EDA" stroke="#523EDA" d="M24.5 8 40 17.5v15L37.5 35l-13 7L10 32.5v-15l2.5-2.5 12-7Zm-.5 2-11 7-2 1v15l14 8 13-7 1-1V17l-12-7h-3Z" opacity=".059"/><path fill="#523EDA" stroke="#523EDA" d="M23.5 12h3L37 18.5v13L35.5 33l-9 5h-3L13 30.5q-1.4-9.6 1-13.5l9.5-5Zm.5 1-7 4-3 3v11l10 6h3l7-4 2-2V18l-9-5h-3Z" opacity=".059"/><path fill="#523EDA" stroke="#523EDA" d="m.5 28 12 19h25l2.5-2.5L49.5 28l.5 1.5L38.5 48h-27L10 46.5l-10-17L.5 28Z" opacity=".059"/><path fill="#8080F2" stroke="#8080F2" d="m25.5 14 9.5 5.5-1 1v8q2.8 1.7-1.5 3.5l-8 4-9.5-6.5Q12.8 19.3 18.5 17l7-3Z"/><path fill="#4B32C3" stroke="#4B32C3" d="m9.5 18 .5 13.5H9L9.5 18ZM40.5 18l.5 13.5h-1l.5-13.5Z" opacity=".612"/><path fill="#4B32C3" stroke="#4B32C3" d="M14.5 4h21L38 6.5l10 17v3L36.5 45h-23L12 43.5l-9-15-1-5L14.5 4ZM24 6l-12 7-4 4v18l16 9h3l14-8 1-1V17L27 6h-3Z"/><path fill="#4B31C3" stroke="#4B31C3" d="m10.5 15-1 2 1-2ZM39.5 15l1 2-1-2ZM13.5 46l23.5.5-23.5.5v-1Z" opacity=".737"/><path fill="#4B32C3" stroke="#4B32C3" d="m13.5 3 23.5.5-23.5.5V3Z" opacity=".839"/></svg>
