<svg viewBox="0 0 50 50" xmlns="http://www.w3.org/2000/svg"><path fill="#F24E1E" stroke="#F24E1E" d="m13.5 0 1.5.5-6 5q-1.1 7.6 3.5 9.5l2.5 1.5-1.5-.5L9 12.5l-1-7L11.5 1l2-1Z" opacity=".71"/><path fill="#F24E20" stroke="#F24E20" d="M15.5 0H25v16H14.5L10 12.5l-1-7L15.5 0Z" opacity=".996"/><path fill="#FC7065" stroke="#FC7065" d="M25 0h10.5L41 4.5q1.5 8-2.5 10.5l-4 2h-19v-1H25V0Z" opacity=".984"/><path fill="#F86554" stroke="#F86554" d="m10.5 0 2.5.5-4 3-1 7 4.5 5.5 1.5.5-2.5.5Q5.4 14.6 7 4.5L10.5 0ZM36.5 0q5-.5 5.5 3.5l1 8-4.5 5.5-2.5-.5 4-3 1-9L36.5 0Z" opacity=".231"/><path fill="#A15EFB" stroke="#A15EFB" d="m24.5 17 .5 5.5h-1l.5-5.5ZM11.5 18l-1 2 1-2ZM8.5 23l.5 3.5H8l.5-3.5ZM24.5 27l.5 5.5h-1l.5-5.5ZM10.5 30l1 2-1-2Z" opacity=".745"/><path fill="#A161F8" stroke="#A161F8" d="m24.5 23 .5 3.5h-1l.5-3.5ZM15.5 32l8.5.5-8.5.5v-1Z" opacity=".98"/><path fill="#53B1E4" stroke="#53B1E4" d="m30.5 17 4.5.5-4.5.5v-1ZM25.5 22l.5 5.5h-1l.5-5.5ZM14.5 33l10.5.5-10.5.5v-1Z" opacity=".898"/><path fill="#27B9F8" stroke="#27B9F8" d="m36.5 17 3.5 1 2 3.5v7L35.5 34h-5L27 33l-2-4.5 2 1 1.5 2.5 7 1 5.5-4.5q1.8-8.7-3.5-10.5l-1-1ZM26 18l2 .5-2.5 3.5.5-1.5V18Z" opacity=".404"/><path fill="#A45CFD" stroke="#A45CFD" d="m10.5 17 2.5.5-3 2-2 7 3.5 5.5 1.5.5-2.5.5q-5-2.5-3.5-11.5l3.5-4.5ZM25.5 17l.5 3.5h-1l.5-3.5ZM25.5 29l.5 3.5h-1l.5-3.5Z" opacity=".157"/><path fill="#A259FF" stroke="#A259FF" d="M17.5 17q5.3-1.2 6.5 1.5V32H12.5Q7.9 30.1 9 22.5l3.5-4.5 5-1Z" opacity=".996"/><path fill="#19BCFD" stroke="#19BCFD" d="m35.5 17 5.5 4.5q1.8 8.8-3.5 10.5l-7 1-3.5-2.5-1-9 2.5-3.5q5.5 1.5 7-1Z" opacity=".973"/><path fill="#0CCCC3" stroke="#0CCCC3" d="m38.5 17 3.5 2.5 1 9-3.5 4.5q-2.7 2.8-9 2L28 33.5l1.5-.5q1.2 2.2 6 1l6.5-5.5v-7L40 18l-1.5-1ZM26.5 31l.5 1.5-1 1v12L22.5 50l-2.5-.5 4-3 1-2v-11l1.5-2.5ZM11.5 33l1.5.5-3 1.5-2 3.5v6l3.5 4.5 1.5.5-2.5.5L7 45.5v-7l4.5-5.5Z" opacity=".075"/><path fill="#09CE83" stroke="#09CE83" d="m12.5 34 1.5.5-4 3-1 7 6 5-1.5.5L9 46.5l-1-8 2-3.5 2.5-1ZM24.5 34l.5 10.5-3.5 4.5-3 1v-1l4.5-2.5L24.5 34Z" opacity=".706"/><path fill="#09CE83" stroke="#09CE83" d="M14.5 34H24v10.5L21.5 48l-6 2L9 44.5q-1.1-7.6 3.5-9.5l2-1Z" opacity=".996"/></svg>
