<svg viewBox="0 0 50 50" xmlns="http://www.w3.org/2000/svg"><path fill="#DA4636" stroke="#DA4636" d="M22.5 0 19 4.5v2l4.5 4.5q4.8-.7 5.5 2.5v3l4.5 4.5 1.5.5-1.5.5-5.5-5.5q.8-3.7-1.5-4.5h-3L17 5.5 22.5 0ZM27.5 0l22 23-22-23ZM15.5 7l6.5 5.5q-.8 5.2 3 6l-2 .5-2-3.5v-3L16.5 8 .5 23l15-16Z" opacity=".169"/><path fill="#DA4636" stroke="#DA4636" d="m26 18 7 5.5q-.7 3.8 1.5 4.5l3.5-1.5-1-4 2 1q.8 4.8-2.5 5.5-4 .5-4.5-2.5v-3L27.5 19 27 32.5l2 4-1 2.5q-5.5 1.3-7-2.5l3.5-5.5-1.5 2.5-1 3q.8 2.3 4.5 1.5l1.5-3.5-2-2V18ZM.5 27l22 23-22-23ZM49.5 27l-22 23 22-23Z" opacity=".169"/><path fill="#DD4C36" stroke="#DD4C36" d="M23.5 0h3L50 23.5v3L26.5 50h-3L0 26.5v-3L15.5 8l5.5 4.5L16.5 9 1 23.5v3L23.5 49h3L49 26.5v-3L26.5 1h-3l-4 4 4-5Z" opacity=".788"/><path fill="#DD4C36" stroke="#DD4C36" d="M19.5 6q1.4 4.1 6.5 4.5l-2.5.5-4-5ZM27.5 11l1 2-1-2ZM29.5 14q.4 5.1 4.5 6.5l-5-4 .5-2.5ZM21.5 16l2.5 3.5v12L21.5 35l-.5-1.5 2-2v-12q-3-1-1.5-3.5Z" opacity=".788"/><path fill="#DD4C36" stroke="#DD4C36" d="m27.5 19 4.5 4.5q-.7 4.8 2.5 5.5 4 .5 4.5-2.5.8-3.7-1.5-4.5l-2.5-.5 2.5-.5q3.3.8 2.5 5.5L39 29l-4.5 1-2.5-1-1-5.5-2.5-2.5-.5 11.5.5 1.5-1.5-1.5.5-13.5ZM29.5 35l.5 1.5-2.5 3.5Q22 41 21 37.5l2.5 1.5q5.4 1.9 4.5-1.5l1.5-2.5Z" opacity=".788"/><path fill="#DE4C36" stroke="#DE4C36" d="M23.5 1h3L49 23.5v3L26.5 49h-3L1 26.5v-3L15.5 9l5.5 4.5q-1 5 2 6v12q-3 1-2 6 1 3.5 6.5 2.5l2-3 .5 1.5Q29 42 23.5 41L20 38.5q-1.2-5.7 2-7v-12q-2.7-.7-2-5L15.5 10 2 23.5v2L24.5 48h2L48 26.5v-2L25.5 2h-2q-3 .5-2.5 4.5l4 3-1.5.5L19 5.5 23.5 1Z" opacity=".996"/><path fill="#DE4C36" stroke="#DE4C36" d="m26.5 10 3.5 2.5-.5 1.5-2-3-1-1ZM30.5 15l4 5q5.8-.7 6.5 3.5.6 5.1-2.5 6.5l-4 1-3.5-2.5-3-7 3 2 1 5.5 4.5 1 2.5-1 1-5.5q-.7-3.2-5.5-2.5L30 16.5l.5-1.5ZM28.5 31l1.5 3.5h-1l-.5-3.5Z" opacity=".996"/><path fill="#DE4C36" stroke="#DE4C36" d="M23.5 2h2L48 24.5v2L26.5 48h-2L2 25.5v-2L15.5 10l4.5 4.5q-.7 4.3 2 5v12q-3.2 1.3-2 7 1.7 3.3 7.5 2.5 4-1.5 2.5-8.5-3.7-1.7-2-9l2 1 2.5 5.5 4 1 3.5-2.5 1-5-10-7q-.2-4.7-3.5-6.5-4.7-.2-6.5-3.5-.5-4 2.5-4.5Z"/><path fill="#E94927" stroke="#E94927" d="m21.5 0-4 5 4-5ZM28.5 0l21 22-21-22ZM15.5 6h2l6 6q3.8-.7 4.5 1.5v3l5.5 5.5q3.8-.7 4.5 1.5l-1.5-.5h-4L26 18v14.5l2 4-2 1 1-3-2.5-1.5-1.5.5q3.5-1.5 1-3v-11l1-1q-3.7-.7-3-6L16.5 7 .5 22l15-16Zm7.5 7v3q2 4 4 1 2-6-4-4Z" opacity=".016"/><path fill="#E94927" stroke="#E94927" d="m33.5 26 3 1 1.5-.5-3.5 1.5-1-2ZM.5 28l21 22-21-22ZM49.5 28l-21 22 21-22ZM22.5 35l1.5 2.5-2-1 .5-1.5Z" opacity=".016"/></svg>
