<svg viewBox="0 0 50 50" xmlns="http://www.w3.org/2000/svg"><path fill="#FFF" stroke="#FFF" d="m23.5 1 3.5.5-3.5.5V1ZM13.5 4l-1 2 1-2ZM38.5 5l6 7-6-7ZM10.5 6l-5 6 5-6ZM11.5 10l-.5 1.5q1.1 6.1-1.5 8.5L9 18.5q2.5-1.5 1-7l1.5-1.5ZM38.5 10l1.5 2.5h-1l-.5-2.5ZM23.5 11l3.5.5-3.5.5v-1ZM45.5 13l1.5 2.5h-1l-.5-2.5ZM1.5 20l.5 2.5H1l.5-2.5ZM8.5 26l.5 2.5H8l.5-2.5ZM1.5 28l.5 2.5H1l.5-2.5ZM9.5 30l1.5 2.5-2-1 .5-1.5ZM6.5 34l3.5.5-3.5.5v-1ZM12.5 34l1 2-1-2ZM3.5 35 5 37.5l-2-1 .5-1.5ZM46.5 36l-1 2 1-2ZM12.5 37l1 2-1-2ZM18.5 37l.5 1.5-3.5 1.5v-1q3.5 1 3-2ZM5.5 39l4 4q1.3-2.2 2.5.5l-.5 2.5-6-7ZM8.5 39l1 2-1-2ZM44.5 39l-1 2 1-2ZM32.5 40l.5 7.5h-1l.5-7.5ZM40.5 43l-2 3 2-3ZM13.5 44l4.5.5-4.5.5v-1Z" opacity=".973"/><path fill="#FFF" stroke="#FFF" d="m20.5 2 13 1Q41 6 45 12.5l5 13-3 10-5.5 7.5-8 5L32 37q6.4-.2 9-5.5 2.5-3.5 1-11l-2-3q1.5-6-1.5-7.5l-11 2-4-1-5 1q-1.7-2.8-7-2L10 11.5q1 7-2 10v7l5.5 7.5 4.5 1q1.3 3.3-3.5 2l-5-5H6v4q2.7-1.1 2 1.5l3.5 4.5 6.5 1q1.5 3.8-1.5 3Q9 45 5 38.5q-4.2-5.3-4-15Q3 11.5 11.5 6l9-4Z"/><path fill="#FFF" stroke="#FFF" d="m10.5 4-1 2 1-2ZM39.5 4l1 2-1-2ZM5.5 9l-1 2 1-2ZM20.5 13l2.5.5-2.5.5v-1ZM27.5 13l2.5.5-2.5.5v-1ZM38.5 13l.5 2.5h-1l.5-2.5ZM40.5 22l.5 4.5h-1l.5-4.5ZM11.5 31l2 3-2-3ZM11.5 38l2 3q-1.7-3.1-3.5-1.5l1.5-1.5ZM19.5 39l-1 2 1-2ZM46.5 39l-1 2 1-2ZM19.5 44l.5 3.5h-1l.5-3.5ZM9.5 45l1 2-1-2ZM16.5 49l2.5.5-2.5.5v-1ZM31.5 49l2.5.5-2.5.5v-1Z" opacity=".208"/><path fill="#FFF" stroke="#FFF" d="m10.5 5-1 2 1-2ZM44.5 10l1 2-1-2ZM22.5 12l5.5.5-5.5.5v-1ZM18.5 36l1 2-1-2ZM12.5 38l1 2-1-2ZM31.5 39l.5 8.5h-1l.5-8.5ZM18.5 44l.5 3.5h-1l.5-3.5Z" opacity=".647"/><path fill="#FFF" stroke="#FFF" d="m22.5 0 5.5.5-5.5.5V0ZM8.5 6l-2 3 2-3ZM41.5 6l3 4-3-4ZM11.5 13l.5 2.5h-1l.5-2.5ZM9.5 22l.5 4.5H9l.5-4.5ZM5.5 41l3 4-3-4ZM44.5 41l-4 5 4-5Z" opacity=".369"/><path fill="#FFF" stroke="#FFF" d="m20.5 1 2.5.5-2.5.5V1ZM27.5 1l2.5.5-2.5.5V1ZM12.5 4l-1 2 1-2ZM40.5 6l3 4-3-4ZM8.5 7l-2 3 2-3ZM12.5 10l2.5.5-2.5.5v-1ZM28.5 12l3.5.5-3.5.5v-1ZM39.5 13l.5 4.5h-1l.5-4.5ZM41.5 22l.5 5.5h-1l.5-5.5ZM.5 23l.5 4.5H0L.5 23ZM8.5 23l.5 2.5H8l.5-2.5ZM39.5 32l-2 3 2-3ZM6.5 35l3.5 4.5-4-3 .5-1.5ZM10.5 35l1 2-1-2ZM46.5 37l-1 2 1-2ZM44.5 40l-4 5 4-5ZM6.5 41l3 4-3-4Z" opacity=".831"/><path fill="#FFF" stroke="#FFF" d="m11.5 32 1 2-1-2ZM7 35l2 .5-.5 2.5L7 35ZM10.5 36l1 2-1-2Z" opacity=".506"/><path fill="#FFF" stroke="#FFF" d="m16.5 0 3.5.5q-11 2-16 10L.5 18 0 15.5Q3.3 7.3 10.5 3l6-3ZM30.5 0Q40 1.6 45 7.5l5 10h-1Q46.5 8.4 39.5 4l-6-3h-3V0ZM12 12l10 2.5-4.5.5q-1.1-2.7-4.5-2 1.2 6-2 8.5v7l4.5 5.5 6.5 2.5-3 5 1 2-1.5-.5q-6.2 1.3-7.5-2.5l-2-3 2-.5 2.5 4q5.3 1.3 6.5-1.5l1-3.5q-7.3.1-10-5.5l-1-9q3.4-2.8 2-9.5ZM35.5 12H38v6.5q4 2 2 10h-1v-8q-3.5-1.7-2-7.5-2.3 2.6-8.5 2v-1q5.3.8 7-2ZM23.5 13l3.5.5-3.5.5v-1ZM38.5 30l-.5 1.5-1.5 2.5-6.5 2-.5 3-1.5-2.5 6.5-2.5 4-4ZM.5 33q2.8 9.2 10 14l5.5 2.5-1.5.5L5 43.5l-5-8L.5 33ZM49.5 33l.5 2.5L42.5 46l-8 4v-1q8.6-2.4 12.5-9.5l2.5-6.5ZM30.5 40l.5 9.5h-1l.5-9.5Z" opacity=".039"/></svg>
