<svg viewBox="0 0 50 50" xmlns="http://www.w3.org/2000/svg"><path fill="#E66C53" stroke="#E66C53" d="m11.5 8 13.5.5L11 9l-.5 4-.5-3.5L11.5 8ZM18.5 15l6.5.5-6.5.5v-1ZM18.5 18l7.5 1.5-8 .5.5-2ZM11.5 20l.5 3.5h-1l.5-3.5ZM19.5 29l1.5 3.5-2-1 .5-2.5ZM12.5 31l.5 3.5h-1l.5-3.5ZM23.5 33l2.5.5-2.5.5v-1Z"/><path fill="#ECE9E8" stroke="#ECE9E8" d="M12 10h12.5l.5 4h-8v7h8v4H13v-7.5l-1-1V10ZM26.5 25l5.5.5-5.5.5v-1ZM36.5 28l.5 2.5h-1l.5-2.5ZM14 29q5.6-2.2 4 3.5l7 2.5v4h1.5v1L14 37v-8Z"/><path fill="#FEFDFC" stroke="#FEFDFC" d="M25 10h12.5l.5 4H25.5l-.5-4ZM25 21h12v6.5l-1 1V37l-11 2q-2.1-5.2 2.5-4l4.5-2.5V25h-7v-4Z"/><path fill="#E84A20" stroke="#E84A20" d="M1.5 0 3 .5v7l1 1 2 32L8.5 46 23 49.5l-5.5.5-10-3L5 44.5l-2-31-1-1v-11L1.5 0ZM47 0l2 .5-1 1v11l-1 1-2 31-2.5 2.5-10 3h-5v-1l14-3 1.5-1.5L47 0Z" opacity=".208"/><path fill="#EBB2A9" stroke="#EBB2A9" d="m11.5 11 .5 5.5h-1l.5-5.5ZM17.5 15l.5 5 7 .5-6.5.5q-2.9-1.4-1-6ZM12.5 22l.5 3.5h-1l.5-3.5ZM37.5 24l.5 4.5h-1l.5-4.5ZM31.5 26l.5 2.5h-1l.5-2.5ZM13.5 28q4.5-1 5.5 1.5l-.5 2.5-.5-3h-4.5v-1ZM13.5 33l1.5 4.5-2-1 .5-3.5Z"/><path fill="#F2D0CA" stroke="#F2D0CA" d="M12.5 9h25l1.5 1.5-.5 2.5-.5-3H12.5l-1 1 1-2ZM17.5 14l20.5.5-20.5.5v-1ZM12.5 17l.5 4.5h-1l.5-4.5ZM25.5 20h11l1.5 1.5-.5 2.5-.5-3H25.5v-1ZM13.5 25l12.5.5-12.5.5v-1ZM13.5 29l.5 3.5h-1l.5-3.5ZM31.5 29l.5 2.5h-1l.5-2.5ZM36.5 31l.5 3.5h-1l.5-3.5ZM18.5 32l1 2-1-2Z"/><path fill="#EF642A" stroke="#EF642A" d="M25 4h18v6.5l-1 1-2 30-1.5 1.5L25 46v-5h3.5l8.5-3.5 2-17-1.5-1.5H25l.5-3h13l.5-1.5 1-5L38.5 8H25V4Z"/><path fill="#EF642A" stroke="#EF642A" d="m25 27 6 .5-2.5 5.5H25v-6Z"/><path fill="#E44F26" stroke="#E44F26" d="M4 0h41.5l.5.5v7h-1q.8-6.2-.5-6.5H5l-.5 7L4 0ZM5.5 13l.5 5.5H5l.5-5.5ZM44.5 13l.5 5.5h-1l.5-5.5ZM6.5 24l.5 5.5H6l.5-5.5ZM43.5 24l.5 5.5h-1l.5-5.5ZM7.5 35l.5 6.5H7l.5-6.5ZM42.5 35l.5 6.5h-1l.5-6.5ZM8.5 44l2.5.5-2.5.5v-1ZM39.5 44l2.5.5-2.5.5v-1ZM23.5 48l3.5.5-3.5.5v-1Z" opacity=".988"/><path fill="#F07F5F" stroke="#F07F5F" d="M25.5 8h13L40 9.5l-.5 2.5-.5-3H25.5V8ZM25.5 15l12.5.5-12.5.5v-1ZM11.5 17l.5 2.5h-1l.5-2.5ZM26.5 19l10.5.5-10.5.5v-1ZM38.5 20l.5 2.5h-1l.5-2.5ZM14.5 26l16.5.5-16.5.5v-1ZM37.5 29l.5 4.5h-1l.5-4.5ZM30.5 30l.5 2.5h-1l.5-2.5Z"/><path fill="#E34F26" stroke="#E34F26" d="m4.5 8 .5 2.5H4L4.5 8ZM45.5 8l.5 2.5h-1l.5-2.5ZM5.5 19l.5 3.5H5l.5-3.5ZM44.5 19l.5 3.5h-1l.5-3.5ZM6.5 30l.5 3.5H6l.5-3.5ZM43.5 30l.5 3.5h-1l.5-3.5Z" opacity=".867"/><path fill="#E44F26" stroke="#E44F26" d="M5 1h39.5l.5.5v11l-1 1L42 44l-13.5 4h-7L8 44 5 1Zm20 3v4H12l-2 2 1 14 1 1 1 2h12v6h-3l-2-3q-2-4-8-2l1 10 9 3h3v5l14-3 1-1 2-30 1-1V4H25Z"/><path fill="#E44F26" stroke="#E44F26" d="M18 16h7v3q-5.4 1.5-7-1.5V16Z"/><path fill="#E34F25" stroke="#E34F25" d="M3.5 2 4 7.5H3L3.5 2ZM46.5 2l.5 5.5h-1l.5-5.5ZM4.5 14l.5 4.5H4l.5-4.5ZM45.5 14l.5 4.5h-1l.5-4.5ZM5.5 25l.5 4.5H5l.5-4.5ZM44.5 25l.5 4.5h-1l.5-4.5ZM6.5 36l.5 4.5H6l.5-4.5ZM43.5 36l.5 4.5h-1l.5-4.5Z" opacity=".671"/><path fill="#E34F26" stroke="#E34F26" d="m4.5 11 .5 2.5H4l.5-2.5ZM45.5 11l.5 2.5h-1l.5-2.5Z" opacity=".761"/></svg>
