<svg viewBox="0 0 50 50" xmlns="http://www.w3.org/2000/svg"><path fill="#F5DD1E" stroke="#F5DD1E" d="m36.5 21 4.5.5-4.5.5v-1ZM33.5 22l-3 4 3-4ZM28.5 23l.5 18.5h-1l.5-18.5ZM40.5 29l-1 2 1-2ZM43.5 32l3 4-3-4ZM33.5 35l1 2-1-2ZM16.5 38l4.5 2.5-1.5.5-3-3ZM34.5 38l1 2-1-2ZM37.5 40l2.5.5-2.5.5v-1ZM12.5 43l2 3-2-3ZM29.5 43l2 3-2-3ZM46.5 43l-2 3 2-3Z"/><path fill="#F7DF1E" stroke="#F7DF1E" d="M0 0h50v50H0V0Zm25 21-1 1-3 1v17l-3-2-4 2q-4-1-2 4 3 5 13 3l4-5v2l5 3q7 2 11-1l2-2 1-4-1-4-7-6q-3 1-2-1l3 1 4-2q2 1 1-2l-5-5-7 1q-6 2-4 11 2 4 9 5l1 2q-5 1-5-2l-5 2-1-16-4-3Z"/><path fill="#E9D21B" stroke="#E9D21B" d="m22.5 22 4.5.5-4.5.5v-1ZM30.5 27l.5 3.5h-1l.5-3.5ZM37.5 27l1.5.5-2 .5 1 2.5-2-1 1.5-2.5ZM42.5 32l1 2-1-2ZM46.5 37l.5 4.5h-1l.5-4.5ZM40.5 38l.5 2.5h-1l.5-2.5ZM17.5 39l1 2-1-2ZM34.5 39l1 2-1-2ZM13.5 43l2 3-2-3ZM30.5 43l1 2-1-2ZM45.5 43l-2 3 2-3ZM17.5 46l5.5.5-5.5.5v-1ZM35.5 46l6.5.5-6.5.5v-1Z"/><path fill="#F1DA1D" stroke="#F1DA1D" d="m21.5 23 .5 16.5h-1l.5-16.5ZM43.5 23l1 2-1-2ZM31.5 33l1 2-1-2ZM13.5 40l-.5 1.5-.5 1.5-.5-1.5 1.5-1.5ZM26.5 44l-1 2 1-2Z"/><path fill="#302B03" stroke="#302B03" d="m23 23 4 1.5v16L23.5 45l-4 1-5.5-3.5q-.7-2.2 1.5-1.5 1.5-2.5 3 1 3.8.8 4.5-1.5V23ZM36.5 23q5.8-.8 7.5 2.5.8 2.3-1.5 1.5h-2l-3-1q-2.2.8-1.5 4.5l9 6 1 4-3.5 4.5-6 1-5.5-3.5 1.5-2.5q2 3 8 2l1.5-2.5-1-2.5-8-3q-1.6-2.1-1-7.5l4.5-3.5Z"/><path fill="#C7B316" stroke="#C7B316" d="m36.5 22 3.5.5q-5.9.1-8 4-.6 5.4 1 7.5l8 3.5-1.5.5-7.5-4.5-1-7 1-2.5 4.5-2ZM22.5 23l.5 17.5q-.7 2.3-4.5 1.5-1.5-3.5-3-1-2.2-.7-1.5 1.5l5 3-2.5.5-3.5-4.5 3.5-2.5q1.3 3 5.5 2l.5-18ZM26.5 23l1.5.5v17L26 45l-3.5 1v-1l3.5-2.5 1-2v-16l-.5-1.5Z"/><path fill="#C7B316" stroke="#C7B316" d="m41.5 23 3.5 2.5-1.5 2.5-3 1-3-2-1.5.5 2.5-1.5 3 2 2.5-1-1.5-3-1-1ZM36.5 30l2.5 1.5-1.5.5-1-2ZM40.5 32l4.5 2 1 3.5h-1L41.5 33l-1-1ZM32.5 39q2.5 3.2 8.5 2l.5-2 .5 1.5q-1.2 2.8-6.5 1.5l-3-2-1.5 2.5 1.5 2.5q-3.2-1.2-2.5-5l2.5-1ZM45.5 41l.5 1.5q-.5 4-5.5 3.5v-1q4 .5 4.5-2.5l.5-1.5Z"/></svg>
