<svg viewBox="0 0 50 50" xmlns="http://www.w3.org/2000/svg"><path fill="#FEFEFE" stroke="#FEFEFE" d="m41.5 17 1.5 2.5-2-1 .5-1.5ZM15.5 23l.5 2.5h-1l.5-2.5ZM4.5 46l1 2-1-2Z" opacity=".447"/><path fill="#AD7884" stroke="#AD7884" d="m27.5 16-1 2 1-2ZM22.5 33l-2 3 2-3Z" opacity=".98"/><path fill="#A15A6C" stroke="#A15A6C" d="m8.5 22-1 2 1-2ZM23.5 22l-.5 1.5-.5 2.5-.5-2.5 1.5-1.5ZM37.5 24l1.5 2.5-2-1 .5-1.5ZM42.5 24l.5 1.5-2 1 1.5-2.5ZM30.5 28l-1 2 1-2ZM34.5 28l1 2-1-2ZM24.5 31l-1 2 1-2ZM19.5 36l-1 2 1-2ZM41.5 36l-1 2 1-2ZM5.5 38l.5 2.5H5l.5-2.5ZM12.5 39l2.5.5-2.5.5v-1Z" opacity=".984"/><path fill="#F8F5F5" stroke="#F8F5F5" d="M20.5 1h24l.5 3.5h-1L43.5 2h-23l-1.5.5L20.5 1ZM32.5 10l3.5 6.5h-1L32.5 11l-1.5.5 1.5-1.5ZM36.5 18l2 1 1.5-.5q-.7 2.3 1.5 1.5v1q-4.2-.7-5 2l1.5-2.5-1.5-2.5ZM25.5 19l2.5.5-1 1 1.5 2.5q-1.2-2.7-5.5-2.5l2.5-1.5ZM8.5 20q4.8-.7 5.5 2.5L11.5 21q-4 .8-3-1ZM5.5 23l.5 2.5H5l.5-2.5ZM20.5 23l.5 2.5h-1l.5-2.5ZM29.5 24l.5 2.5q-.8 4.3-6.5 3.5l-2-3 4 2 2.5-1 1.5-4ZM35.5 24l2 4 3 1 3-2 1.5 4.5h-1q1.1-3.3-1.5-2.5l-4 1q-4.8-1.3-3-6ZM6.5 27l3.5 2.5-.5 4.5-.5-4-2.5 1 .5-1.5-.5-2.5ZM22.5 31l-4 5 4-5ZM44.5 33l.5 2.5-2 1 1.5-3.5ZM10.5 35l4.5 2.5-2.5.5-2-3ZM41.5 38l-1 2-1.5-.5 2.5-1.5ZM35.5 40l2.5.5-2.5.5v-1ZM5.5 45l1 2-1-2ZM10.5 48l4.5.5-4.5.5v-1Z" opacity=".992"/><path fill="#FFF" stroke="#FFF" d="m32.5 14-1 2 1-2ZM21.5 19l-1 2 1-2ZM14.5 28l-1 2 1-2ZM46.5 30l.5 4.5h-1l.5-4.5ZM11.5 31l.5 2.5h-1l.5-2.5ZM44.5 38l-1 2 1-2Z" opacity=".298"/><path fill="#FEFEFE" stroke="#FEFEFE" d="M16.5 0 22 18.5 18.5 23l-.5-1.5q3.8-.8 3-6l-5-13 .5-2.5ZM48.5 0l.5 1.5-6 16 4 4v2h-1q.5-4-2.5-4.5-2.2.8-1.5-1.5L48.5 0ZM32.5 15l2.5 5.5-1.5 3.5-.5-2.5 1-2-1.5-2.5-1.5 3.5 1 3h-1l-1-5 2.5-3.5ZM8.5 17l2.5.5-7 4L2.5 26 2 23.5 4 19l4.5-2ZM12.5 18l3.5 2.5 1 6h-1q.8-5.8-2.5-7.5l-1-1ZM46.5 25l.5 3.5h-1l.5-3.5ZM18.5 26l1.5 4.5-4.5 4.5h-2L12 31.5l4-3q-3.7 1.2-3 5.5 4.7.8 6-3.5l-.5-4.5ZM47.5 30l.5 4.5h-1l.5-4.5ZM1.5 35l.5 8.5H1l.5-8.5ZM46.5 36l.5 1.5q-2.1 4.9-8.5 5.5v-1q5.6-.4 7.5-4.5l.5-1.5ZM32.5 43l4.5.5q-9.5 1-15.5 5.5v-1l11-5ZM2.5 45 4 48l3 1.5-1.5-.5L3 47.5 2.5 45Z" opacity=".031"/><path fill="#E8DDE0" stroke="#E8DDE0" d="m32.5 9 1 2-2.5-.5L32.5 9ZM36.5 17l1 2-1-2ZM7.5 21l-1 2 1-2ZM22.5 21l-.5 1.5-.5 1.5-.5-1.5 1.5-1.5ZM13.5 23l.5 2.5h-1l.5-2.5ZM28.5 23l.5 2.5h-1l.5-2.5ZM36.5 25l1.5 2.5-.5 2.5q-4.3-1.7-1.5-3.5l.5-1.5ZM43.5 25l.5 1.5-2 1 1.5-2.5ZM6.5 26l1 2-1-2ZM21.5 26l1 2-1-2ZM27.5 27l2.5.5-3 2 .5-2.5ZM4.5 36l.5 2.5H4l.5-2.5ZM10.5 36l1 2-1-2ZM4.5 40l.5 2.5H4l.5-2.5ZM32.5 40l2.5.5-2.5.5v-1ZM5.5 44l2 3-2-3Z" opacity=".996"/><path fill="#FEFEFE" stroke="#FEFEFE" d="m18 0 29 .5L45.5 4 45 1H20.5L18 2V0ZM32.5 11l1.5 2.5-3 1-2 7 1 2h-1l-2-3 5.5-9.5ZM40.5 17l4.5 6.5h-1L41.5 20q-3.1.7-1-3ZM24.5 18l.5 2-4.5 3 4-5Z" opacity=".918"/><path fill="#FEFEFE" stroke="#FEFEFE" d="M36.5 19q3.3 1.8-.5 3.5l-.5 1.5-.5-1.5 1.5-3.5ZM12.5 20q3.5 1 2.5 6.5-5 1-4 8l1.5 2.5q-4-1.7-2.5-8l4-2.5q.6-5.5-1.5-6.5ZM44.5 25l.5 3.5h-1l.5-3.5ZM5.5 26 7 29.5 4.5 34 4 32.5l2-4-.5-2.5ZM21.5 28l1.5 2.5q-2.4 5.1-8.5 6.5v-1l7.5-5.5-.5-2.5ZM45.5 30l.5 4.5h-1l.5-4.5ZM3.5 35l.5 3.5H3l.5-3.5ZM44.5 36l-3 4 3-4ZM3.5 40l3 7 3.5 1.5-1.5.5L4 45.5 3.5 40ZM32.5 41l4.5.5-4.5.5v-1ZM24.5 44l1.5.5-7.5 3.5v-1l6-3ZM11.5 49l2.5.5-2.5.5v-1Z" opacity=".918"/><path fill="#FFF" stroke="#FFF" d="m13.5 19 1 2-1-2ZM3.5 23l.5 3.5H3l.5-3.5ZM18.5 23l.5 2.5h-1l.5-2.5ZM20.5 29l.5 1.5-4 3 3.5-4.5ZM12.5 34l1 2-1-2Z" opacity=".161"/><path fill="#CDB3B9" stroke="#CDB3B9" d="m21.5 2 22.5.5-22.5.5V2ZM32.5 8l-1 2 1-2ZM25.5 17l2.5.5q-2.1 3.3-2.5-.5ZM26.5 21l1 2-1-2ZM38.5 21l-1 2 1-2ZM41.5 21l1 2-1-2ZM12.5 26l-1 2 1-2ZM22.5 32l-3 4 3-4ZM10.5 47l4.5.5-4.5.5v-1Z" opacity=".996"/><path fill="#99435B" stroke="#99435B" d="m22 3 21 .5-19.5.5-1 1-.5-2ZM31.5 7l-1 2 1-2ZM33.5 7l3.5 7q3-1 2 2-2.7 1.1-2-1.5L33.5 7ZM27.5 14l-.5 1.5-.5 1.5-.5-1.5 1.5-1.5ZM9.5 22l2.5 1.5-1.5-.5-1-1ZM24.5 22l2.5 1.5-1.5-.5-2 1 1-2ZM39.5 22l2.5 1.5-1.5-.5-2 1 1-2ZM11.5 25l-1 2-2.5-.5 3.5-1.5ZM26.5 25l-1 2-2.5-.5 3.5-1.5ZM34.5 29q2.5 3.2 8.5 2 1 5.6-3.5 7l-1.5-.5 4-3q1.4-4.6-4.5-2.5l-3-3ZM28.5 30l-1 2h-2l-6 6 6-7 3-1ZM7.5 33l.5 1.5L6.5 37 6 35.5 7.5 33ZM8.5 36l3 4-3-4ZM34.5 38l2.5.5-2.5.5v-1ZM24.5 41l1.5.5-7.5 3.5v-1l6-3ZM11.5 46l2.5.5-2.5.5v-1Z"/><path fill="#99425B" stroke="#99425B" d="m23 4 19 .5-3 9.5q-2.7 1.1-2-1.5L33.5 7 30 8.5 26.5 15 23 4ZM8 23l4 1.5L8 26v-3ZM24.5 23l2.5 1.5-4 1.5 1.5-3ZM39.5 23l2.5 1.5V26h-4l1.5-3ZM32.5 25l3 6 6.5 1q.8 3.8-2.5 5l-10 2-14 7h-5L7 43.5l-1-6L7.5 35l4 5q5.7.7 8-2 3.9-6.5 11.5-8l1.5-5Z"/><path fill="#BD97A0" stroke="#BD97A0" d="m22.5 26 1 2-1-2ZM29.5 28l-1 2 1-2ZM35.5 28l1 2-1-2ZM8.5 31l.5 2.5H8l.5-2.5ZM6.5 44l1 2-1-2Z"/><path fill="#FEFEFE" stroke="#FEFEFE" d="m32.5 13 1 2-1-2ZM23.5 17l.5 1.5-4 3 3.5-4.5ZM43.5 20l1 2-1-2ZM5.5 21 5 22.5 4.5 24 4 22.5 5.5 21ZM19.5 23l.5 2.5h-1l.5-2.5ZM45.5 23l.5 2.5h-1l.5-2.5ZM14.5 27l-2 3 2-3ZM21.5 29l.5 1.5-5 4 4.5-5.5ZM44.5 37l-2 3 2-3ZM2.5 38l.5 2.5H2l.5-2.5Z" opacity=".671"/></svg>
