<svg viewBox="0 0 50 50" xmlns="http://www.w3.org/2000/svg"><path fill="#00F" stroke="#00F" d="m6.5 17 .5 3.5H6l.5-3.5ZM14.5 32l-1 2 1-2Z" opacity=".004"/><path fill="#274F83" stroke="#274F83" d="M3.5 12H12v9.5h1l1.5-2.5 7-1 3 2q1.7-3.7 9-2l2 1 8.5-1.5-3-2q-1.8-5.7 4.5-3.5l2.5 1 2 10.5-2-1q.8-6.1-1-8.5l-3.5-1q-3 1.5 0 3l1.5.5v7l1 2q-2.5 1.5-1 7l-3 3 2.5 1.5 2.5-1q1.8-2.4 1-8.5l1.5-1.5.5 1.5-2 9.5-5.5 1-1.5-4-8.5-1q-1.2 2.2-6 1l-4-1-5 1-3-2-4 2-2-1 .5 1.5L7.5 38 2 37 0 26.5l2 1q-.8 6.1 1 8.5l4 1q1-4.2-2-3.5v-7l-1-2 1-1V16l3 .5v14Q9.2 33 13 32l-2-3.5V13H4.5L3 14.5l-1 8L.5 24 0 22.5q2.8-1.7 1-8L3.5 12ZM7 17 6 33h2l-1-1V17Zm11 2-2 1-3 4 1 7 6 2 3-1q1-4-4-2l-2-3h7v-5q-1-4-6-3Zm10 0q-4 1-3 6l6 4v1h-6v2l4 1 5-2 4 2 4-1q2 0 2-4l-6-4v-2h5v-1q-1-3-5-2t-3 6l4 2 1 3h-6v-2l-6-4v-2h5q2-5-5-3Zm14 4 1 1 1 1q1-3-2-2Z" opacity=".184"/><path fill="#274F83" stroke="#274F83" d="M17.5 22q4.8-1.3 3.5 2l-5-.5 1.5-1.5Z" opacity=".184"/><path fill="#2A4D80" stroke="#2A4D80" d="m5.5 14-2 3 2-3ZM8.5 14l1.5 1.5v8H9q.7-7.5-.5-9.5ZM46.5 16l.5 2.5h-1l.5-2.5ZM17.5 20l3.5.5-3.5.5v-1ZM28.5 20l1.5.5-2.5 1.5 1-2ZM28.5 25l3.5 1.5-1.5.5-2-2ZM3.5 33l1 2-1-2Z" opacity=".965"/><path fill="#2A4C7F" stroke="#2A4C7F" d="M41.5 26q3 1.5 0 3v-3Z" opacity=".937"/><path fill="#2A4D7F" stroke="#2A4D7F" d="m39.5 20 2.5.5-2.5.5v-1Z" opacity=".953"/><path fill="#2A4C80" stroke="#2A4C80" d="m3.5 17 .5 5.5H3l.5-5.5ZM46.5 19l.5 3.5h-1l.5-3.5ZM21.5 21l1.5 3.5h-1l-.5-3.5ZM26.5 22l1.5 2.5-2-1 .5-1.5ZM14.5 23l1.5 2.5-1.5 2.5v-5ZM9.5 24l1.5 6.5-2-1 .5-5.5ZM40.5 26l1 2-1-2ZM3.5 27l.5 5.5H3l.5-5.5ZM32.5 27l.5 2.5h-1l.5-2.5ZM46.5 27l.5 3.5h-1l.5-3.5ZM15.5 29l1 2-1-2Z" opacity=".98"/><path fill="#294D7F" stroke="#294D7F" d="M4.5 13H11v14.5h-1V14H4.5l-1.5.5L4.5 13ZM43.5 13l1.5.5-2 1 .5 1.5q-3-1.5 0-3Z" opacity=".694"/><path fill="#294D7F" stroke="#294D7F" d="m6.5 15 2.5.5v15l.5 1.5L8 30.5V16l-1.5-1ZM2.5 16l.5 5.5H2l.5-5.5ZM47.5 16l.5 5.5h-1l.5-5.5ZM17.5 19l3.5.5-3.5.5v-1ZM27.5 19l5.5.5q-5.4-.9-7 2l1 4-2-1q-.7-4.7 2.5-5.5ZM37.5 19q4.5-1 5.5 1.5V22h-5v2l2 .5-1.5.5-1.5-2.5 5-2-4.5-.5v-1ZM4.5 20l.5 3.5-1 2q2.5 1.5 1 7H4l-1-8L4.5 20ZM15.5 20l-1 2 1-2ZM22.5 20l1.5 2.5h-1l-.5-2.5ZM17.5 21l2.5.5-3.5 1.5 1-2Z" opacity=".694"/><path fill="#294D7F" stroke="#294D7F" d="m28.5 21 4.5.5-4.5.5v-1ZM45.5 22l1.5 2.5-2-1 .5-1.5ZM21.5 23l-1 2-4.5-.5 5.5-1.5ZM35.5 24l5.5 4.5-.5 1.5-2-3-3-3ZM.5 25q4 1.5 2.5 8.5H2q.9-7-1.5-8.5ZM41.5 25q3 .5 2.5 4.5h-1L41.5 25ZM49.5 25 48 27.5l-.5 6.5-.5-6.5 2.5-2.5ZM16.5 26l7.5.5-7.5.5v-1ZM30.5 27l1 2-1-2ZM16.5 28l1 2-1-2ZM11.5 29l1.5 2.5h-1l-.5-2.5ZM14.5 30l2.5 1.5-1.5.5-1-2ZM33.5 30l1.5.5-2.5 1.5 1-2ZM44.5 33l-1 3 1.5.5-1.5.5q-3.5-2 1-4Z" opacity=".694"/><path fill="#2A4D7F" stroke="#2A4D7F" d="M5.5 15 5 16.5 4.5 20 4 16.5 5.5 15ZM45.5 17l.5 4.5h-1l.5-4.5ZM21.5 20v3q-3-1.5 0-3ZM36.5 20l1 2-2.5-.5 1.5-1.5ZM13.5 24l.5 2.5h-1l.5-2.5ZM28.5 24l-1 2 1-2ZM30.5 25l-1 2 1-2ZM45.5 28l.5 4.5h-1l.5-4.5ZM31.5 29v3L29 30.5l2.5-1.5ZM19.5 30l3.5.5-3.5.5v-1ZM26 30l2 .5-2 1V30ZM35 30l3 .5-2.5 1.5-.5-2ZM39.5 30l1 2-1-2ZM4.5 33l2 3-2.5-.5.5-2.5ZM44.5 34l2.5.5q-2.1 3.3-2.5-.5Z" opacity=".863"/><path fill="#2A4C7F" stroke="#2A4C7F" d="M45.5 14q3 1.5 0 3v-3ZM27.5 23l-1 2 1-2ZM17.5 25l3.5.5-3.5.5v-1ZM10.5 29l-1 2 1-2ZM16.5 29l-1 2 1-2Z" opacity=".91"/></svg>
