<svg viewBox="0 0 50 50" xmlns="http://www.w3.org/2000/svg"><path fill="#56B3B3" stroke="#56B3B3" d="M1 0h28.5l.5 2H1.5L1 0ZM1.5 10l16.5.5-16.5.5v-1ZM37.5 10l2.5.5-2.5.5v-1ZM10.5 15l3.5.5-3.5.5v-1ZM20 24h18.5l.5 2H20.5l-.5-2ZM1.5 29l9.5.5-9.5.5v-1ZM1 43h5v2H1v-2Z" opacity=".894"/><path fill="#C09394" stroke="#C09394" d="M32.5 2 37 3.5l-3.5.5-1-2ZM1.5 3l7.5.5-7.5.5V3ZM13.5 3l17.5.5-17.5.5V3ZM1.5 8l7.5.5-7.5.5V8ZM13.5 8l5.5.5-5.5.5V8ZM21.5 8h12l1 1 2-1v1q-2.6-.8-1.5 2.5l-2 1L34 9H21.5l-.5 2.5.5 1.5q-3 .9-1.5-3.5L21.5 8ZM16.5 13l-1 2 1-2Z" opacity=".031"/><path fill="#C09394" stroke="#C09394" d="m26.5 13 2.5.5-1.5 3.5-1-4ZM8.5 14l.5 3.5H8l.5-3.5ZM14.5 18q2.3.8 1.5 4.5h-1l-.5-4.5ZM.5 22l13.5.5L.5 23v-1ZM28.5 22l11.5.5-11.5.5v-1ZM17.5 26l1 1h8l1.5 1.5 1 3h-3l1-3.5-13-.5 3.5-1.5ZM8.5 27l3.5.5-3.5.5v-1ZM29.5 27h8l1 1 1.5-.5q-1.2 2.8-2.5.5h-8v-1ZM13.5 30l-1 2 1-2ZM4.5 32l2.5.5q-2.1 3.3-2.5-.5ZM31.5 32l2.5.5-2.5.5v-1Z" opacity=".031"/><path fill="#C09394" stroke="#C09394" d="m5.5 35 1 2-3.5-.5L5.5 35ZM14.5 37l1.5 3.5-1.5 1.5H.5v-1h14l.5-2.5-.5-1.5ZM.5 46l6.5.5-6.5.5v-1ZM10.5 46l2.5.5-2.5.5v-1Z" opacity=".031"/><path fill="#55B4B5" stroke="#55B4B5" d="m31.5 0 .5 3H13.5l-4 1q-1.8-2.7-8-1L0 3.5.5 2h30l1-2ZM.5 8q1.8 2.8 8 1l4-1 1 1H20q2.2 5.6-3.5 4L15 16.5l-.5 1.5H9q1-3.8-1.5-5L0 12.5l19-.5-.5-2H.5V8Zm9.5 6q-2 5 4 3 2-5-4-3ZM37.5 8q3.8-.7 4.5 1.5L40.5 13q-7.8 2.4-5.5-4l2.5-1ZM36 10q-1 4 4 2 1-4-4-2ZM26.5 22l2 1 13.5.5-1 2 .5 1.5-3 1-1-1h-8l-2 1-1-1H18v-4h7.5l1-1ZM19 24l1 2h20v-2H19ZM.5 27l2 1 5-1 5.5 1-1.5 4L0 31.5l12-.5-.5-2H0l.5-2ZM.5 42H8v4l-8-.5 7-.5q1.1-3.5-6.5-2v-1Z" opacity=".239"/><path fill="#BF85BF" stroke="#BF85BF" d="m23.5 10 8.5.5-8.5.5v-1ZM2.5 20l10.5.5-10.5.5v-1ZM30.5 29l5.5.5-5.5.5v-1ZM1.5 34l2.5.5-2.5.5v-1ZM2.5 39l10.5.5-10.5.5v-1Z" opacity=".937"/><path fill="#4B5F6D" stroke="#4B5F6D" d="M34 0h14.5l.5 2H34.5L34 0ZM41 5h7.5l.5 2h-7.5L41 5ZM43.5 10q6.9-2 5.5 2-5.7 1.3-5.5-2ZM17.5 15l8.5.5-8.5.5v-1ZM46.5 15l2.5.5-2.5.5v-1ZM18.5 19q6-1.5 7.5 1.5l-8.5.5 1-2ZM46 19q4.1-1.3 3 2-4.1 1.3-3-2ZM44 24h5v2h-5v-2ZM41.5 29h7l.5 2h-6.5l-1-2ZM34.5 34l5.5.5-5.5.5v-1ZM43.5 34l5.5.5-5.5.5v-1ZM18.5 38q5.9-1.7 4.5 2l-6-.5 1.5-1.5ZM27 38h21.5l.5 2H27.5l-.5-2ZM18 43h9.5l.5 2h-9.5l-.5-2ZM32 43q4.1-1.3 3 2-4.1 1.3-3-2ZM39 43h9.5l.5 2h-9.5l-.5-2ZM17.5 48l15.5.5-1.5 1.5h-13l-1-2ZM36.5 48h12l.5 2H37.5l-1-2Z" opacity=".431"/><path fill="#F7BB3D" stroke="#F7BB3D" d="M31.5 3 39 4q2.2 5.6-3.5 4h-14l-2 1-1-1-8.5-.5 1-2-.5-1.5h20l1-1ZM12 5l1 2h25V5H12ZM0 13h8v5H.5L0 16.5l1.5.5Q6 18 7 15.5q-.7-2.2-4.5-1.5L0 15v-2ZM43.5 17l.5 6q-6.5-2.1-17-1l1.5-4h14l1-1ZM29 19l1 2h12v-2H29ZM14.5 22l2.5.5 1 3-5.5 2.5L6 27v-4h7.5l1-1ZM8 24l1 2h7v-2H8ZM13.5 31l1 1h16l1.5 1.5-.5 3.5h-24L6 33.5 7.5 32q4.8 1.2 6-1ZM10 33q-3 2 0 3h19l2-1-2-2H10ZM8.5 42H15v4.5l.5 1.5q-2.2-2.7-7.5-2.5l1-2-.5-1.5Zm1.5 1q-1 4 4 2 1-4-4-2Z" opacity=".29"/><path fill="#F7B93D" stroke="#F7B93D" d="M12 5h25.5l.5 2H12.5L12 5ZM2.5 14q3.8-.7 4.5 1.5Q6 18 1.5 17l-1-2 2-1ZM29 19h12.5l.5 2H29.5l-.5-2ZM8 24h7.5l.5 2H8.5L8 24ZM9.5 33h19l2.5 1.5-2.5 1.5h-19q-3-1.5 0-3ZM10 43q5.2-1.7 4 2-5.2 1.7-4-2Z" opacity=".878"/><path fill="#55B3B4" stroke="#55B3B4" d="m.5 10 1 1h16l1.5-.5-.5 1.5H0l.5-2ZM36.5 10l3.5 1.5-4 .5.5-2ZM10.5 14l3.5.5-3.5.5v-1ZM10.5 16l3.5.5-3.5.5v-1ZM.5 29l1 1h9l1.5-.5-.5 1.5H0l.5-2Z" opacity=".694"/><path fill="#EB5A5A" stroke="#EB5A5A" d="M0 4h10v4H0V4ZM29.5 13h12l2.5 1q1.5 3.8-1.5 3l-1 1H28q-1-3.8 1.5-5ZM0 23h6v4H0v-4ZM13 28h13.5l.5 2.5-1.5 1.5H14l-1-4ZM7.5 46l7.5 1-.5 3H0v-3h6.5l1-1Z" opacity=".51"/><path fill="#BF85BF" stroke="#BF85BF" d="m32.5 10 .5 2-11-.5 9.5-.5 1-1ZM1.5 19h12l.5 1.5-1.5-.5h-11l-1 1 1-2ZM37.5 29l-1 2-7.5-.5 8.5-1.5ZM1.5 33 5 34.5 1.5 36q-3-1.5 0-3Zm.5 1v1h2l-2-1ZM1.5 38h12l.5 1.5-1.5-.5h-11l-1 1 1-2Z" opacity=".745"/><path fill="#425662" stroke="#425662" d="m37.5 3 11.5.5L39.5 5l-2-2ZM39.5 7l3 2q1.3-2.3 6-1v1q-4.7-1.2-6 1l-3-3ZM41.5 12l7 1 1.5-.5V14h-5v3h5v1.5l-1.5-.5-3.5 1.5q-1.3 4.2 3.5 2.5v1H44v-9.5l-2.5-.5v-1ZM17.5 13l8.5.5-8.5.5-1 1 1-2ZM15 17h12.5l.5 1.5-3.5-.5-9.5 1v-2ZM16.5 21l8.5 1.5-7.5.5-1-2ZM42.5 26l6.5 1.5-9 .5 1.5 4q6.2 1.7 8-1l.5 2h-6.5L42 34.5l1.5 1.5H50l-.5 2-1-1H41l-.5-5q-1.2 2.3-6 1v-1q6.3 2.2 4.5-3.5l3.5-2.5ZM32.5 33l.5 3 7 .5-8 .5.5-4ZM15.5 37l2.5.5-2.5.5v-1ZM23.5 37l3.5.5-1 3.5 23 .5-10.5.5-1.5 1.5.5 2.5h11v1h-12l-2 2-2-2h-15q-1.2 2.3-2.5-.5-.7-2.2 1.5-1.5l1 1h10l1.5-2.5-4.5-2.5-9.5 2 1.5-3 1 1H24l-.5-4Zm8.5 5-2 3 3 1h2q2 1 1-2t-4-2Z" opacity=".039"/><path fill="#BE85BE" stroke="#BE85BE" d="M21 9h12.5l.5 2.5-1.5 1.5h-10L21 9Zm1 1 1 2h10v-2H22ZM0 18h13.5l1.5 1.5-.5 2.5H.5v-1h13l.5-2H1.5l-1 1-.5-2ZM28 28h9.5l1.5 1.5-1.5 2.5h-8L28 30.5V28Zm1 1v2h8l1-1-9-1ZM1.5 32q4-.5 4.5 2.5l-2 1q2.3-1.2-.5-2.5l-3 1 1-2ZM.5 35l3 2h10l1.5 1.5-.5 2.5H.5v-1h13l.5-2H1.5l-1 1-.5-1.5.5-2.5Z" opacity=".31"/><path fill="#4B5F6D" stroke="#4B5F6D" d="m18.5 14 6.5.5-6.5.5v-1ZM46.5 14l3.5 1.5-3.5 1.5q-3-1.5 0-3Zm.5 1v1h2l-2-1ZM18.5 16l6.5.5-6.5.5v-1ZM34.5 33l4.5.5-4.5.5v-1ZM44.5 33q4.5-1 5.5 1.5-1 2.5-5.5 1.5v-1l4.5-.5-4.5-.5v-1ZM34.5 35l4.5.5-4.5.5v-1Z" opacity=".294"/><path fill="#4C606E" stroke="#4C606E" d="m41.5 4 8.5.5-9 .5.5 2h8v1h-8L40 6.5 41.5 4ZM43.5 9l-.5 1.5-.5 1.5-.5-1.5L43.5 9ZM44.5 12l4.5.5-4.5.5v-1ZM26.5 14l.5 2.5h-1l.5-2.5ZM18.5 18l6.5.5-6.5.5v-1ZM46.5 18l2.5.5-3.5 1.5 1-2ZM16.5 19l1.5 2.5-2-1 .5-1.5ZM26.5 19l.5 1.5-2 1 1.5-2.5ZM43.5 23l6.5.5-7 .5q-1.1 3.5 6.5 2v1q-6 1.5-7.5-1.5l1.5-2.5ZM40 28l2 .5-1 2.5 8 .5-7.5.5-1.5-4ZM40.5 33l.5 2.5h-1l.5-2.5ZM18.5 37q4.5-1 5.5 1.5l-1.5-.5q-5 1-4-1ZM27.5 37l21.5.5-21.5.5-1 1 1-2ZM16.5 38l1.5 2.5-2-1 .5-1.5ZM17.5 42h10l1.5 1.5-1.5 2.5h-10L16 44.5l1.5-2.5Zm-.5 1 1 2h10v-2H17ZM31.5 42l3.5.5-4 .5q-1.4 3.7 4.5 2v1Q31 47 30 44.5l1.5-2.5ZM38.5 42l11.5.5-12 .5.5 2h11v1h-11L37 44.5l1.5-2.5ZM17.5 47l-.5 1.5-.5 1.5-.5-1.5 1.5-1.5ZM32.5 47l1.5 2.5h-1l-.5-2.5ZM36.5 47l-.5 1.5-.5 1.5-.5-1.5 1.5-1.5Z" opacity=".184"/><path fill="#4C5E70" stroke="#4C5E70" d="m35.5 2 13.5.5-13.5.5V2ZM44.5 9l4.5.5-4.5.5V9ZM18.5 21l6.5.5-6.5.5v-1ZM46.5 21l2.5.5-2.5.5v-1ZM42.5 28l6.5.5-6.5.5v-1ZM18.5 40l3.5.5-3.5.5v-1ZM28.5 40l20.5.5-20.5.5v-1ZM18.5 47l13.5.5-13.5.5v-1ZM37.5 47l11.5.5-11.5.5v-1Z" opacity=".224"/></svg>
