<svg viewBox="0 0 50 50" xmlns="http://www.w3.org/2000/svg"><path fill="#00D8FF" stroke="#00D8FF" d="M14.5 3q6.3.7 9 5h3q2.8-4.2 9-5L39 5.5l1 7h-1L38 5l-3.5-1L26 9.5l5.5 6.5 5 1 2-3 2 4 7.5 3 1 5.5-4.5 4.5-5.5 2.5-.5 1.5q-1.5-3.5-3-1h-4L26 39.5l2.5 3.5 5.5 2.5-2.5.5-5-4h-3q-1.8 3.7-7 4v-1h2l5.5-4.5-3-5.5-7.5-2-2 3-1.5-3.5 4-6v-3l-4-6 1.5-3.5.5 2h6.5l5.5-5.5L21.5 7l-7-3L12 5l-1.5 8-.5-4.5L12.5 4l2-1ZM25 11l-3 4h6v-1l-3-3Zm-3 5-3 1-3 6q-1 5 2 8l5 3-1 2 3 3 3-2-1-2 2-1 5-7v-4l-3-6q-3-2-9-1Zm-7 1-2 4 3 1 2-3q1-3-3-2Zm17 0 1 4 3 1 1-3q-1-3-5-2Zm8 1-4 6q0 5 4 8l5-2q4-1 3-6-3-5-8-6Zm-4 9-4 6q4 1 5-1l-1-5Zm-21 1-2 4q1 2 5 1l-1-3-2-2ZM7.5 18l1.5.5-7 5q-.7 5.8 3.5 6.5L9 31.5l-1.5.5L1 26.5 2 21l5.5-3Z" opacity=".929"/><path fill="#00D8FF" stroke="#00D8FF" d="M23.5 21q4.8-.7 5.5 2.5L28 28l-3.5 1-2.5-1-1-4.5 2.5-2.5ZM39.5 36l.5 5.5-2.5 4.5-1.5-.5q4-2.5 3.5-9.5ZM10.5 37l1.5 8 2 .5-1.5.5q-3.7-3-2-9Z" opacity=".929"/><path fill="#00D7FF" stroke="#00D7FF" d="m23.5 13 2 1 1.5-.5-2.5 1.5-1-2ZM27.5 40l1 2-1-2Z" opacity=".298"/><path fill="#00DAFF" stroke="#00DAFF" d="m20.5 3 1 2-1-2ZM29.5 3l-1 2 1-2ZM23.5 5l2 1 1.5-.5L24.5 7l-1-2ZM40.5 15l2.5 1.5-1.5.5-1-2ZM15.5 18l.5 2-2-.5 1.5-1.5ZM34.5 18l1 2q-2.8.7-1-2ZM46.5 18l3 4-3-4ZM17.5 26l1 2-1-2ZM32.5 26l-1 2 1-2ZM44.5 27l-1 2 1-2ZM.5 28l3 4-3-4ZM49.5 28l-2 3 2-3ZM14.5 30q2.3-.7 1.5 1.5L14.5 30ZM7.5 33l2.5 1.5-1.5-.5-1-1ZM15.5 35l2.5.5-2.5.5v-1ZM32.5 35l2.5.5-2.5.5v-1ZM28.5 40l1 2-1-2ZM24.5 43l-1 2 1-2ZM21.5 45l-1 2 1-2ZM28.5 45l1 2-1-2Z" opacity=".071"/><path fill="#00CFFF" stroke="#00CFFF" d="m21.5 10-1 2 1-2ZM28.5 10l1 2-1-2ZM34.5 14l2.5.5-2.5.5v-1ZM23.5 19l3.5.5-3.5.5v-1ZM19.5 20l2.5.5q-2.1 3.3-2.5-.5ZM28.5 20l2.5.5q-2.1 3.3-2.5-.5ZM29.5 38l-1 2 1-2ZM41.5 38l.5 2.5h-1l.5-2.5ZM21.5 40l-1 2 1-2ZM25.5 43l1 2-1-2Z" opacity=".024"/><path fill="#00BFFF" stroke="#00BFFF" d="m8.5 9 .5 2.5H8L8.5 9Z" opacity=".016"/><path fill="#00D7FF" stroke="#00D7FF" d="m11.5 3-1 2 1-2ZM38.5 3l1 2-1-2ZM12.5 8l.5 4.5h-1l.5-4.5ZM37.5 9l.5 3.5h-1l.5-3.5ZM22.5 17l5.5.5-5.5.5v-1ZM4.5 22l-1 2 1-2ZM45.5 22l1 2-1-2ZM3.5 26l1 2-1-2ZM46.5 26l-1 2 1-2ZM37.5 36l.5 2.5h-1l.5-2.5ZM12.5 37l.5 4.5h-1l.5-4.5ZM10.5 45l1 2-1-2ZM39.5 45l-1 2 1-2Z" opacity=".169"/><path fill="#0FF" stroke="#0FF" d="m13.5 1 3.5.5-3.5.5V1ZM33.5 1l3.5.5-3.5.5V1ZM21.5 3l1 2-1-2ZM28.5 3l-1 2 1-2ZM14.5 6l1.5.5-2 .5-.5 2-.5-1.5L14.5 6ZM31.5 7l-1 2 1-2ZM41.5 7l.5 2.5h-1l.5-2.5ZM41.5 11l.5 2.5h-1l.5-2.5ZM19.5 12l-1 2 1-2ZM30.5 12l1 2-1-2ZM2.5 18l-2 3 2-3ZM21.5 18q2.3-.7 1.5 1.5h-3l1.5-1.5ZM27 18l3 1.5h-3V18ZM48.5 19l1 2-1-2ZM19.5 28l2.5 1.5-.5 1.5 2-1 2 1h2l1.5-.5q-2.2-1.2.5-2.5l1.5.5-2 1q2.3 1.3-.5 2.5-6.8 1.8-8.5-1.5l.5-1.5-1-1ZM.5 29l1 2-1-2ZM49.5 29l-1 2 1-2ZM41.5 34l.5 2.5h-1l.5-2.5ZM8.5 35l.5 2.5H8l.5-2.5ZM18.5 36l1 2-1-2ZM31.5 36l-1 2 1-2ZM9.5 45l2 3-2-3ZM22.5 45l-1 2 1-2ZM40.5 45l-2 3 2-3ZM13.5 48l3.5.5-3.5.5v-1ZM33.5 48l3.5.5-3.5.5v-1Z" opacity=".004"/><path fill="#00D8FF" stroke="#00D8FF" d="m21.5 8 1 2-1-2ZM21.5 32l6.5.5-6.5.5v-1ZM22.5 40l-1 2 1-2Z" opacity=".239"/><path fill="#00D8FF" stroke="#00D8FF" d="m9.5 9 .5 2.5H9L9.5 9ZM46.5 19l1 2-1-2ZM1.5 28l1 2-1-2ZM48.5 28l-1 2 1-2ZM40.5 37l.5 3.5h-1l.5-3.5ZM9.5 38l.5 2.5H9l.5-2.5Z" opacity=".38"/><path fill="#00D8FF" stroke="#00D8FF" d="m13.5 3 2 1 1.5-.5L14.5 5l-1-2ZM33.5 3l2 1 1.5-.5L34.5 5l-1-2ZM19.5 4l-1 2 1-2ZM30.5 4l1 2-1-2ZM22.5 6 24 9.5q-.7 2.6 2 1.5l1-2.5q-2.2-1.3.5-2.5 3.3 1.8-.5 3.5l2 3q-1.7 3.3-3.5-.5L23 13.5l-.5 1.5-.5-1.5 1-3-2-3L22.5 6ZM10.5 7q2.8 1.3 1.5 6.5l-2 1 1-6-.5-1.5ZM39.5 7 39 8.5l1 6-2-1Q36.8 8.3 39.5 7ZM10.5 16v3q-2.2.8-1.5-1.5l1.5-1.5ZM21.5 16l7.5.5-7.5.5v-1ZM36.5 16l-1 2 1-2ZM39.5 16q3 1.5 0 3v-3ZM17.5 17l1.5 2.5-2-1 .5-1.5ZM32.5 17l.5 1.5-2 1 1.5-2.5ZM6.5 18l1 2-1-2ZM43.5 18l-1 2 1-2ZM4.5 19l1 2-2.5-.5L4.5 19ZM45.5 19l1 2-2.5-.5 1.5-1.5ZM13.5 20l-1 2 1-2ZM36.5 20l1 2-1-2ZM2.5 26q-1.7 2 2 4l1.5-.5L4.5 31 1 27.5 2.5 26ZM47.5 26q3.5 2-1 4l-2.5-.5 4-2-.5-1.5ZM12.5 28l1 2-1-2ZM37.5 28l-1 2 1-2ZM7.5 30l-1 2 1-2ZM18.5 30l-.5 1.5-.5 1.5-.5-1.5 1.5-1.5ZM31.5 30l1.5 2.5h-1l-.5-2.5ZM38.5 30q4.3 1.7 1.5 3.5l-1 8 .5 1.5q-3-1.5-1.5-7.5l2-3-1.5-2.5ZM42.5 30l1 2-1-2ZM9 31l2 .5-.5 2.5L9 31ZM14.5 32l-1 2 1-2ZM35.5 32l1 2-1-2ZM21.5 33l7.5.5-6 1.5 1.5 3 3-2q3.3 1.8-.5 3.5l2 3h-3v-2q.7-2.6-2-1.5l-.5 2-1.5-2.5v-2l1-2-1.5-1.5ZM10.5 35q2.8 1.3 1.5 6.5l-2 1 1-5-.5-2.5ZM21.5 42l2.5.5q-2.1 3.3-2.5-.5ZM18.5 44l1 2-1-2ZM14.5 45l2.5 1.5-3.5.5 1-2ZM34.5 45l2.5 1.5-3.5.5 1-2Z" opacity=".776"/><path fill="#00D8FF" stroke="#00D8FF" d="m12.5 3-1 2 1-2ZM37.5 3l1 2-1-2ZM21.5 12l-1 2 1-2ZM2.5 20l-1 2 1-2ZM4.5 21l-2 3 2-3ZM22.5 21l-1 2 1-2ZM27.5 21l1 2-1-2ZM45.5 21l2 3-2-3ZM3.5 27l1 2-1-2ZM21.5 27l1 2-1-2ZM28.5 27l-1 2 1-2ZM15.5 34l2.5.5-2.5.5v-1ZM20.5 36l1 2-1-2ZM12.5 43l1 2-1-2ZM27.5 43l1 2-1-2ZM37.5 43l-1 2 1-2ZM11.5 45l1 2-1-2ZM38.5 45l-1 2 1-2Z" opacity=".557"/></svg>
