<svg viewBox="0 0 50 50" xmlns="http://www.w3.org/2000/svg"><path fill="#744FB4" stroke="#744FB4" d="m21.5 0 6.5.5-6.5.5V0ZM18.5 1l1.5.5-7 5-2.5 5.5-.5-1.5L16.5 2l2-1ZM29.5 1 37 7.5 36.5 9l-6-7-1-1ZM22.5 5l4.5.5-4.5.5V5ZM20.5 6l-1 2q-2.2-.7-1.5 1.5L15.5 13l-.5-1.5L18.5 7l2-1ZM28.5 6l4.5 6.5h-1L28.5 6ZM9.5 13l.5 3.5H9l.5-3.5ZM38.5 13l.5 5-2 .5 5 3-1.5-.5-9.5-3.5 2-.5.5-3 2 3H38l.5-4ZM14.5 14l.5 10.5h-1l.5-10.5ZM19.5 15 18 17.5l-.5 1.5-.5-1.5 2.5-2.5ZM23.5 15l5.5 1.5-3.5.5-2-2ZM17.5 20l2 3 1.5.5-1.5.5q-3.6-1.1-2-4ZM6.5 22l3.5 1 4 16 2 .5-1.5.5-2.5-3.5v-4L9.5 27l-5 7-.5-1.5 5-7L8 23l-6 4.5L.5 31 0 29.5 6.5 22ZM24.5 22l-1 2 1-2ZM30.5 22l2.5.5-2.5.5v-1ZM43.5 22l6.5 8.5h-1L43.5 22ZM34.5 23l9.5 6.5 2 5h-1L40.5 27l-6-3v-1Z" opacity=".047"/><path fill="#744FB4" stroke="#744FB4" d="M32.5 26q5.5-1 6.5 2.5 1.3 5.3-1.5 6.5L35 36.5l-4 6 2 1-5 3 3 2-1.5.5-4-3-4 2v-1l9.5-5 5.5-8q2.8.6 1.5-5.5-1-2.5-5.5-1.5L30 28.5l2.5-2.5ZM16.5 29l1 2-1-2ZM19.5 31q3.5 1 2.5 6.5L18.5 40v-1l2.5-1.5q.6-5.5-1.5-6.5Z" opacity=".047"/><path fill="#744FB4" stroke="#744FB4" d="m30.5 33-.5 1.5-5.5 6.5-2 1 1-2 5.5-4.5 1.5-2.5ZM5.5 41l1 2-1-2ZM44.5 41l-2 3-8 1v-1q7.8 1.3 10-3ZM.5 42l4 5L9 48.5l-2.5.5L0 43.5.5 42ZM49.5 42l.5 1.5-7.5 5.5v-1l6.5-4.5.5-1.5ZM11.5 44l4.5.5-4.5.5v-1ZM10.5 49l5.5.5-5.5.5v-1ZM32.5 49l8.5.5-8.5.5v-1Z" opacity=".047"/><path fill="#7549BB" stroke="#7549BB" d="m16.5 4-2 3 2-3ZM29.5 5l2 3-2-3ZM10.5 16l.5 7.5h-1l.5-7.5ZM29.5 18l2.5.5-2.5.5v-1ZM25.5 20l3.5.5-3.5.5v-1ZM19.5 21l3.5 1.5-2.5.5-1-2ZM6.5 24 8 26.5l-3 2 2-3-4 2L6.5 24ZM43.5 24l2 3-2-3ZM18.5 32l1 2-1-2ZM2.5 34l.5 3.5H2l.5-3.5ZM34.5 34l-1 2 1-2ZM29.5 37l-3 4 3-4ZM45.5 42l-1 2 1-2ZM2.5 43l2 3-2-3ZM47.5 43l-2 3 2-3ZM30.5 45l-1 2 1-2Z" opacity=".725"/><path fill="#764ABC" stroke="#764ABC" d="M22.5 2q8.9-.4 11.5 5.5l3 7-2 .5q-.7-7.5-6.5-11Q17.7 2.2 15 8.5l-3 8v6L16.5 33l3.5 1.5-1.5 3.5q-4 .5-4.5-2.5l1-2q-5.5-6-4-19L16.5 5l6-3Z" opacity=".976"/><path fill="#764ABC" stroke="#764ABC" d="m20.5 17 5 2 10 1L46 27.5l4 10-4.5 7.5q-3.2 3.8-11 3L30 46.5l5.5-.5 3 1q5.8-1.2 8.5-5.5l1-7-6.5-9.5q-5.5-5.5-17-5l-4 2-1.5-3.5 1.5-1.5Z" opacity=".976"/><path fill="#764ABC" stroke="#764ABC" d="m6.5 25 .5 1.5-5 7v6L6.5 45q3.5 2.5 11 1 8.7-2.8 13.5-9.5l1-7 1.5-1.5 3.5 1v2.5L25.5 44l-13 4-7-2L2 42.5l-2-7Q1.5 28.6 6.5 25Z" opacity=".976"/><path fill="#7649BC" stroke="#7649BC" d="m18.5 3 .5 2.5L15.5 9 13 8.5l5-3q-2.2-1.2.5-2.5ZM31.5 4l2 3-2-3ZM12.5 16l.5 6.5h-1l.5-6.5ZM25.5 18l3.5.5-3.5.5v-1ZM24.5 20l-1 2 1-2ZM40.5 22l1 2-1-2ZM41.5 25l3 4-3-4ZM15.5 31l2.5 1.5-1.5.5-1-2ZM36.5 32l-1 2 1-2ZM14.5 36l1 2-1-2ZM2.5 38l.5 1.5-2 1L2.5 38ZM31.5 38l-4 5 4-5ZM3.5 41l3 4-3-4ZM43.5 44l1 2-1-2ZM36.5 46l2.5.5-2.5.5v-1ZM9.5 47l2.5.5-2.5.5v-1ZM14.5 47l2.5.5-2.5.5v-1Z" opacity=".875"/><path fill="#00F" stroke="#00F" d="m32.5 2 2 3-2-3ZM20.5 14l2.5.5-2.5.5v-1ZM18.5 15l-1 2 1-2ZM8.5 18l.5 2.5H8l.5-2.5ZM25.5 22l-1 2 1-2ZM40.5 27l2 3-2-3ZM5.5 40l2 3-2-3ZM28.5 44l-1 2 1-2ZM27.5 47l1 2-1-2Z" opacity=".004"/><path fill="#7549BB" stroke="#7549BB" d="m30.5 2 1 2-1-2ZM16.5 3l-3 4 3-4ZM27.5 5 32 8.5 28.5 6l-1-1ZM34.5 6l1 2-1-2ZM16.5 9l-1 2 1-2ZM20.5 15l2.5.5-2.5.5v-1ZM24.5 16l6.5 1.5-5.5.5-1-2ZM9.5 17l.5 5.5H9l.5-5.5ZM13.5 17l.5 5.5h-1l.5-5.5ZM18.5 21l1 2-1-2ZM27.5 21l3.5.5-3.5.5v-1ZM42.5 22l4 5-4-5ZM6.5 23l1.5.5L2.5 28l4-5ZM38.5 24l1 2-1-2ZM8.5 25l.5 1.5-3 2L8.5 25ZM36.5 27l1 2-1-2ZM15.5 28l2 3 3.5 2.5-2.5-1.5-3.5-2.5.5-1.5ZM30.5 29l.5 3.5h-1l.5-3.5ZM35.5 34l-1 2 1-2ZM46.5 34l.5 4.5h-1l.5-4.5ZM29.5 36l-3 4 3-4ZM20.5 37l-1 2 1-2ZM33.5 37l-1 2 1-2ZM44.5 42l-1 2 1-2ZM1.5 43l3 4-3-4ZM27.5 43l-1 2 1-2ZM48.5 43l-3 4 3-4ZM30.5 44l-1 4q-3.5-2 1-4ZM36.5 45l2.5.5-2.5.5v-1ZM15.5 48l2.5.5-2.5.5v-1Z" opacity=".251"/><path fill="#764ABC" stroke="#764ABC" d="m22.5 4 4.5.5-4.5.5V4ZM32.5 4l1 2-1-2ZM18.5 6l-2 3 2-3ZM37.5 14l.5 3-2-.5 1.5-2.5ZM23.5 16l1 2-1-2ZM24.5 21l-1 2 1-2ZM41.5 22l1 2-1-2ZM40.5 25l4 5-4-5ZM33.5 27l2.5.5-2.5.5v-1ZM46.5 27l1 2-1-2ZM5.5 29l-1 2 1-2ZM37.5 32l-1 2 1-2ZM20.5 34l.5 2.5h-1l.5-2.5ZM14.5 37l1 2-1-2ZM31.5 39l-3 4 3-4ZM25.5 40l-1 2 1-2ZM11.5 45l3.5.5-3.5.5v-1ZM11.5 48l3.5.5-3.5.5v-1ZM33.5 48l6.5.5-6.5.5v-1Z" opacity=".51"/></svg>
