<svg viewBox="0 0 50 50" xmlns="http://www.w3.org/2000/svg"><path fill="#CD6798" stroke="#CD6798" d="m28.5 18-1 2 1-2ZM3.5 20l.5 2.5H3l.5-2.5ZM14.5 22l2.5.5-2.5.5v-1ZM27.5 28l-1 2 1-2ZM30.5 28l2.5 1.5-1.5.5-1-2ZM41.5 28q3.8-.7 4.5 1.5l-1.5-.5q-4 .8-3-1ZM36.5 29l1.5 2.5-3 2 2.5.5 1.5-.5-4.5 2.5-.5-2.5 2-2 .5-2.5ZM8.5 30l2.5.5L9.5 34l-1-4ZM47.5 30l2.5 3.5h-1L47.5 30ZM12.5 32l.5 2-2-.5 1.5-1.5ZM29.5 33l1 2-2 1 .5-1.5.5-1.5ZM19.5 34q3 1.5 0 3v-3ZM11.5 36l1 2-1-2Z" opacity=".769"/><path fill="#DE2AD4" stroke="#DE2AD4" d="m6.5 24 2 3-2-3ZM.5 26l2 3-2-3ZM41.5 26l3.5.5-3.5.5v-1ZM8.5 36l1.5.5L7.5 38l1-2Z" opacity=".012"/><path fill="#C69" stroke="#C69" d="M2.5 25h2L7 27.5l-2.5.5-2-3ZM34.5 25l1 2q-2.8.7-1-2ZM19.5 26l.5 1.5-2 1 1.5-2.5ZM22.5 28l1 2-2.5-.5 1.5-1.5ZM8.5 33l-3 4-.5-2 3.5-2ZM22.5 33l1.5 3.5h-1l-.5-3.5ZM12.5 34l.5 2.5h-1l.5-2.5Z" opacity=".839"/><path fill="#E98080" stroke="#E98080" d="m5.5 11-1 2 1-2ZM26.5 11l1 2-1-2ZM7.5 17l-1 2 1-2ZM16.5 26l-1 2 1-2ZM12.5 41l-2 3 2-3Z" opacity=".008"/><path fill="#CC6798" stroke="#CC6798" d="m8.5 10-1 2 1-2ZM4.5 13l-3 4 3-4ZM8.5 15l-3 4 3-4ZM30.5 17l-1 2 1-2ZM24.5 18l-1 2 1-2ZM11 20l2 .5-.5 2.5-1.5-3ZM27.5 20l-1 2 1-2ZM15.5 21l2.5.5-2.5.5v-1ZM28.5 23l-1 2 1-2ZM17.5 26l-2 3 2-3ZM32.5 27l-1 2 1-2ZM41.5 27l3.5.5-3.5.5v-1ZM4.5 28l1 2-1-2ZM9.5 28l1 2-1-2ZM24.5 28q2.7 1.3.5 2.5l-.5 1.5v-4ZM34.5 28l1.5 2.5-2 1 1-2-.5-1.5ZM47.5 28l2 3-2-3ZM13 32q2.7-1.1 2 1.5v2L13.5 38l-.5-6ZM26.5 33q3 1.5 0 3v-3ZM33.5 35l2.5 1.5-1.5.5-1-2ZM47.5 35l2.5.5-3 1.5.5-2ZM20.5 37l-1 2 1-2ZM9.5 38l-1 2 1-2ZM15.5 38l2.5 1.5-1.5.5-1-2ZM11.5 41l-1 2 1-2Z" opacity=".231"/><path fill="#CD6699" stroke="#CD6699" d="m29.5 8 1 2-1-2ZM5.5 13l-3 4 3-4ZM7.5 15l-2 3 2-3ZM12.5 21q2.3-.7 1.5 1.5L12.5 21ZM30.5 25l.5 2.5h-1l.5-2.5ZM17.5 27l-1 2 1-2ZM22.5 27l1 2-1-2ZM8.5 28l1 2-1-2ZM26.5 28l2.5.5q-2.1 3.3-2.5-.5ZM40.5 28l1 2q-2.8.7-1-2ZM45.5 28l-1 2-1.5-.5 2.5-1.5ZM47.5 29l1 2-1-2ZM7.5 33l1 2-1-2ZM10.5 33l1.5 2.5h-1l-.5-2.5ZM24.5 33l1.5.5-2 1 .5 1.5q-3-1.5 0-3ZM28.5 34l1 2-2.5-.5 1.5-1.5ZM4.5 35l-1 2 1-2ZM15.5 37l1 2-1-2ZM4.5 43l2.5.5-2.5.5v-1Z" opacity=".639"/><path fill="#CD6799" stroke="#CD6799" d="m19.5 6 2.5.5-2.5.5V6ZM21.5 9l3.5.5-3.5.5V9ZM27.5 10q2.3.8 1.5 4.5h-1l-.5-4.5ZM31.5 11l.5 2.5h-1l.5-2.5ZM26.5 17l-1 2 1-2ZM15.5 23l5.5.5-5.5.5v-1ZM4.5 24l3 4-3-4ZM37.5 24l.5 2.5h-1l.5-2.5ZM1.5 25l2 3-2-3ZM20.5 25l2.5 1.5-1.5-.5-1-1ZM34.5 27l1 2-1-2ZM28.5 29l-1 2 1-2ZM39.5 30l.5 2.5h-1l.5-2.5ZM29.5 31l.5 1.5-2 1 1.5-2.5ZM49.5 31l-1 2 1-2ZM17.5 32l1.5 3.5-2-1 .5-2.5ZM23 32l2 .5-2 1V32ZM33.5 34l-2 3 2-3ZM48 34l2 .5-2 1V34ZM7.5 35l-2 3 2-3ZM24.5 36l-2 3-1.5-.5 3.5-2.5Z" opacity=".447"/><path fill="#CD6799" stroke="#CD6799" d="M20.5 7q7.2-.7 9.5 3.5l1 2-2-1L27.5 9h-10L5 16.5q-3 2-2 8L5.5 28Q1.1 25.9 1 19.5L5.5 14q5.9-5.1 15-7ZM29.5 14l.5 1.5-3.5 4.5 1.5-2.5 1.5-3.5ZM36.5 23l.5 1.5v2l-.5 1.5-1.5-3.5 1.5-1.5ZM29.5 24l.5 3.5-2-1 1.5-2.5ZM16 29l2 .5-1.5 3.5-.5-4ZM22.5 29l.5 2.5-1 4 .5 1.5-2.5-3.5 2.5-4.5ZM10.5 31l1 2-1-2ZM31.5 32l.5 2.5h-1l.5-2.5ZM16.5 35l1.5 2.5-2 .5.5-3ZM3.5 38l2 4 1.5.5-2.5.5q-2.7-1.2-1-5ZM11.5 38l-3 4 3-4Z" opacity=".973"/><path fill="#CC6798" stroke="#CC6798" d="m19.5 5 6.5.5-6.5.5V5ZM27.5 6 32 8.5l1 6h-1L31 8q-4.2 0-3.5-2ZM10.5 8l1.5.5L9.5 10l1-2ZM7.5 10l-2 3 2-3ZM19.5 10l6.5.5-6.5.5v-1ZM16.5 11l1.5.5-5.5 2.5v-1l4-2ZM3.5 13l-2 3 2-3ZM27.5 13l.5 1.5-2.5 3.5.5-1.5 1.5-3.5ZM10.5 14l-2 3 2-3ZM23.5 18l-1 2 1-2ZM30.5 18l-2 4 3.5 1.5-1.5-.5-3 1-.5-2.5 3.5-3.5ZM11.5 19l3.5 1.5-1.5.5-2-2ZM17.5 20l3.5.5-3.5.5v-1ZM37.5 21l1.5.5V27h1.5v1L38 26.5l-.5-5.5ZM11.5 22q2.6 3.4 10 2l2-1v1l-6 2-5-2-1-2ZM33.5 23l.5 1.5-2.5 3.5-.5-3q2.8 1 2.5-2ZM5.5 24l7 5 2-1v1l-3 1-6-6ZM.5 25 8 31.5 7.5 33 7 31H5.5l-5-6ZM23.5 25l2.5 3.5-1.5-.5q-3.1.7-1-3ZM48.5 28l1 2-1-2ZM19.5 29l.5 2.5-1.5 2.5-.5-2.5 1.5-2.5ZM34.5 29l.5 1.5-1.5 2.5-.5-2.5 1.5-1.5ZM28.5 30l.5 2.5q-3.8 1.3-3 5.5l4 .5-3.5.5-2-1-3 2h-2l-2 1 1-2 2-1 2 1 6-9ZM40 30l5 .5-4 .5-.5 2-.5-3ZM46.5 31l1.5 3.5-1.5 2.5-.5-1.5 1-3-.5-1.5ZM5.5 33l-1 2q-2.2-.7-1.5 1.5l-2 1L3.5 34l2-1ZM39.5 34l-2 3-1.5-.5 3.5-2.5ZM8.5 35l-2 3 2-3ZM32.5 36l1.5.5-2.5 1.5 1-2ZM9.5 37l-2 3 2-3ZM14.5 37l1.5 2.5-4 1 2.5-3.5ZM.5 40 2 44l6 .5-5.5.5q-3.7-1.8-2-5Z" opacity=".071"/><path fill="#CD6799" stroke="#CD6799" d="m28.5 8 1 2-2.5-.5L28.5 8ZM30.5 11v3q-2.2.8-1.5-1.5l1.5-1.5ZM6.5 15l-1 2 1-2ZM27.5 17 26 19.5l-.5 1.5-.5-1.5 2.5-2.5ZM18.5 22l2.5.5-2.5.5v-1ZM18.5 27l-1 2 1-2ZM28.5 27l2 3-2-3ZM6.5 28l3.5 2.5L7.5 29l-1-1ZM36.5 28l2.5 1.5-.5 3.5-.5-4-1.5-1ZM11.5 31l-1 2 1-2ZM30 31l2 .5-1.5 2.5-.5-3ZM16.5 33l.5 2-2-.5 1.5-1.5ZM22.5 35v3q-3-1.5 0-3ZM4.5 36l.5 2-2-.5L4.5 36ZM17.5 36q2.3-.7 1.5 1.5L17.5 36ZM10.5 40l-1 2 1-2Z" opacity=".91"/></svg>
