<svg viewBox="0 0 50 50" xmlns="http://www.w3.org/2000/svg"><path fill="#007ACC" stroke="#007ACC" d="M0 0h50v50H0V0Zm38 21-5 2-2 3h-1v-4H10q-2 5 2 7 4-1 4 1v16q1 2 7 1l1-1V29l6-1 1 6 8 4 1 2q-5 1-5-2l-6 3 1 4 4 2q7 2 11-1l2-2 1-4-1-4-7-6q-3 1-2-1l3 1 4-2q2 1 1-2-2-5-8-5Z"/><path fill="#E7EDF7" stroke="#E7EDF7" d="m12.5 23 15.5.5-16 .5q-1.3 3.7 4.5 2l1 2-6.5-1 1.5-4ZM35.5 23l5.5.5-6.5 1.5 1-2ZM42.5 24l1.5 2.5-2 1 1-2-.5-1.5ZM28.5 25l-1 2-4.5-.5 5.5-1.5ZM37.5 26l3.5 1.5-1.5-.5q-3 .5-2-1ZM21.5 28l.5 16.5-3.5 1.5v-1l2.5-.5.5-16.5ZM32.5 31l2 3 7.5 4.5-1.5 3.5.5-1.5-1.5-3.5-7.5-4.5.5-1.5ZM43.5 34l1 2-1-2ZM45.5 37l.5 4.5-2 1 1.5-5.5ZM34.5 40l1 2-1-2ZM31.5 42l3.5 2.5-1.5.5-2-3ZM36.5 45l4.5.5-4.5.5v-1Z"/><path fill="#3683CE" stroke="#3683CE" d="m28.5 22 1.5 1.5 1 7h-1L28.5 22ZM43.5 23l1 2-1-2ZM45.5 26l-2 3 2-3ZM16.5 28l.5 18 6 .5-5.5.5-1.5-1.5.5-17.5ZM39.5 28l2.5 1.5-1.5.5-1-2ZM44.5 33l1 2-1-2ZM32.5 38q4-.5 4.5 2.5L34.5 39q-3 .5-2-1ZM39.5 38q3 1.5 0 3v-3ZM29.5 42l3 4-3-4Z"/><path fill="#117BCC" stroke="#117BCC" d="m37.5 21 2.5.5-2.5.5v-1ZM32.5 23l-1 2 1-2ZM11.5 28l4.5.5-4.5.5v-1ZM23 28l6 .5-5 .5-.5 17-.5-18ZM46.5 43l-2 3 2-3Z"/><path fill="#FEFEFE" stroke="#FEFEFE" d="M12 24h15.5l.5 2q-5.5-1.2-7 2.5v16l-3 .5V27.5L16.5 26q-5.8 1.7-4.5-2ZM35.5 24q6-1.5 7.5 1.5L41.5 28l-4-2-2.5 3.5 10 7q.6 5.4-1 7.5-2.4 1.8-8.5 1L31 41.5l2.5-1.5 5 3 3.5-2.5q.5-4-2.5-4.5L33 32.5l-1-5 1-2.5 2.5-1Z"/><path fill="#A5BEE3" stroke="#A5BEE3" d="M34.5 23 32 26.5l-.5 5.5-.5-5.5 3.5-3.5ZM28.5 26l-1 2-5 1-.5-2 6.5-1ZM44.5 26l-1 2 1-2ZM12.5 27q4.5-1 5.5 1.5L17.5 46 17 28h-4.5v-1ZM30.5 41l2.5 3.5-3-2 .5-1.5ZM36.5 41l3.5.5-3.5.5v-1ZM45.5 42l-2 3 2-3Z"/><path fill="#6C9BD6" stroke="#6C9BD6" d="m11.5 22 16.5.5-17 .5 1 4.5-2-1q-.7-3.7 1.5-4.5ZM35.5 22l5.5.5-5.5.5v-1ZM33.5 23l-1 2 1-2ZM37.5 27l1.5.5-2 .5 1 2.5-2-1 1.5-2.5ZM22.5 29l.5 16.5h-1l.5-16.5ZM31.5 32l3 4-3-4ZM43.5 33l2 3-2-3ZM46.5 37l.5 4.5h-1l.5-4.5ZM31.5 39l-2 3 2-3ZM34.5 39l1 2-1-2ZM45.5 43l-1 2 1-2ZM36.5 46l4.5.5-4.5.5v-1Z"/></svg>
