<svg viewBox="0 0 50 50" xmlns="http://www.w3.org/2000/svg"><path fill="#8ED6FB" stroke="#8ED6FB" d="m22.5 3 .5 4.5-2 1L22.5 3ZM41.5 18l.5 13.5h-1l.5-13.5ZM22.5 42l.5 4.5h-1l.5-4.5Z" opacity=".996"/><path fill="#8DD5FB" stroke="#8DD5FB" d="m22.5 0 1.5.5L21.5 2l1-2ZM26.5 0 26 1.5 25.5 8 25 1.5 26.5 0ZM32.5 3l1 2-1-2ZM15.5 4l-1 2 1-2ZM8.5 8l-1 2 1-2ZM22.5 9l-1 2-2 1 1-2 2-1ZM4.5 12q3 1.5 0 3v-3ZM45.5 12l2.5 2.5v22h-1L46.5 14l-1.5.5.5-2.5ZM43.5 13v3q-3-1.5 0-3ZM7.5 14l-1 2 1-2ZM36.5 14l1 2-1-2ZM9.5 15v3q-3-1.5 0-3ZM40.5 15q3 1.5 0 3v-3ZM9.5 33l1 2-1-2ZM40.5 33l-1 2 1-2ZM7.5 34l1 2-1-2ZM42.5 34v3q-3-1.5 0-3ZM5.5 35 7 36.5Q3.9 38.3 5.5 40L4 38.5q3.1-1.7 1.5-3.5ZM44.5 35l1.5 1.5-1.5 3.5v-5ZM16.5 36l1 2-1-2ZM31.5 37l-1 2 1-2ZM7.5 40l1 2-1-2ZM26.5 40l-.5 1.5q-1.7 6.2 1 8l-2-1q-1.7-6.8 1.5-8.5ZM14.5 44l1 2-1-2ZM33.5 45l-1 2 1-2ZM21.5 48l2.5 1.5-1.5.5-1-2Z" opacity=".447"/><path fill="#8ED6FB" stroke="#8ED6FB" d="m26.5 2 .5 5.5h-1l.5-5.5ZM26.5 42l.5 5.5h-1l.5-5.5Z" opacity=".878"/><path fill="#8ED6FB" stroke="#8ED6FB" d="m21.5 3 .5 4.5Q17.3 12.3 9.5 14l-2-3 14-8ZM27 3l16 8.5-4.5 2.5L27 8V3ZM4.5 16 8 18v13.5L5.5 34 4 33.5 4.5 16ZM45.5 16l.5 18-4-1V18.5l1.5-1.5 2-1ZM10.5 36 22 41l-.5 6L7 38.5l3.5-2.5ZM37.5 36l5.5 2.5L27 47q-1.2-4.6 1.5-6l9-5Z"/><path fill="#92DBFC" stroke="#92DBFC" d="m20.5 0 1.5.5-18 11L5.5 14l6 2 1.5-.5-2 2v15l.5 1.5L4 38.5l18 11-1.5.5-16-9L1 37.5v-25L4.5 9l16-9ZM2 14v23l7-3h1V18q-3-5-8-4ZM24 0l2 .5q-2.5 1.5-1 7l.5 1.5-2 1 .5-1.5V0ZM27.5 0l4 1L48 11.5l1 2v24L45.5 41l-18 9v-1L46 38.5l-8-5 1-1v-15l-.5-1.5 7.5-3-1.5-3-17-9V0ZM47 13l-5 3-2 2v16l8 3V15l-1-2ZM24 40l2 .5q-2.7 1.8-1 8l.5 1.5-1.5-.5V40Z" opacity=".11"/><path fill="#1C78C0" stroke="#1C78C0" d="M23.5 10h3L38 17.5l1 2V33l-11.5 6h-5L11 33V17.5l1.5-.5 11-7Zm1.5 1-9 5q-3-1-2 2l10 5h3l9-5-11-7Zm-13 9v12l11 6h1V27l-12-7Zm25 0-9 5-2 2v11l12-6V21l-1-1Z" opacity=".569"/><path fill="#8ED6FA" stroke="#8ED6FA" d="m26.5 8 1 2-1-2ZM2.5 15 3 35.5H2L2.5 15ZM9.5 18l.5 14.5-2 1 1-1L9.5 18ZM40.5 32l1 2-1-2ZM22.5 40l1 2-1-2Z" opacity=".69"/><path fill="#63AAE1" stroke="#63AAE1" d="m27.5 10 1 2-1-2ZM20.5 11l-1 2 1-2ZM13.5 15l-1 2 1-2ZM36.5 15l2.5 3.5h-1L36.5 15ZM14.5 34l3.5 2.5-1.5-.5-2-2ZM31.5 36l-1 2 1-2ZM23.5 39l3.5.5-3.5.5v-1Z" opacity=".125"/><path fill="#1C78C0" stroke="#1C78C0" d="M24.5 11 36 17.5 26.5 23h-3L14 18q-1.1-2.7 1.5-2l9-5Zm.5 1-7 4q-3-1-2 2l8 4h3l7-4-9-6ZM12 20l12 6.5v11l-1.5.5L12 31.5V20Zm2 1-1 11 9 4h1v-8l-9-7ZM36.5 20l1.5.5v11L26 38V26.5l1.5-1.5 9-5Zm.5 1-8 5-2 1v9q6-1 10-5V21Z" opacity=".984"/><path fill="#1C78C0" stroke="#1C78C0" d="m24.5 12 9.5 5.5-7.5 4.5h-3L16 18q-1.1-2.7 1.5-2l7-4ZM13.5 21l9.5 6.5v8l-1.5.5-8.5-4 .5-11ZM36.5 21l.5 9.5q-3.5 4.6-10 5.5v-9.5l1.5-.5 8-5Z"/><path fill="#8DD6FB" stroke="#8DD6FB" d="M22.5 1q3-.5 1.5 6.5h-1L22.5 1ZM40.5 18l.5 13.5h-1l.5-13.5ZM43.5 37l1 2-1-2ZM23.5 42l.5 7-2-.5 1.5-6.5Z" opacity=".796"/><path fill="#8ED6FB" stroke="#8ED6FB" d="M8.5 18 9 31.5H8L8.5 18Z" opacity=".988"/><path fill="#8ED6FB" stroke="#8ED6FB" d="M3.5 15 4 34.5H3L3.5 15Z" opacity=".969"/><path fill="#8ED6FB" stroke="#8ED6FB" d="m45.5 15 1.5.5v19h-1v-18l-.5-1.5Z" opacity=".937"/></svg>
