<svg viewBox="0 0 50 50" xmlns="http://www.w3.org/2000/svg"><path fill="#3A3A3A" stroke="#3A3A3A" d="m12.5 12 3.5 1.5-1.5-.5q-3 .5-2-1ZM25.5 12l2.5.5-2.5.5v-1ZM22.5 15q2.3-.7 1.5 1.5L22.5 15ZM37.5 16l-1 2-3.5-.5 4.5-1.5ZM27.5 19l1 2-1-2ZM26.5 22l1 2-1-2ZM19.5 23l1 2-1-2ZM31.5 27l3.5.5-3.5.5v-1ZM11.5 35l1.5 2.5-2-1 .5-1.5Z"/><path fill="#001B1D" stroke="#001B1D" d="m10 10 12 .5-11 .5-.5 14-.5-15ZM34.5 10q5.4-.6 5.5.5v26h-1v-25q0-1-4.5-.5v-1ZM21.5 39l14.5.5-14.5.5v-1Z" opacity=".992"/><path fill="#1A1A16" stroke="#1A1A16" d="m22.5 10 11.5.5-11.5.5v-1ZM18.5 12l-1 2 1-2ZM37.5 13l1.5 2.5h-1l-.5-2.5ZM27.5 22l-.5 1.5-.5 1.5-.5-1.5 1.5-1.5ZM19.5 24l1 2q-2.8.7-1-2ZM25.5 26l-1 2 1-2ZM12.5 33l11.5.5-11.5.5-1 1 1-2Z"/><path fill="#06C2D6" stroke="#06C2D6" d="M7.5 0q9.5-1.5 13 3Q23.3-.8 29 0q1.1 2.7-1.5 2l-7 7H9v14.5q-2.3 1.3-1 6l-2 2v8L7 45l21 3-.5 2-3-1-2 1-9-3-2 1L5 45.5l-2-16-3-12V3l7.5-3ZM42 0q3.7-1.5 3 1.5l5 10v8q-3.5.5-3 5 3.9 2.6 3 10L43.5 39H41V9.5L39.5 9 43 4.5 42 0Z" opacity=".749"/><path fill="#06C2D6" stroke="#06C2D6" d="m22.5 41 11.5.5q-1.3 4.2-7.5 3.5l-4-4Z" opacity=".749"/><path fill="#06C2D6" stroke="#06C2D6" d="M35 41q3-1.2 2 2.5l-1 2V50h-6.5v-1H34q-1.1-2.7 1.5-2l-.5-1.5V41Z" opacity=".749"/><path fill="#00171C" stroke="#00171C" d="m10.5 25 .5 14 10 .5-9.5.5-1.5-1.5.5-13.5Z" opacity=".996"/><path fill="#E8E9C3" stroke="#E8E9C3" d="m30 0 8 .5L31.5 8l-8 1L30 1.5V0ZM31.5 13l5.5 1-1.5 3-4.5-1q-1.1 2.7 1.5 2l5.5 3.5q.5 4-2.5 4.5l-3 1-4.5-2.5 2.5-1.5 4.5 1-1.5-3-4.5-1-1.5-4L25 26q-3.7 1.5-3-1.5L21 21q-3-1.2-2 2.5L18 26q-4.1 1.7-3-2.5L12 14q4.1-1.7 3 2.5l1.5 3.5 3-6 2.5 1.5q-1.3 4.8 2 3.5l1-5q3.8-1.5 3 1.5h1q-.7-2.2 1.5-1.5l1-1ZM13 35l11 .5-1.5 1.5H13v-2Z" opacity=".984"/><path fill="#90B897" stroke="#90B897" d="m29.5 0 .5 1.5-8 7L29.5 0ZM38.5 0q4.8-1.7 3.5 2.5L37 9l-7-.5 4-3L38.5 0ZM12.5 13l2.5.5-2.5.5v-1ZM19.5 13l2.5 1.5-1.5-.5-2 1 1-2ZM25.5 13l2.5.5-2.5.5v-1ZM28.5 15l-.5 1.5 1 2-2-1 1.5-2.5ZM22.5 17l1 2q-2.8.7-1-2ZM32.5 21l2.5 1.5-.5 1.5-.5-2-1.5-1ZM21.5 24l.5 2 2 .5-1.5.5-1-3ZM37.5 24l-1 2 1-2ZM13.5 34l9.5.5-10 .5-.5 2-.5-1.5 1.5-1.5Z" opacity=".969"/><path fill="#1987C7" stroke="#1987C7" d="m27.5 2-6 7 6-7ZM42.5 2l.5 2.5L37 9l5.5-7ZM8.5 24 9 39.5l1.5 1.5h11q2 4 8 4l5-4 1 5 1-2 .5 1.5-3 1.5q1.4 3.7-4.5 2l-1.5.5q.6-2.7-5.5-1.5L7 45 6 31.5q3.3-1.7 2.5-7.5ZM24.5 49l2.5.5-2.5.5v-1Z" opacity=".996"/><path stroke="#000" d="m40.5 39-1 2-1.5-.5 2.5-1.5Z" opacity=".812"/><path stroke="#000" d="M11.5 11h27l.5 2.5-1.5-.5-7-1H24q1 3-2 2 1.3-3.3-3.5-2l-2 3-2-3q-4 .7-3-1ZM38.5 16l.5 3.5-2-1 1.5-2.5ZM11.5 18q.4 6.6 4 10l5.5-2q-1.3 3.3 3.5 2l2-3q1.9 4.1 9 3l2.5-1 .5-2 .5 13.5 1 1-2.5.5-1-1-25.5-.5 14-.5q1-3.8-1.5-5h-11l-1 1V18Z"/><path fill="#008089" stroke="#008089" d="m9.5 20 .5 20 12 .5-11.5.5L9 39.5 9.5 20Z" opacity=".996"/><path fill="#58605A" stroke="#58605A" d="m32.5 9 2.5.5-2.5.5V9ZM37.5 25l-1 2 1-2ZM13.5 37l9.5.5-9.5.5v-1Z" opacity=".988"/><path fill="#737B77" stroke="#737B77" d="m22.5 9 9.5.5-9.5.5V9ZM22.5 16l1 2-1-2ZM27.5 18l2 3-2-3ZM36.5 19l1 2-1-2ZM27.5 24l1 2-1-2ZM23.5 34l1 2-1-2Z"/><path fill="#008289" stroke="#008289" d="m9 9 13 .5-12 .5-.5 10L9 9ZM35.5 9q5.4-.6 5.5.5v27h-1v-26q0-1-4.5-.5V9ZM22.5 40l12.5.5-12.5.5v-1Z"/></svg>
