<svg viewBox="0 0 100 45" xmlns="http://www.w3.org/2000/svg"><path fill="#ECECEC" stroke="#ECECEC" d="m5.5 1 2.5.5-2.5.5V1ZM9 1h6v2l-4.5-1-1.5.5V1ZM23.5 8l1 2q-2.8.7-1-2ZM5.5 9l2.5.5-2.5.5V9ZM27.5 9l2.5.5-2.5.5V9ZM52.5 9l2.5.5-2.5.5V9ZM78.5 20H88v6.5q.5 3-6.5 1.5L79 29l2-3.5-2.5-5.5ZM51.5 23l3.5.5-3.5.5v-1ZM56.5 25l.5 14.5h-1l.5-14.5ZM10 26l2 .5-2 1V26ZM11.5 30l2.5 1.5-.5 1.5-.5-2q-2.7-1.1-2 1.5l.5 1.5-1.5-2.5 1.5-1.5ZM81.5 35l1 1H89l-.5 2H82l-.5-3Z"/><path fill="#EEE" stroke="#EEE" d="m5.5 8 1.5.5L4.5 10l1-2ZM10.5 8l1 2h-2L8 9.5 10.5 8ZM16.5 8 21 9.5l-5.5.5 1-2ZM24.5 8l2 1 1.5-.5-2.5 1.5-1-2ZM38.5 8 41 9.5l-1.5.5-2.5-.5L38.5 8ZM43.5 8 47 9.5l-4 .5.5-2ZM49.5 8l.5 2-2-.5L49.5 8ZM88.5 20l.5 4.5h-1l.5-4.5ZM17.5 21l-1 2 1-2ZM12.5 26l-1 2 1-2ZM88.5 26l.5 3-8-.5 7-.5.5-2ZM69.5 32l8.5.5-8.5.5v-1ZM80.5 32l7.5.5-7.5.5v-1ZM13.5 38l-1 2-1.5-.5 2.5-1.5Z"/><path fill="#F9F9F9" stroke="#F9F9F9" d="m90.5 1 .5 2 2 .5-1.5.5-1-3ZM5.5 3l2.5.5-2.5.5V3ZM59.5 9l19.5.5-19.5.5V9ZM80.5 9l3.5.5-3.5.5V9ZM86.5 9l7.5.5-7.5.5V9ZM42.5 11l2.5.5-3.5 1.5 1-2ZM74.5 11l3.5.5-3.5.5v-1ZM79.5 11l2.5.5-2.5.5v-1ZM74.5 13q1.5 3.5 3 1l5 1q1.5-2.5 7-1l1.5 4-3-.5.5-1.5h-15L72 14.5l2.5-1.5ZM21.5 16l2.5 4.5v20h-1l-1-4v-4q.6-11-.5-16.5ZM45.5 16l.5 3.5h-1l.5-3.5ZM69.5 17l3.5.5-3.5.5v-1ZM74.5 17l3.5.5-3.5.5v-1ZM79.5 17l3.5.5-3.5.5v-1ZM65.5 20l.5 20.5h-1l.5-20.5ZM19.5 25l.5 2.5h-1l.5-2.5ZM15.5 30l1.5.5-2.5 1.5 1-2ZM19.5 30l.5 2.5-2 1 1.5-3.5ZM40.5 32l.5 8.5h-1l.5-8.5ZM74.5 33h14l1 1 1.5-.5-.5 1.5h-10q-1.2-2.3-6-1v-1ZM14.5 35q4.5-1 5.5 1.5L18.5 39l-4.5-.5 1-2-.5-1.5Z"/><path fill="#F9F9F9" stroke="#F9F9F9" d="m21.5 39 .5 3 7 1 .5-2 4 1 1.5-.5q-.7 2.3 1.5 1.5 1.3-2.2 6-1l3.5 1 .5-2 7.5 2 .5-2 4 1 1.5-.5q-.7 2.3 1.5 1.5l4.5-1-.5 2h-44l-.5-2.5.5-2.5ZM14.5 43l5.5.5-5.5.5v-1Z"/><path fill="#F7F7F7" stroke="#F7F7F7" d="M26.5 1h2l1.5.5L27.5 3l-1-2ZM40.5 1l-1 2-1.5-.5L40.5 1ZM42.5 1l1 2-1-2ZM11.5 7l2.5.5-2.5.5V7ZM95.5 8l-1 2 1-2ZM77.5 13l-1 2 1-2ZM79.5 14l3.5.5-3.5.5v-1ZM21.5 15h46l1.5 1.5-1.5-.5h-46v-1ZM90.5 18l.5 12.5h-1l.5-12.5ZM21.5 19l.5 18.5 1 1-2 .5.5-20ZM9.5 25l.5 2.5H9l.5-2.5ZM14.5 33l3.5.5-3.5.5v-1ZM90.5 35l.5 7.5-2 1 1.5-8.5ZM72.5 38l2.5.5-2.5.5v-1ZM14.5 40H20v2.5h2q-1.2 3.8-7.5 2.5v-1l5.5-.5-1.5-2.5-3 1-1-2ZM26.5 41l2.5 1.5-1.5.5-1-2ZM37.5 41l-1 2-1.5-.5 2.5-1.5ZM51.5 41l2.5 1.5-1.5.5-1-2ZM62.5 41l-1 2-1.5-.5 2.5-1.5ZM43.5 42l2.5.5-2.5.5v-1Z"/><path fill="#F4F4F4" stroke="#F4F4F4" d="m25.5 1 1 2-2.5-.5L25.5 1ZM30.5 1 33 2.5 31.5 2l-1-1ZM34.5 1h2l1.5.5L34 3l.5-2ZM41.5 1l-1 2 1-2ZM15.5 5l3.5.5-3.5.5V5ZM3.5 7l3.5.5-3.5.5V7ZM21.5 7l2.5.5-2.5.5V7ZM32.5 8l2.5.5-2.5.5V8ZM55.5 9l-1 2 1-2ZM4.5 10l4.5.5-4.5.5v-1ZM13.5 10l2.5.5-2.5.5v-1ZM17.5 10l4.5.5-4.5.5v-1ZM23.5 10l3.5.5-3.5.5v-1ZM28.5 10l4.5.5-4.5.5v-1ZM36.5 10l9.5.5-9.5.5v-1ZM45.5 12l-1 2-1.5-.5 2.5-1.5ZM13.5 13v3L10 14.5l3.5-1.5ZM68.5 15l-.5 1.5-.5 4.5-1.5-4.5 2.5-1.5ZM42 16l3 .5-2.5 1.5-.5-2ZM20.5 17l.5 2.5q-1.3 2.8-2.5.5l-5 1-1-2h2q4.6.6 6-2ZM89.5 20l.5 9.5h-1l.5-9.5ZM57.5 21l.5 18.5-2 1 1-1 .5-18.5ZM17.5 22l3.5 1-.5 2h-10v-1l7.5-.5-.5-1.5ZM14.5 28q7.6-1.5 6.5 2l-6.5-1v-1ZM67.5 29l1.5 4.5-1 3q1.5 7-1.5 6.5l.5-1.5-1-10 1.5-2.5ZM34.5 31l3.5.5-3.5.5v-1ZM20.5 33l.5 2-2-.5 1.5-1.5ZM19.5 39q2.3-.7 1.5 1.5L19.5 39Z"/><path fill="#FBFBFB" stroke="#FBFBFB" d="m19.5 3-1 2-2.5-.5L19.5 3ZM45.5 13l1 1 19.5.5-43.5.5v-1h22l1-1ZM14.5 14l4.5.5-1 2 .5 1.5-4.5-.5 3-.5q1.3-3-2.5-2v-1ZM79.5 34l-1 2 1-2Z"/><path fill="#FEFEFE" stroke="#FEFEFE" d="m0 0 5 .5-1 2L4.5 4Q-2.3 6 0 0ZM6.5 0 9 .5 6.5 1V0ZM11.5 0l3.5.5-3.5.5V0ZM20.5 0 91 .5 90 4l-46-.5q2.3-1.2-.5-2.5h-23V0ZM95.5 0q6.8-2 4.5 4-5.2 2.1-4-2.5L95.5 0Z"/><path fill="#FEFEFE" stroke="#FEFEFE" d="M0 5h2v6h10.5l-1 2-2.5.5V45H0V5ZM26 5h74v40l-11-.5 2-.5V14.5l-.5-.5H84v-1.5L82.5 11h-8l-1 3h-27l-.5-3h9.5l1-1H96l-1.5-3h-16l-1 1-1-1H26V5Zm5 16v6h2v-2q1-5-2-4Z"/><path fill="#FEFEFE" stroke="#FEFEFE" d="M17.5 11h23l.5 3H21.5q-4-.5-4-3ZM22 16h18.5l.5 1.5-1 2 3.5 1.5 3.5-1.5-1-3.5h18.5l.5 3h-7.5l-.5 4h-8l-.5-2-.5 6h-6.5l-1-1-.5 5-8.5-1 .5 3.5-1.5 1.5H25V21.5L24 19q-3.3 1.1-2-3ZM72 36h6v2h-6v-2ZM21.5 44l47.5.5-47.5.5v-1Z"/><path fill="#BBCACE" stroke="#BBCACE" d="M16 1q3-1 2 2-3 1-2-2ZM58.5 20l.5 20 5 .5-4.5.5-1.5-1.5.5-19.5ZM69 21q3-1.2 2 2.5l.5 5.5-2.5-.5V21ZM42.5 28q4.5-1 5.5 1.5v10L46.5 41Q42 42 41 39.5v-10l1.5-1.5Zm-.5 1v11h5V29h-5ZM69.5 30l8.5.5-8.5.5v-1ZM79.5 30l9.5.5-9.5.5v-1ZM11 31q3-1 2 2-3 1-2-2ZM33 32l6 .5-5 .5v7h4.5v1Q34 42 33 39.5V32ZM11 36q3-1 2 2-3 1-2-2ZM25.5 36q4.5-1 5.5 1.5L29.5 41l-4.5-.5 5-.5q1.8-4.9-4.5-3v-1ZM55.5 39l-1 2-3.5-.5 4.5-1.5ZM69 39h19.5l.5 4-11.5-1-1 1H69v-4Z"/><path fill="#EFF0F1" stroke="#EFF0F1" d="m22.5 8 .5 2-2-.5L22.5 8ZM44.5 8l2.5.5-2.5.5V8ZM11.5 18l6.5.5-6.5.5v-1ZM55.5 23l1 2-1-2ZM43.5 27l3.5.5-3.5.5v-1ZM89.5 31l-1 2 1-2ZM13.5 34l4.5.5-4.5.5v-1ZM82.5 35q6-1.5 7.5 1.5l-.5 2.5-.5-3h-6.5v-1ZM32.5 36l.5 4q-3 1.3-2-2.5l1.5-1.5Z"/><path fill="#FDFCFC" stroke="#FDFCFC" d="M44.5 2v2h45l1-1 4 1h2l3.5.5-73.5.5-1 1L19 4.5 20.5 3h23l1-1ZM.5 4l15.5.5L.5 5V4ZM25.5 7l51.5.5-51.5.5V7ZM78.5 7l16.5.5-16.5.5V7ZM16.5 11l1 2-1-2ZM20.5 13l1 2-1-2ZM74.5 16l14.5.5-14.5.5v-1ZM40.5 18l.5 2 3 .5-3.5 1.5-.5-2.5.5-1.5ZM24.5 21l.5 13.5h-1l.5-13.5ZM31 21q3.3-1.3 2 3.5l-.5 2.5-1.5-.5V21ZM48.5 21l.5 6.5h-1l.5-6.5ZM13.5 25q2.6-.8 1.5 2.5h-1l-.5-2.5ZM18.5 25l.5 2.5h-1l.5-2.5ZM18.5 30l.5 2.5h-1l.5-2.5ZM31.5 30q2.3-.7 1.5 1.5l-2 1 .5-2.5ZM75.5 34l3.5.5v2l-.5 1.5-.5-2-6.5 1 1-2 3-1ZM22.5 41l2.5.5-2.5.5v-1ZM69.5 44l19.5.5-19.5.5v-1Z"/><path fill="#6D8CB1" stroke="#6D8CB1" d="M59.5 20q4.5-.5 4.5.5V40l-5-.5 4-.5V21.5l-3.5-.5v-1ZM51.5 24q3.8-.7 4.5 1.5v13L54.5 40q-4.5.5-4.5-.5v-14l1.5-1.5Zm-.5 1v14h4V26l-4-1ZM42.5 29l.5 10 4 .5-5 .5.5-11ZM38.5 33l.5 7-5-.5 4-.5.5-6ZM25.5 37l.5 2 4 .5-5 .5.5-3Z"/><path fill="#E7E9EA" stroke="#E7E9EA" d="m77.5 18 2.5.5q-2.1 3.3-2.5-.5ZM59.5 19l4.5.5-4.5.5v-1ZM16 20l2 .5-2 1V20ZM68.5 21l.5 7.5h-1l.5-7.5ZM78.5 21l2.5 4.5-2 3 .5 1.5-1.5-.5.5-8.5ZM49.5 25l.5 14.5h-1l.5-14.5ZM80.5 35l1.5 3q6.1-1.7 8 1.5l-1.5-.5h-7l-.5-2.5-.5-1.5ZM11.5 40l-.5 1.5-.5 1.5-.5-1.5 1.5-1.5Z"/><path fill="#F1F1F1" stroke="#F1F1F1" d="m29.5 2 2.5.5-2.5.5V2ZM3.5 5l-1 2 1-2ZM11.5 8l3.5.5-3.5.5V8ZM19.5 8l2.5.5-2.5.5V8ZM48.5 8l-1 2 1-2ZM50.5 8l3.5.5-3.5.5V8ZM69 15q4.1-1.3 3 2-4.1 1.3-3-2ZM66.5 17q2.4 4.1 1.5 11.5L66.5 31V17ZM20.5 20l.5 2.5h-1l.5-2.5ZM13.5 23l4.5.5-4.5.5v-1ZM20.5 25l.5 2.5h-1l.5-2.5ZM12.5 27q1.4 3.1 6.5 2.5l-7.5.5-1-2 2 1v-2ZM20.5 30l.5 2.5h-1l.5-2.5ZM17.5 31l-1 2 1-2ZM68.5 32l4.5 1q1.2 3.7-4 2l-.5-3ZM66.5 34l.5 7.5h-1l.5-7.5ZM20.5 35l.5 3.5h-1l.5-3.5ZM13 39l6 .5-5.5 1.5-.5-2ZM69.5 43l19.5.5-19.5.5v-1Z"/><path fill="#F6F9F9" stroke="#F6F9F9" d="M20.5 1 24 2.5 22.5 2l-3 1 1-2ZM10.5 13l3.5 1.5-1.5-.5q-4.2-1.3-2.5 3.5H9q-.7-3.7 1.5-4.5ZM17.5 13l3.5 1.5-1.5 3.5-.5-4-1.5-1ZM15 15l2 .5-2 1V15ZM48.5 29l.5 10.5h-1l.5-10.5ZM26.5 35l3.5.5-3.5.5v-1ZM75.5 38l2.5.5-2.5.5v-1Z"/><path fill="#4E79A7" stroke="#4E79A7" d="m59 21 4 .5V39l-4-.5V21ZM51 25l4 .5V39l-4-.5V25ZM43 29h4v10h-4V29ZM34 33h4v6h-4v-6ZM26 37q5.2-1.7 4 2-5.2 1.7-4-2Z"/><path fill="#DDDEDF" stroke="#DDDEDF" d="M16.5 0 19 1.5 17.5 4 15 2.5 16.5 0ZM16 1q-1 3 2 2 1-3-2-2ZM91.5 1h2l1.5.5L91 3l.5-2ZM5.5 2l3.5.5-3.5.5V2ZM10.5 2l2.5.5-2.5.5V2ZM4.5 6l2.5.5-2.5.5V6ZM14.5 6l4.5.5-4.5.5V6ZM21.5 6l2.5.5-2.5.5V6ZM11.5 15q2.3-.7 1.5 1.5l-2 1 .5-2.5ZM69 18h7.5l1.5 1.5v10l1 1-1.5 1.5h-8v-1l8.5-.5-9-1 3-1-1-5q1-3.7-2-2.5v-3ZM80.5 18q6.8-1.7 8.5 1.5l-7.5.5-2.5-.5 1.5-1.5ZM11.5 20q3 1.5 0 3v-3ZM64.5 20l.5 19.5h-1l.5-19.5ZM80.5 29l7.5.5-7.5.5v-1ZM80.5 31l8.5.5-8.5.5v-1ZM39.5 33l.5 6.5h-1l.5-6.5ZM11.5 35l2.5 1.5-1.5 2.5-2.5-1.5 1.5-2.5Zm-.5 1q-1 3 2 2 1-3-2-2ZM80.5 36l.5 2.5h-1l.5-2.5ZM24.5 37l.5 2.5h-1l.5-2.5ZM11 41q3.8-1.5 3 1.5L11 44v-3ZM77.5 42l3.5.5-3.5.5v-1Z"/></svg>
