<svg viewBox="0 0 100 45" xmlns="http://www.w3.org/2000/svg"><path fill="#ECB843" stroke="#ECB843" d="M1 1h12.5L15 2.5l-2 1 3 1L12 6l1.5 3 5-1L21 9l1-2.5-1-1L22.5 3l-4 2q-4.5-2-1-4H32v12l-2.5 1-12 1-7.5 3-2 6 4 1.5V27h6.5l.5 1.5 1 2.5q2.1 1.6 7.5 1l4.5-3.5q.8 3.8-1.5 4.5h-13l-1-1-4 1q-3-3-10-2L1 29.5l1-7-1-2V1Zm22 6v2l3 1q2-4-3-3ZM96.5 12l2.5 1v4h-1.5l-2 1-4.5-1 1.5-4 2 1 2-2Z"/><path fill="#D6D7D4" stroke="#D6D7D4" d="M35.5 0 46 .5 35.5 1V0ZM54.5 0 65 .5 54.5 1V0ZM33.5 1l.5 3.5h-1l.5-3.5ZM66.5 1l.5 4.5h-1l.5-4.5ZM55 6l3 .5L55 8V6ZM42.5 8 46 9.5 37.5 15l-.5-2 4-1.5L40 9l2.5-1Z"/><path fill="#D6D7D4" stroke="#D6D7D4" d="M51.5 9q5.4-1.9 4.5 1.5l-1.5-.5q-4 .8-3-1ZM59 9q3-1 2 2-3 1-2-2ZM44.5 12l-1 2 1-2ZM50 12l5 .5-4 1 5 1-6 .5v-3ZM34.5 29l7.5 3.5-3.5.5-4.5-1 .5-3ZM65.5 29l.5 2.5Q65 34 60.5 33v-1q3.8.8 4.5-1.5l.5-1.5ZM83.5 34l3.5 2.5-7.5.5v-1l4-2ZM17.5 35l-1 2-3 1 1-2 3-1ZM44.5 36l1.5.5-2.5 1.5 1-2ZM79.5 39q3 3.5 9.5 3.5l-8.5.5v-1l1.5-.5-2.5-2.5ZM15.5 41l5.5 1.5-7.5.5v-1l2-1ZM8.5 42l2.5.5-2.5.5v-1ZM22.5 42l2.5.5-2.5.5v-1ZM39.5 42l2.5.5-2.5.5v-1ZM47.5 42l3.5.5-3.5.5v-1ZM56.5 42l4.5.5-4.5.5v-1ZM71.5 42l2.5.5-2.5.5v-1ZM90.5 42l4.5.5-4.5.5v-1Z"/><path fill="#C6CBCB" stroke="#C6CBCB" d="M56.5 4 62 5v3q2.7-1.1 2 1.5L62.5 9l-4 1L53 8.5l5-2-3-1L56.5 4ZM39.5 5q6.1-1.2 5.5 1.5L46 9q3-1 2 2l-4.5 1v-1L46 9.5 42.5 8 40 9l2 3.5-1.5-.5q-3 .7-1.5-3h-2.5L34 10.5l.5-4.5.5 2 2-.5-.5-1.5 3-1ZM35.5 29h29l.5 1.5-5.5 2.5h-8l-1 1 .5-1.5-1.5-2.5-.5 3h-6.5q-1.8-3.2-7-3v-1ZM16.5 35l2 3-2-3ZM47.5 37l3.5 1.5-.5 1.5 2.5.5-2.5.5-1-1H43l.5-2 5 1v-1l-1-1Z"/><path fill="#252B40" stroke="#252B40" d="m89.5 6 .5 6.5-1.5-.5-3.5-1 1.5-4 3-1ZM82.5 7l-2 3-2.5-.5L82.5 7ZM71.5 19q6.1-.7 8.5 1l2 4.5-2.5 3.5q.8-6.3-3-8-6.2-1.2-7.5 2.5-1.2 6.8 3 8l-1.5.5q-3.7-2.2-2.5-9.5l3.5-2.5ZM29.5 23l2.5 3.5-2 .5-.5 2v-6ZM14.5 25l2.5.5-2.5.5v-1ZM35.5 26l23.5.5-23.5.5v-1ZM63.5 26q2.3-.7 1.5 1.5L63.5 26Z"/><path fill="#BCB4B2" stroke="#BCB4B2" d="m56.5 3 6.5.5-6.5.5V3ZM66.5 7l3.5.5L67.5 9l-1-2ZM64.5 9l.5 3-4-1.5 1.5-.5 1.5.5.5-1.5ZM37.5 10q3 1.5 0 3v-3ZM66.5 10l.5 3.5h-1l.5-3.5ZM86.5 13l.5 3-2-.5 1.5-2.5ZM23.5 14l8.5 1 1 3.5-2.5 1.5-2.5-1-2.5-4q-3 .5-2-1ZM63.5 15l3.5 1.5-1.5 1.5-8.5.5 5 1-7.5.5q-1.4-2.6-6-2l-1 1h-10l-1 1-2.5-1q-1.1-2.7 1.5-2l3-1q1.8 2.8 8 1l1-1h15l1-1ZM19.5 16l.5 3q-5.1-1.3-6.5 2l-.5-2 6.5-3ZM23.5 18l2.5.5-2.5.5v-1ZM63.5 19l5.5.5-5.5.5v-1ZM33.5 20l.5 2 3 .5-3.5 1.5q-2.8-1.2-.5-2.5l.5-1.5ZM61.5 21q3.8-1 2.5 2h-6.5l-1 1h-16l-1-2h21l1-1ZM14 37l6 2.5-2.5 1.5-3.5-1v-3ZM44.5 37l2.5.5-2.5.5v-1ZM80 37q3-1 2 2-3 1-2-2ZM83.5 38l1 2q-2.8.7-1-2Z"/><path fill="#ABA8A8" stroke="#ABA8A8" d="M47 1q5.5-1.3 7 2.5 2.1 5.8-2.5 4.5V7l1.5-.5L51 2l-2 .5 1 1L46.5 7 46 4l-3-.5 4-.5V1ZM34.5 3l2 1 5-1v1L34 5l.5-2ZM63.5 3l2.5.5v2q1.8 6.2-1 8l2 .5.5-2 .5 4-4.5-1-1.5.5 1-3.5q3 1.3 2-2.5L63.5 7l1.5.5q.7-2.6-2-1.5l.5-3ZM68.5 8l-1 2 1-2ZM91.5 10l.5 2.5h-1l.5-2.5ZM36.5 11l1.5.5-3.5 2.5 2-3ZM87.5 13l.5 2.5-5 2 .5 1.5-2.5-1.5 2-.5q-1.1-2.7 1.5-2l1.5-.5-.5 1.5q2.9.7 2-3ZM39.5 14v2l1.5.5-1.5.5q-3-1.5 0-3ZM43.5 16l3.5.5-3.5.5v-1ZM67 17l2 .5-2 1V17ZM79.5 17l1.5 2.5-2-1 .5-1.5ZM15.5 19l5.5.5q-.7 2.3-4.5 1.5l-1-1-2.5 1.5 2.5-2.5ZM29.5 19l3.5 1-1 2.5 1.5 2.5q-3.7-2-2-4l-2-2Z"/><path fill="#ABA8A8" stroke="#ABA8A8" d="m34 20 27 1.5-22 1 .5 1.5-3.5-.5.5-1.5q-3.7 1-2.5-2ZM66.5 20l1.5.5-4.5 3.5h-6v-1h6l.5-2h1.5l1-1ZM41.5 24l14.5.5-14.5.5v-1ZM72.5 26l2 1 1.5-.5-2.5 1.5-1-2ZM57.5 28l4.5.5-4.5.5v-1ZM49 31l2 .5-1.5 2.5-.5-3ZM15.5 38l2.5 1.5-1.5-.5-1-1Z"/><path fill="#C3BBB3" stroke="#C3BBB3" d="m78.5 2 .5 4.5h-1l.5-4.5ZM31.5 13l2.5 1.5-1.5 3.5-.5-3-4-.5 3.5-1.5ZM17.5 15Q26 13 28 17.5L25.5 16l-5 1h-2l-2 1-1-2 2-1ZM13.5 17l1 2-1-2ZM20.5 18l2.5.5-2.5.5v-1ZM48 18l6 1.5-6 .5v-2ZM57.5 18l7.5.5-7.5.5v-1ZM68.5 30l1 2-1-2ZM79.5 30l-1 2 1-2Z"/><path fill="#C2C2BF" stroke="#C2C2BF" d="m55.5 3 .5 1.5L54.5 8 54 5.5 55.5 3ZM39.5 4H46v2.5h-1q.6-2.7-5.5-1.5L36 6.5l.5 1.5q-2.2.8-1.5-1.5L34.5 5h2l3-1ZM59.5 4l3.5.5-3.5.5V4ZM36.5 9q3.3-1.1 2.5 1.5l-2.5.5-2 1 2-3ZM61.5 9l2.5 1.5-1.5-.5-1-1ZM32.5 14l2.5 1.5-1 3.5 2 .5-1.5.5-2.5-.5 1-4-.5-1.5ZM56.5 14l-1 2-6.5-.5 7.5-1.5ZM21.5 16l-1 2 1-2ZM25.5 16l1 2-1-2ZM40.5 19l3.5.5-3.5.5v-1ZM45.5 19l2.5.5-2.5.5v-1ZM82.5 37l3.5.5-3.5.5v-1ZM13.5 38l.5 2 3 .5-2.5.5-1-3ZM45.5 38l3.5.5-3.5.5v-1ZM51.5 38l3.5 1.5-2 1 .5-1.5-3 1 1-2ZM81.5 39l2.5 1.5-1.5.5-1-2Z"/><path fill="#5B5B63" stroke="#5B5B63" d="M84.5 5 88 6.5l-1.5.5-2-2ZM75.5 8l1 2-1-2ZM70.5 10l.5 2.5h-1l.5-2.5ZM82.5 10l3.5 1.5-1.5.5-2-2ZM57.5 11l2.5 3.5-1.5.5q-2.5-1-1-4ZM73.5 11l.5 2-2-.5 1.5-1.5ZM75 11l5 1.5-5 .5v-2ZM40.5 15l2.5.5-2.5.5v-1ZM88.5 17l2.5 1.5-1.5.5-1-2ZM11.5 18l-1 2 1-2ZM21.5 20v3l-2.5-.5 2.5-2.5ZM28.5 20l1 2-1-2ZM23.5 21l2.5.5-2.5.5v-1ZM71.5 21l-1 2 1-2ZM81.5 22l3 1h2l1.5.5-2 1-.5-1.5-3 1-1-2ZM14.5 23l2.5 1.5-1.5.5-1-2ZM20.5 24l.5 3.5h-1l.5-3.5ZM31.5 24l1 2-1-2ZM69.5 24l.5 2.5h-1l.5-2.5ZM34.5 25l29.5.5-29.5.5v-1ZM65.5 25l2 3-2-3ZM13.5 26l2.5.5-2.5.5v-1ZM28.5 27l1.5 2.5q-1.5 3-3 0l1.5-2.5ZM58.5 27l3.5.5-3.5.5v-1ZM23 30q4.1-1.3 3 2-4.1 1.3-3-2ZM72.5 30q3.8-.7 4.5 1.5l-1.5-.5-4 1 1-2Z"/><path fill="#424451" stroke="#424451" d="m83.5 6 2.5.5-1.5 4.5L81 9.5l.5-2.5 1.5.5.5-1.5ZM76.5 8l2.5.5q-2.1 3.3-2.5-.5ZM90.5 9l.5 3.5h-1l.5-3.5ZM11.5 19l.5 2-2-.5 1.5-1.5ZM70.5 19q1.3 2.3 6 1l2.5 2.5-.5 2.5-.5-3-6.5-1-2 3-.5-1.5q3.1-1.8 1.5-3.5ZM89.5 19q2.3-.7 1.5 1.5L89.5 19ZM22.5 20q7.3-1.2 8.5 3.5h-3q.8-2.2-1.5-1.5l-3-1-2.5 1-1.5 6-3.5-1.5 3-1.5 3.5-5ZM88.5 21l1 2q-2.8.7-1-2ZM67.5 23l.5 3.5h-1l.5-3.5ZM81.5 23l3 1 1.5-.5q.9 3-3.5 1.5l-1.5.5.5-2.5ZM13 24l2 .5-2 1V24ZM31.5 25l1.5 3-3-.5 2-1-.5-1.5ZM64.5 25l1.5 2.5h-1l-.5-2.5ZM59.5 26q3.8-.7 4.5 1.5l-1.5.5-3-1v-1ZM36.5 27l21.5.5-21.5.5v-1ZM69.5 27l-1 2 1-2ZM78.5 27q3.5 2-1 4l-5 1v-1q4.8.8 5.5-2.5l.5-1.5ZM20.5 29q2.3-.7 1.5 1.5L20.5 29ZM28.5 29l-1 2-1.5-.5 2.5-1.5Z"/><path fill="#787378" stroke="#787378" d="m38.5 2 2.5.5-2.5.5V2ZM88.5 5 91 6.5 89.5 6l-1-1ZM73.5 8 76 9.5l-1.5.5-1-2ZM57.5 10l1 2-2.5-.5 1.5-1.5ZM68 10q3-1.2 2 2.5h1l.5-2.5 1 3q2.3.8 1.5-1.5h1q-.7 2.3 1.5 1.5l1 2H68v-5ZM78.5 10l3.5.5-2 1 2.5.5q1.3-2.2 2.5.5L82.5 14 77 11.5l1.5-1.5ZM61.5 11l1.5 3.5h-1l-.5-3.5ZM89.5 13q2.3.8 1.5 4.5h-1l-.5-2.5-2 3 .5-1.5 1.5-3.5ZM43.5 15l2.5.5-2.5.5v-1ZM23.5 19l4.5.5-4.5.5v-1ZM69.5 19l-2 3 2-3ZM79.5 19q.5 3.5 5 3l2.5-.5q-1.1-3.3 1.5-2.5l-.5 1.5 1 3-1.5-.5-2-1-3 1-3-4ZM9.5 21l1.5 2.5-2-1 .5-1.5ZM17.5 21l2.5.5-2.5 3.5q-2.8-1.3-.5-2.5l.5-1.5ZM30.5 21l1.5 2.5-2-1 .5-1.5ZM72.5 21l5.5 2.5q1.3 5.3-1.5 6.5l-.5-1.5 1-3-4.5-3.5-1.5 4.5.5 2.5 1.5.5-1.5.5q-2.7-1.2-1.5-6.5l2.5-2.5ZM12.5 22l1 2-1-2ZM22.5 22q4.5-1 5.5 1.5l1 3-2.5 3.5.5-1.5q1.9-5.4-1.5-4.5L23 23l-1 5.5.5 1.5q-2.7-1.2-1.5-6.5l1.5-1.5ZM63.5 24l3.5 1.5-1.5-.5q-3 .5-2-1ZM33.5 25l.5 2.5h-1l.5-2.5ZM68.5 29l1 2-1-2Z"/><path fill="#908F91" stroke="#908F91" d="M35.5 1h11l.5 2-8.5-1-3 2q-3-1.5 0-3ZM52.5 1h12L66 2.5q-1.2 2.7-2.5.5h-10l-1-2ZM49.5 2q2.3-.7 1.5 1.5l2 3L48.5 9 46 7.5q5.4-2.7 3.5-5.5ZM63.5 6q2.3-.7 1.5 1.5L63.5 6ZM71 7l5 .5-3 1 5 2-5.5.5V9L68 10l-.5 2-.5-1.5q2-3.7 4-2V7ZM80.5 11l2.5.5-2.5.5v-1ZM85 12l2 .5-4 2.5q-1.3 3.3 3.5 2l1.5-.5-1.5 5.5h-2L81 20.5q-.8-2.6 2.5-1.5l-1-2q-4.4-1.5-3.5 1.5l-1.5-.5L67 16.5l1.5-1.5 9.5-.5-.5-1.5 7.5 1v-2ZM40.5 14l2.5.5-2.5.5v-1ZM47.5 14l.5 2-2-.5 1.5-1.5ZM57.5 15l4.5.5-4.5.5v-1ZM12.5 19l1 3q1.8-3.7 3.5-.5.9 3-3.5 1.5-2.5-1-1-4ZM21.5 19l1.5.5-2.5 1.5 1-2ZM28.5 19l1 2-1-2ZM42.5 20l14.5.5-14.5.5v-1ZM59.5 20l6.5.5-6.5.5v-1ZM8.5 22l1 2-1-2ZM65.5 22q2.6-.8 1.5 2.5l-1.5-.5-1.5-.5 1.5-1.5ZM72.5 22l4.5 3.5-1 4.5-5-1.5v-2l1.5-4.5ZM23 23l4 1q1.3 4.6-1.5 6L22 28.5l1-5.5ZM11.5 24l1.5 2.5h-1l-.5-2.5ZM34.5 24l6.5.5-6.5.5v-1ZM56.5 24l6.5.5-6.5.5v-1ZM83.5 25l2.5.5-2.5.5v-1ZM38.5 28l18.5.5-18.5.5v-1ZM62.5 28l3.5.5-3.5.5v-1Z"/><path fill="#EFEADF" stroke="#EFEADF" d="M1.5 0 35 .5 1.5 1l-1 1 1-2ZM46.5 0l7.5.5-7.5.5V0ZM65.5 0h33l1.5 1.5-.5 11.5L99 1H65.5V0Z"/><path fill="#EFEADF" stroke="#EFEADF" d="m76.5 3 .5 1.5-2 1L76.5 3ZM.5 4l.5 8.5H0L.5 4ZM33.5 5l.5 6.5h-1l.5-6.5ZM47.5 11l2.5 1.5-5.5 1.5 1-2 2-1ZM51.5 11l3.5.5-3.5.5v-1ZM51.5 13l4.5.5-4.5.5v-1ZM.5 17 1 32l4 1.5-1.5.5L0 33l.5-16ZM22.5 17l2.5.5-2.5.5v-1ZM99.5 17l.5 4.5-1 2 1 3h-1l-1-4 1.5-5.5ZM98.5 28l1.5 4.5-2.5 1.5-4-1-8.5 1.5 3 2-1 4 3 .5-.5 2-5.5-1.5 3-1.5v-4h-1.5L84 33q10 1.8 14-3.5l.5-1.5ZM33.5 29l.5 3q4.9 1.8 13.5 1l2 2 2-2h13l1.5-1.5.5-2.5 1.5 4h13.5l.5 3-2-.5.5-1.5h-12l-2-2-2 2h-13L50 35.5q-.8 2.6 2.5 1.5v1L46 36.5l3-1-1.5-1.5-14-1-3 1v-1H33l.5-4ZM7.5 33l5.5.5-5.5.5v-1ZM18.5 36l2.5 1.5.5 4.5 3-1q3 1.5 0 3l-1.5-.5 2-1-2.5-.5q-1.7 3.8-9 2l-2-1-3 1v-1l3.5-1.5.5-3.5.5 3 2 .5-2 1 7.5.5v-1l-1.5-.5 1-4.5-1.5-1Z"/><path fill="#EFEADF" stroke="#EFEADF" d="M54.5 37q4.6-1.4 2.5 4.5-2.2 3.8-9.5 2.5l-5-1-3 1q-3-1.5 0-3l5-1 2 1 2-1q1.2 2.3 6 1l1.5-3-1.5-1ZM40 42v1h2l-2-1Zm8 0v1h3l-3-1ZM79.5 40l2.5 1.5-2 1 7 1-7.5.5-3.5-2-.5 2h-2L70 42.5l3.5-1.5h2l4-1ZM72 42v1h2l-2-1ZM91.5 41q3.8-.7 4.5 1.5.9 3.4-4.5 1.5v-1l3.5-.5q-4.4.4-3.5-1.5ZM61.5 42l.5 2-3-.5 2.5-1.5Z"/><path fill="#FAF8F1" stroke="#FAF8F1" d="m50.5 10 4.5.5-6.5 1.5v-1l2-1ZM99.5 27l.5 2.5h-1l.5-2.5ZM66.5 32l2 2 12.5.5-3 2-.5-1.5h-9L65 33.5l1.5-1.5ZM.5 33l4 1 2-1 1 1H15v2q-2.7-1.1-2 1.5l-2-1 .5-1.5h-9l-1 1-1-3ZM33.5 33l3.5.5-4.5 1.5-12.5.5 2 .5.5 4 1-3 2 4 4 1 1.5-2.5-1-2.5q4-1.4 2 5.5l1 2.5-8-1.5q2.2-1.2-.5-2.5l-3 1q.6-4.6-2-6l-1.5-.5 1.5-1.5h13l1-1ZM93.5 33l5 1 1.5-.5-2.5 1.5h-2q-6.3-1.7-8 1L85 34.5l8.5-1.5ZM40.5 34q6.8-1.7 8.5 1.5l-2.5.5-6-1v-1ZM51.5 34l5.5.5-6 1 7 .5-.5 6-.5-5h-6.5l-.5-1.5 1.5-1.5ZM58.5 34l5.5.5-5.5.5v-1Z"/><path fill="#FAF8F1" stroke="#FAF8F1" d="M4.5 36 6 39q-3.5 1.1-1.5-3ZM42.5 37l.5 3.5h-1l.5-3.5ZM7 39l5 1q1.1 2.7-1.5 2-1.2-2.2-2.5.5L7.5 44 7 39ZM60.5 41l6.5 2.5Q66 46 61.5 45l.5-1.5q.8-2.2-1.5-1.5v-1ZM70.5 41v3q-3-1.5 0-3ZM95.5 41q2.6-.7 1.5 2h2.5l-1 2-4.5-.5 2-.5-.5-3ZM42.5 43l4.5.5-4.5.5v-1ZM54.5 43l4.5.5-4.5.5v-1ZM76.5 43l2.5.5-2.5.5v-1ZM87.5 43l3.5.5-3.5.5v-1Z"/><path fill="#FCFAF4" stroke="#FCFAF4" d="m.5 34 1 2 1-1h9l.5 2.5q1.3 3.8-2.5 2.5L7 39l.5 5h20v1H0l.5-11ZM5 36q-3 4 1 3l-1-3ZM33.5 34q6.8-.7 10.5 1.5-3 1.3-2 5.5-5.6-1.9-4 3l23 .5-28 .5-1-8q-2.7-1.1-2 1.5l1 2-3.5 1.5-3.5-2.5-.5-2.5-1 3-.5-4-2-.5 12.5-.5 1-1ZM57.5 34q1.2 2.3 6 1l4-1 1 1H78v6h-7.5q-3 1.5 0 3l23.5.5-27.5.5v-2L58 41v-5h-6.5v-1q4.7 1.3 6-1Z"/><path fill="#FCFAF4" stroke="#FCFAF4" d="m96.5 34 2 1 1.5-.5V43h-3l-.5-2H88v-6h7.5l1-1Z"/><path fill="#F6DA9F" stroke="#F6DA9F" d="m14.5 1 2.5.5Q14.3 3.2 18.5 5l4-2L21 7.5q.8 2.3-1.5 1.5l-5-1q-1.2 2.3-2.5-.5-.8-2.6 2.5-1.5l1-2-2.5-.5 2-1-.5-1.5ZM32.5 1l.5 11.5h-1L32.5 1ZM68.5 1H99v12l-2.5-1-3 2-1.5-3.5q2.5-1.5-1-3L89.5 4l-3 1-2-1L79 7V2h-3l-1 5h-8V2.5L68.5 1ZM23 7q4.5-1.5 3 3l-3-1.5V7ZM.5 13l.5 3.5H0L.5 13ZM91.5 17l5 1 2.5-1-1 6.5 1 4-3.5 4.5L84 33q1-3-2-2 1.3 3.7-4.5 2v-1l2.5-1.5 1-3.5 7.5-2 3.5-3.5-.5-4.5ZM1.5 22l.5 4.5H1l.5-4.5ZM32.5 29l.5 4-2-.5 1.5-3.5ZM1.5 30 12 32.5l-8.5.5L1 32l.5-2ZM68.5 31l2.5 1.5-3 .5.5-2ZM18.5 33l6.5.5-6.5.5v-1ZM27.5 33l2.5.5-2.5.5v-1Z"/></svg>
